<?xml version="1.0" encoding="UTF-8"?>
<svg version="1.1" xmlns="http://www.w3.org/2000/svg" width="512" height="512">
<path d="M0 0 C1.23169479 -0.00507454 2.46338959 -0.01014909 3.73240846 -0.0153774 C5.1066223 -0.0159791 6.48083618 -0.01647817 7.85505009 -0.01688576 C9.30926747 -0.02090012 10.76348373 -0.0253383 12.21769863 -0.03016531 C16.22390955 -0.04214007 20.23010842 -0.04778138 24.23633373 -0.05234647 C28.55353231 -0.05829933 32.87071646 -0.06991014 37.18790531 -0.08063698 C47.62061465 -0.10517098 58.05332877 -0.11979101 68.48605809 -0.13269705 C71.43298115 -0.1364087 74.37990374 -0.14038197 77.32682633 -0.14444971 C95.6272397 -0.1696895 113.92765381 -0.19174247 132.22808075 -0.20417786 C136.4680815 -0.20710756 140.70808223 -0.21006922 144.94808292 -0.21308327 C146.00191632 -0.21382932 147.05574972 -0.21457537 148.14151747 -0.21534403 C165.20490083 -0.22799186 182.26817986 -0.2612063 199.33151447 -0.3028851 C216.85138035 -0.34532796 234.37119285 -0.36887574 251.89111 -0.37409842 C261.72727969 -0.37751022 271.56328643 -0.38923786 281.39940548 -0.42220116 C289.77847342 -0.45023534 298.15734502 -0.4611863 306.53645622 -0.4500057 C310.80940789 -0.44482735 315.08194861 -0.44765178 319.35484028 -0.47247124 C323.27292429 -0.49503899 327.19030397 -0.49416627 331.10840095 -0.47526737 C332.5196961 -0.47247779 333.93103978 -0.47800759 335.34225719 -0.4930803 C348.29829356 -0.62290697 358.47559194 2.45883017 367.93660831 11.52373314 C374.23022037 19.00228814 377.29980894 27.26056662 377.23348331 36.90263939 C377.2320712 37.70190125 377.23065908 38.50116312 377.22920418 39.32464504 C377.22347238 42.01213433 377.2107742 44.69954847 377.19832706 47.38701439 C377.19317524 49.31046983 377.1885857 51.23392684 377.18451786 53.15738487 C377.175444 57.30545862 377.16413855 61.45351864 377.15166569 65.60158348 C377.13373013 72.16622211 377.13174311 78.73080232 377.13411808 85.29546165 C377.13448724 86.4032916 377.1348564 87.51112154 377.13523674 88.65252209 C377.13655464 92.06532171 377.13811214 95.47812115 377.13973331 98.89092064 C377.14644196 113.0289338 377.14165257 127.16657902 377.08455753 141.30449486 C377.04304426 151.6113377 377.03336605 161.91766186 377.06066799 172.22455978 C377.07389775 177.67746542 377.07110366 183.12929621 377.02962589 188.58208275 C376.99089671 193.71750446 376.99446915 198.85119574 377.02974987 203.98662567 C377.03527188 205.86549444 377.02557364 207.74448295 376.99906063 209.62317276 C376.78665857 222.00070545 376.78665857 222.00070545 382.53524113 232.57353783 C384.05969431 234.10379168 385.59228707 235.62601516 387.13582706 237.13701439 C388.95738404 239.81195586 390.48148592 242.56726951 391.94832706 245.44951439 C392.32086613 246.16663597 392.69340519 246.88375755 393.07723331 247.62261009 C402.98541078 267.35828663 404.49736623 292.16231582 397.81258488 313.19219017 C395.90700984 318.66831236 393.57353152 323.87378885 391.13582706 329.13701439 C397.73582706 335.73701439 404.33582706 342.33701439 411.13582706 349.13701439 C412.45582706 348.47701439 413.77582706 347.81701439 415.13582706 347.13701439 C419.93147247 347.35788965 422.22889049 348.6017513 425.59310246 351.94731712 C426.41738239 352.75583626 427.24166233 353.56435539 428.09092045 354.39737511 C428.96296619 355.27954201 429.83501194 356.16170891 430.73348331 357.07060814 C431.64536915 357.97771034 432.55725498 358.88481255 433.49677372 359.81940269 C435.42546866 361.74073682 437.34486301 363.67079056 439.25814152 365.60747337 C441.69108723 368.06874561 444.14557798 370.50709188 446.60768318 372.93915272 C448.97442045 375.28327195 451.32170403 377.64649191 453.67098331 380.00810814 C454.54505329 380.87205696 455.41912327 381.73600578 456.31968021 382.62613487 C463.78763046 390.23742565 469.2011488 398.28464278 469.44832706 409.19951439 C469.34406654 418.58296177 466.56790477 425.53125709 460.13582706 432.37920189 C452.63474132 438.97195303 445.26257733 440.53333674 435.51473331 440.40263939 C418.45999974 439.06192045 405.77597304 420.90184041 394.51082706 409.57451439 C392.91861351 407.97727552 391.32616746 406.38026839 389.73348331 404.78349876 C385.86491301 400.90400523 381.99922377 397.02165973 378.13582706 393.13701439 C378.13368954 394.71316521 378.13368954 394.71316521 378.13150883 396.32115746 C378.11477641 406.2657424 378.07181302 416.20992142 378.0037365 426.15429115 C377.96957223 431.2657784 377.944373 436.3769701 377.94027042 441.48857689 C377.93596475 446.42962081 377.90731512 451.36999923 377.86239529 456.31083488 C377.84949246 458.18765181 377.84508676 460.06454867 377.84967327 461.94140434 C377.87696836 476.51398319 376.27675507 487.95011726 365.74910831 498.93779564 C359.05561485 504.57073558 351.02006267 508.25493263 342.27165413 508.27402878 C341.03995934 508.27910332 339.80826454 508.28417786 338.53924567 508.28940618 C337.16503183 508.29000787 335.79081795 508.29050695 334.41660404 508.29091454 C332.96238666 508.2949289 331.5081704 508.29936708 330.0539555 508.30419409 C326.04774458 508.31616885 322.04154571 508.32181016 318.0353204 508.32637525 C313.71812182 508.3323281 309.40093767 508.34393892 305.08374882 508.35466576 C294.65103948 508.37919976 284.21832536 508.39381979 273.78559604 508.40672582 C270.83867298 508.41043748 267.89175039 508.41441075 264.9448278 508.41847849 C246.64441443 508.44371828 228.34400032 508.46577124 210.04357338 508.47820663 C205.80357263 508.48113634 201.5635719 508.484098 197.32357121 508.48711205 C195.74282111 508.48823112 195.74282111 508.48823112 194.13013666 508.4893728 C177.0667533 508.50202063 160.00347427 508.53523508 142.94013966 508.57691388 C125.42027378 508.61935674 107.90046127 508.64290452 90.38054413 508.6481272 C80.54437444 508.65153899 70.7083677 508.66326664 60.87224865 508.69622993 C52.49318071 508.72426412 44.11430911 508.73521508 35.73519791 508.72403447 C31.46224624 508.71885613 27.18970552 508.72168056 22.91681385 508.74650002 C18.99872984 508.76906777 15.08135016 508.76819505 11.16325318 508.74929614 C9.75195803 508.74650657 8.34061435 508.75203637 6.92939693 508.76710908 C-6.02663943 508.89693574 -16.20393781 505.81519861 -25.66495419 496.75029564 C-31.81605903 489.4410787 -35.01711149 481.22142828 -35.00118732 471.77357388 C-35.00383915 471.01393934 -35.00649098 470.25430481 -35.00922316 469.47165105 C-35.01693215 466.90550844 -35.01747595 464.33941355 -35.01807308 461.77326012 C-35.02208667 459.92306216 -35.02652472 458.07286508 -35.03135264 456.22266906 C-35.04333588 451.1219069 -35.04897066 446.0211542 -35.05353379 440.92038071 C-35.05948337 435.42525874 -35.07109494 429.93014812 -35.0818243 424.4350338 C-35.10636483 411.15468934 -35.12097878 397.87434111 -35.13388437 384.59398094 C-35.13759539 380.84362929 -35.1415687 377.09327802 -35.14563704 373.34292674 C-35.17087487 350.0600295 -35.1929469 326.77713148 -35.20536518 303.49422359 C-35.20828648 298.09919355 -35.21125401 292.70416353 -35.21427059 287.30913353 C-35.2146415 286.63887209 -35.21501241 285.96861064 -35.21539456 285.27803824 C-35.22754478 263.55611077 -35.25847941 241.83426441 -35.30019212 220.11237503 C-35.34421686 197.14455262 -35.36990223 174.17676378 -35.37528574 151.20889515 C-35.37869999 138.68995574 -35.39045672 126.17114426 -35.42338848 113.65224457 C-35.45139125 102.98948473 -35.4623873 92.32687903 -35.45119302 81.66408528 C-35.44600683 76.22461386 -35.44889093 70.78546524 -35.47365856 65.34604073 C-35.4961622 60.36216203 -35.49540222 55.37883779 -35.47645469 50.39494931 C-35.47365626 48.59604107 -35.47924445 46.79709514 -35.49426763 44.99824745 C-35.60457803 30.92448383 -33.61536332 19.91714334 -23.47745419 9.33623314 C-16.78396072 3.7032932 -8.74840854 0.01909615 0 0 Z M378.13582706 381.13701439 C379.13582706 383.13701439 379.13582706 383.13701439 379.13582706 383.13701439 Z " fill="#010101" transform="translate(36.86417293548584,1.862985610961914)"/>
<path d="M0 0 C1.42538696 -0.00417543 2.85077059 -0.0096541 4.27614808 -0.01631981 C8.1841069 -0.03076623 12.09185467 -0.02653222 15.999825 -0.019153 C20.21810412 -0.01442152 24.43633758 -0.02693113 28.65460205 -0.03717041 C36.91580329 -0.05436529 45.17692849 -0.05519683 53.43814299 -0.04995751 C60.15461385 -0.04591515 66.87106225 -0.04736015 73.58753204 -0.05270576 C74.54368265 -0.05345419 75.49983326 -0.05420261 76.48495813 -0.05497371 C78.42744635 -0.0565052 80.36993457 -0.05804355 82.31242278 -0.05958868 C100.52916063 -0.07331671 118.74585553 -0.06787434 136.96259239 -0.05640347 C153.61899759 -0.04647511 170.27529164 -0.05940434 186.9316797 -0.08333766 C204.04148374 -0.10773685 221.15123604 -0.11733424 238.26105714 -0.11068493 C247.86403017 -0.10719398 257.46691776 -0.10941639 267.06987762 -0.12693596 C275.24648979 -0.14166836 283.42295638 -0.14228003 291.59956571 -0.12486505 C295.7690669 -0.1163604 299.93830817 -0.11419217 304.10779572 -0.1295166 C307.93000202 -0.14339029 311.7517264 -0.13856655 315.57390502 -0.11927737 C317.60047188 -0.11375713 319.62706343 -0.12776668 321.65358329 -0.14263147 C331.07654493 -0.06700447 339.77400783 1.11420813 347.03424072 7.57518005 C353.14678743 14.45964911 354.69252733 21.69505477 354.55084229 30.68089294 C354.55142639 31.66731781 354.5520105 32.65374268 354.5526123 33.6700592 C354.54984616 36.90052117 354.51882347 40.13003737 354.48736572 43.3603363 C354.47989812 45.61191301 354.47420764 47.86349624 354.47021484 50.11508179 C354.45499956 56.0187143 354.41575291 61.92194829 354.37139893 67.82542419 C354.33035765 73.85849111 354.31218493 79.89162291 354.29205322 85.92478943 C354.24925486 97.74592731 354.18105323 109.56677044 354.09674072 121.38768005 C348.59449269 115.9071494 348.59449269 115.9071494 346.29986572 113.22361755 C345.82089844 112.66472839 345.34193115 112.10583923 344.84844971 111.53001404 C344.35288574 110.94679382 343.85732178 110.36357361 343.34674072 109.76268005 C342.82088379 109.14658875 342.29502686 108.53049744 341.75323486 107.89573669 C337.89979793 103.36734775 334.12234385 98.78087306 330.37408447 94.1650238 C327.81470019 91.04371638 325.21080281 87.96317975 322.59674072 84.88768005 C318.4756628 80.03813954 314.4268259 75.13607041 310.40924072 70.20018005 C307.83527578 67.06968214 305.22099736 63.97600144 302.59674072 60.88768005 C289.37655106 45.32528537 289.37655106 45.32528537 286.28033447 40.63768005 C284.17253188 38.14110066 284.17253188 38.14110066 280.74517822 37.15330505 C276.82559031 37.40509871 276.43943541 37.54068292 273.88580322 40.18455505 C272.80750337 41.48301199 271.75388613 42.80224123 270.72174072 44.13768005 C270.15793701 44.82781189 269.5941333 45.51794373 269.01324463 46.22898865 C267.35404985 48.26645525 265.72477565 50.32529614 264.09674072 52.38768005 C262.55773998 54.26486886 261.01642589 56.14016601 259.47174072 58.01268005 C258.7679126 58.88150818 258.06408447 59.7503363 257.33892822 60.64549255 C254.79420098 63.7576851 252.20043049 66.82483244 249.59674072 69.88768005 C240.94306389 79.83123038 240.94306389 79.83123038 233.09674072 90.38768005 C232.43674072 90.38768005 231.77674072 90.38768005 231.09674072 90.38768005 C229.72182774 88.87980845 228.4230961 87.30228245 227.15924072 85.70018005 C226.36131104 84.70373474 225.56338135 83.70728943 224.74127197 82.6806488 C224.31410889 82.14617126 223.8869458 81.61169373 223.44683838 81.0610199 C221.12044795 78.17764196 218.73615766 75.34387218 216.34674072 72.51268005 C215.8995166 71.97812195 215.45229248 71.44356384 214.99151611 70.89280701 C213.71106923 69.37588226 212.40421586 67.88137135 211.09674072 66.38768005 C210.26658447 65.43635193 209.43642822 64.4850238 208.58111572 63.50486755 C206.29594518 61.27260499 206.29594518 61.27260499 203.67486572 60.6493988 C199.50858086 61.84247129 197.50481459 64.90814255 194.84674072 68.20018005 C194.27391357 68.88580017 193.70108643 69.57142029 193.11090088 70.27781677 C191.42465632 72.30272925 189.75852892 74.34268 188.09674072 76.38768005 C186.87857666 77.86687927 186.87857666 77.86687927 185.63580322 79.3759613 C184.19791874 81.12789637 182.76557477 82.88439407 181.33892822 84.64549255 C178.7942039 87.75768154 176.20055848 90.82494502 173.59674072 93.88768005 C169.47915167 98.73298937 165.43267944 103.629838 161.42095947 108.5634613 C158.3539617 112.29025019 155.22661344 115.9646827 152.07720947 119.62205505 C151.6466626 120.12607849 151.21611572 120.63010193 150.77252197 121.1493988 C150.13533202 121.86987019 150.13533202 121.86987019 149.48526955 122.60489655 C148.02911279 124.34551902 148.02911279 124.34551902 147.11487389 126.42198944 C145.70342571 129.05211805 144.48659194 130.57067906 142.09674072 132.38768005 C136.50010736 133.59764048 130.96099768 133.39934852 125.25933838 133.29588318 C123.52448634 133.29362557 121.78962665 133.29489525 120.05477905 133.29942322 C115.35213337 133.30171704 110.65112273 133.25471216 105.94885683 133.19883156 C101.03220205 133.1487932 96.11550904 133.14411957 91.19863892 133.1346283 C81.8911613 133.10977127 72.58443614 133.04413321 63.27728975 132.96383238 C52.68011894 132.87438773 42.08291203 132.83042087 31.48545766 132.7902689 C9.68879883 132.70666636 -12.10718281 132.56596858 -33.90325928 132.38768005 C-34.02035113 117.95750204 -34.10804034 103.5273983 -34.16232014 89.09684181 C-34.18804075 82.39559946 -34.22370257 75.69469678 -34.28045654 68.99363708 C-34.3349167 62.52267196 -34.36470982 56.05201393 -34.37764549 49.58083725 C-34.38686009 47.11615035 -34.40485405 44.65147961 -34.43190956 42.18692398 C-34.46838424 38.72564566 -34.47319668 35.26562458 -34.47088623 31.80418396 C-34.48886261 30.792854 -34.50683899 29.78152405 -34.52536011 28.73954773 C-34.46812342 20.77748436 -32.39966999 14.16995684 -26.91328907 8.23501015 C-18.598385 0.36208896 -11.07210801 -0.05047416 0 0 Z " fill="#499EFE" transform="translate(47.90325927734375,13.612319946289063)"/>
<path d="M0 0 C128.04 0 256.08 0 388 0 C388 19.8 388 39.6 388 60 C380.575 56.04 380.575 56.04 373 52 C350.76390949 43.18223997 327.0973581 41.45894358 304.70556641 50.97509766 C295.09027857 55.380131 286.79160243 60.83546146 279 68 C278.3709375 68.53753906 277.741875 69.07507813 277.09375 69.62890625 C263.98689044 81.51444481 254.86047071 101.43539192 253.42578125 118.8359375 C253.34368408 119.80837402 253.26158691 120.78081055 253.17700195 121.78271484 C253.11859131 122.51441895 253.06018066 123.24612305 253 124 C217.8722607 127.02846478 217.8722607 127.02846478 210.02587891 122.15136719 C205.84294091 117.54582308 202 110.4382204 202 104 C203.03060547 103.94392578 203.03060547 103.94392578 204.08203125 103.88671875 C204.98308594 103.82097656 205.88414062 103.75523437 206.8125 103.6875 C207.70582031 103.62949219 208.59914062 103.57148438 209.51953125 103.51171875 C212.39055177 102.91942948 213.38161485 102.43564277 215 100 C215.41676202 95.89365555 214.54683128 93.63147755 212.4296875 90.140625 C211.86950928 89.20154297 211.30933105 88.26246094 210.73217773 87.29492188 C210.11930908 86.29009766 209.50644043 85.28527344 208.875 84.25 C207.59033182 82.10022146 206.30784921 79.94913564 205.02734375 77.796875 C204.36331543 76.68376953 203.69928711 75.57066406 203.01513672 74.42382812 C199.12298685 67.81085141 195.42399088 61.08925972 191.70849609 54.37597656 C190.15283387 51.57587664 188.58225592 48.7851451 187 46 C186.5455249 45.18917969 186.0910498 44.37835938 185.62280273 43.54296875 C185.19813721 42.81722656 184.77347168 42.09148437 184.3359375 41.34375 C183.97419434 40.71662109 183.61245117 40.08949219 183.23974609 39.44335938 C181.87871455 37.58213291 181.87871455 37.58213291 178.1875 37 C177.135625 37 176.08375 37 175 37 C170.2083287 44.50080853 165.83634274 52.22848671 161.45437622 59.97299194 C157.73844863 66.53614564 153.99657448 73.06572153 150.02734375 79.48046875 C149.11662109 80.96426025 149.11662109 80.96426025 148.1875 82.47802734 C147.04847061 84.32291172 145.89422005 86.15851311 144.72265625 87.98291016 C141.47367172 93.13740113 141.47367172 93.13740113 141.09765625 99.04296875 C141.70443969 101.86108599 141.70443969 101.86108599 143 103 C144.84891946 103.23363881 146.70488031 103.41303635 148.5625 103.5625 C150.08037109 103.68818359 150.08037109 103.68818359 151.62890625 103.81640625 C152.41136719 103.87699219 153.19382813 103.93757813 154 104 C152.73079864 106.3967104 151.45969813 108.79238093 150.1875 111.1875 C149.83107422 111.86103516 149.47464844 112.53457031 149.10742188 113.22851562 C148.75615234 113.88916016 148.40488281 114.54980469 148.04296875 115.23046875 C147.72352295 115.83270264 147.40407715 116.43493652 147.07495117 117.05541992 C146.72021729 117.69713135 146.3654834 118.33884277 146 119 C145.68095703 119.89267578 145.36191406 120.78535156 145.03320312 121.70507812 C143 124 143 124 140.9153595 124.4322052 C138.07242215 124.58198626 135.27181726 124.56081453 132.42578125 124.48828125 C131.38681198 124.48120651 130.34784271 124.47413177 129.27738953 124.46684265 C125.95503091 124.43882688 122.63435022 124.37607264 119.3125 124.3125 C117.06187327 124.28742653 114.81122017 124.26461171 112.56054688 124.24414062 C107.03919631 124.19322444 101.52147854 124.09538063 96 124 C96 117.07 96 110.14 96 103 C97.794375 102.484375 99.58875 101.96875 101.4375 101.4375 C112.77296481 97.61011365 119.63648647 90.40092818 125.09765625 79.88671875 C128.6589049 71.09126279 128.3378014 60.48208092 125.0625 51.6875 C119.77753522 40.64117925 111.69073866 33.73738156 100.3125 29.6875 C89.52907576 27.50080165 79.52748224 28.37852156 70 34 C61.14150748 40.14824552 56.37958787 47.86123638 53 58 C52.05751298 70.60769521 53.61854828 81.00884849 61.95703125 90.9296875 C68.76583393 97.82962138 74.51283146 100.15384944 84 103 C84 109.93 84 116.86 84 124 C56.28 124 28.56 124 0 124 C0 83.08 0 42.16 0 0 Z " fill="#9FEFFE" transform="translate(14,158)"/>
<path d="M0 0 C83.49 0 166.98 0 253 0 C253.99 7.425 253.99 7.425 255 15 C260.90534283 36.53381383 273.91903399 55.18052574 293 67 C313.24626062 78.15761078 336.22338816 82.75465754 359 77 C365.23144869 75.01272949 371.50937362 72.77440174 377.34375 69.80859375 C379 69 379 69 380.9375 69.0625 C383 70 383 70 388 75 C388 91.17 388 107.34 388 124 C333.88 124 279.76 124 224 124 C223.67 103.87 223.34 83.74 223 63 C219.37 58.71 215.74 54.42 212 50 C210.14851469 47.7020075 208.31035229 45.39303469 206.5 43.0625 C206.05696533 42.49893799 205.61393066 41.93537598 205.1574707 41.35473633 C202.7476046 38.2835877 200.38861991 35.18283558 198.07421875 32.0390625 C197.59082031 31.39445068 197.10742188 30.74983887 196.609375 30.08569336 C195.68528086 28.85203403 194.77426449 27.60843062 193.87890625 26.35375977 C191.7872086 23.58474668 190.23455964 22.09339794 186.98828125 20.80078125 C183.87062316 20.72559522 183.87062316 20.72559522 181.5390625 22.94140625 C180.70117188 23.95074219 179.86328125 24.96007812 179 26 C178.24541504 26.88341064 178.24541504 26.88341064 177.47558594 27.78466797 C175.750131 29.8158542 174.06000888 31.87265923 172.375 33.9375 C171.76470947 34.68169189 171.15441895 35.42588379 170.52563477 36.19262695 C166.16377174 41.52884593 161.86887117 46.91489039 157.64013672 52.35717773 C155.61238438 54.96525919 153.66828313 57.31189879 151.25390625 59.58203125 C147.41755467 64.01136224 148.09065599 70.44526016 148 76 C147.13197754 76.01981934 146.26395508 76.03963867 145.36962891 76.06005859 C142.15273733 76.13809872 138.93622955 76.22478881 135.71972656 76.31738281 C134.32691428 76.35569327 132.93400235 76.39054259 131.54101562 76.421875 C129.54013692 76.46747907 127.53957854 76.52651623 125.5390625 76.5859375 C124.33459473 76.6173584 123.13012695 76.6487793 121.88916016 76.68115234 C118.8739982 76.70915226 118.8739982 76.70915226 117 79 C116.53513282 82.12196336 116.53513282 82.12196336 116.375 85.625 C116.189375 88.780625 116.189375 88.780625 116 92 C109.4 92 102.8 92 96 92 C95.83723958 88.6796875 95.67447917 85.359375 95.51171875 82.0390625 C95.34285156 81.03617187 95.17398438 80.03328125 95 79 C91.18881655 76.45921103 88.09916827 76.71167703 83.68359375 76.734375 C82.87132828 76.73246155 82.05906281 76.7305481 81.22218323 76.72857666 C79.50659881 76.72721653 77.79100405 76.73090096 76.07543945 76.73925781 C73.44393931 76.74997378 70.81311971 76.7393498 68.18164062 76.7265625 C66.51562349 76.72788385 64.84960678 76.73044575 63.18359375 76.734375 C61.9991996 76.72830231 61.9991996 76.72830231 60.7908783 76.72210693 C56.42859345 76.59140053 56.42859345 76.59140053 53 79 C52.53513282 82.12196336 52.53513282 82.12196336 52.375 85.625 C52.189375 88.780625 52.189375 88.780625 52 92 C45.4 92 38.8 92 32 92 C31.83723958 88.6796875 31.67447917 85.359375 31.51171875 82.0390625 C31.34285156 81.03617187 31.17398438 80.03328125 31 79 C22.36198028 73.24132019 10.37499307 76.37053547 0 76 C0 50.92 0 25.84 0 0 Z " fill="#FEF46D" transform="translate(14,294)"/>
<path d="M0 0 C128.04 0 256.08 0 388 0 C388 52.83606557 388 52.83606557 379.1875 61.9375 C371.4436829 68.6576142 362.63831233 68.43554017 352.93179321 68.39440918 C351.50070511 68.39930261 350.06962096 68.4054945 348.63854349 68.41286707 C344.71951853 68.4292324 340.80069519 68.42695566 336.88164806 68.4214921 C332.64976739 68.4188177 328.41793996 68.43336134 324.18608093 68.44558716 C315.90062589 68.46662571 307.61524084 68.47118293 299.32976224 68.46939927 C292.59423649 68.46809091 285.85873255 68.47189958 279.12321091 68.47932434 C277.18199392 68.48142357 275.24077694 68.48352117 273.29955995 68.48561716 C271.85020099 68.48718245 271.85020099 68.48718245 270.37156205 68.48877937 C252.10382569 68.50767522 233.83612951 68.50663348 215.56838743 68.49981004 C198.862851 68.49423446 182.15746791 68.51506184 165.45196731 68.54817051 C148.29128423 68.58191688 131.13067459 68.5970747 113.96995771 68.59245348 C104.338503 68.59020983 94.70719004 68.59543681 85.0757637 68.62034607 C76.87643587 68.64137135 68.67732753 68.64493896 60.47799064 68.62604648 C56.29639895 68.61689637 52.11521637 68.61572313 47.93365669 68.63640213 C44.10158646 68.65514291 40.27025953 68.65057474 36.43821733 68.62785631 C34.4039894 68.62170727 32.36973229 68.64003769 30.33558714 68.65939283 C21.50085644 68.57416304 14.51937003 67.1376625 7.85868037 61.03953695 C-7.50452785 45.19857251 0 19.47412434 0 0 Z " fill="#1DDFD6" transform="translate(14,430)"/>
<path d="M0 0 C19.70091115 -0.84947815 38.60328494 5.72450475 53.2265625 19.04296875 C67.79416359 32.95238192 77.16015864 50.85277236 77.71069336 71.16259766 C77.83861915 93.37445176 69.85015194 112.3742552 54.2890625 128.23046875 C53.68578125 128.85824219 53.0825 129.48601562 52.4609375 130.1328125 C39.98867924 142.08991227 21.34015872 148.68882956 4.2265625 148.60546875 C1.5732565 148.53483364 -1.06033195 148.3926366 -3.7109375 148.23046875 C-5.01804687 148.18019531 -5.01804687 148.18019531 -6.3515625 148.12890625 C-25.43378691 146.82472544 -41.34567225 135.1656455 -53.984375 121.83203125 C-67.18708851 106.60591338 -71.77087262 86.89334687 -70.7109375 67.23046875 C-70.67871094 66.37839844 -70.64648438 65.52632813 -70.61328125 64.6484375 C-69.55635024 49.60749623 -61.54551409 35.25937723 -51.7109375 24.23046875 C-51.08316406 23.52019531 -50.45539063 22.80992187 -49.80859375 22.078125 C-36.66829157 8.07792575 -18.77895727 1.16627208 0 0 Z " fill="#FAFAFA" transform="translate(348.7109375,213.76953125)"/>
<path d="M0 0 C3.71286649 1.71322199 5.52431786 3.57216654 8.0625 6.8125 C8.84753906 7.79863281 9.63257813 8.78476563 10.44140625 9.80078125 C10.85664551 10.32365723 11.27188477 10.8465332 11.69970703 11.38525391 C13.91377109 14.13475066 16.20933768 16.81429939 18.5 19.5 C22.62198058 24.34876021 26.66993346 29.25163253 30.6875 34.1875 C33.26146392 37.31799666 35.87569086 40.41172461 38.5 43.5 C42.61509895 48.34263026 46.66016664 53.23584471 50.66796875 58.16796875 C52.38265428 60.25029205 54.11101857 62.31305827 55.86328125 64.36328125 C56.353125 64.93691406 56.84296875 65.51054687 57.34765625 66.1015625 C58.2940015 67.20689376 59.2430378 68.30992927 60.1953125 69.41015625 C63.08356386 72.7840428 65.56459473 76.290978 68 80 C57.5949319 80.25549322 47.19061615 80.45062863 36.78304386 80.56993389 C31.94952754 80.62721337 27.11816519 80.70481895 22.28588867 80.82983398 C17.6172586 80.94985175 12.95069195 81.01522419 8.28063774 81.04364967 C6.50424147 81.06388939 4.72795139 81.10341868 2.95244026 81.16303062 C-10.9523065 81.61107072 -10.9523065 81.61107072 -16.04307556 77.60578918 C-18.32255575 74.83935877 -20.17449944 72.07836135 -22 69 C-22.99689428 67.76476001 -24.01482659 66.5453575 -25.07421875 65.36328125 C-25.51145264 64.85240967 -25.94868652 64.34153809 -26.39916992 63.81518555 C-26.82431885 63.31929932 -27.24946777 62.82341309 -27.6875 62.3125 C-31.64615178 57.66833742 -35.41606533 52.94001806 -39 48 C-36.09196817 43.43418281 -32.87748539 39.37936333 -29.3125 35.3125 C-28.23213697 34.0659147 -27.15271708 32.81851142 -26.07421875 31.5703125 C-25.54747559 30.9609082 -25.02073242 30.35150391 -24.47802734 29.72363281 C-21.76407026 26.55869442 -19.14023845 23.32178615 -16.51171875 20.0859375 C-13.17050372 15.98086771 -9.80379484 11.89701084 -6.4375 7.8125 C-5.48834717 6.66044067 -5.48834717 6.66044067 -4.52001953 5.48510742 C-3.01350979 3.65660351 -1.5068364 1.82823472 0 0 Z " fill="#FDBD2B" transform="translate(327,66)"/>
<path d="M0 0 C6.6 0 13.2 0 20 0 C20.1953125 3.02734375 20.390625 6.0546875 20.5859375 9.08203125 C20.81195733 12.18626186 20.81195733 12.18626186 23 15 C25.8021341 15.30418469 28.37946292 15.42000375 31.18359375 15.3984375 C32.40055687 15.40274277 32.40055687 15.40274277 33.6421051 15.40713501 C35.35947364 15.40917813 37.07686532 15.40363092 38.79418945 15.39111328 C41.42386992 15.37508309 44.0520086 15.39094208 46.68164062 15.41015625 C48.34896173 15.40817345 50.01628187 15.40432902 51.68359375 15.3984375 C52.47116562 15.40451019 53.25873749 15.41058289 54.07017517 15.4168396 C58.26724699 15.39142735 58.26724699 15.39142735 61.98779297 13.6574707 C63.54107592 11.11399798 63.52907021 8.75929405 63.6875 5.8125 C63.790625 3.894375 63.89375 1.97625 64 0 C70.6 0 77.2 0 84 0 C84.1953125 3.02734375 84.390625 6.0546875 84.5859375 9.08203125 C84.81195733 12.18626186 84.81195733 12.18626186 87 15 C89.8021341 15.30418469 92.37946292 15.42000375 95.18359375 15.3984375 C96.40055687 15.40274277 96.40055687 15.40274277 97.6421051 15.40713501 C99.35947364 15.40917813 101.07686532 15.40363092 102.79418945 15.39111328 C105.42386992 15.37508309 108.0520086 15.39094208 110.68164062 15.41015625 C112.34896173 15.40817345 114.01628187 15.40432902 115.68359375 15.3984375 C116.47116562 15.40451019 117.25873749 15.41058289 118.07017517 15.4168396 C122.26724699 15.39142735 122.26724699 15.39142735 125.98779297 13.6574707 C127.54107592 11.11399798 127.52907021 8.75929405 127.6875 5.8125 C127.790625 3.894375 127.89375 1.97625 128 0 C134.6 0 141.2 0 148 0 C148 11.88 148 23.76 148 36 C99.16 36 50.32 36 0 36 C0 24.12 0 12.24 0 0 Z " fill="#F99436" transform="translate(14,382)"/>
<path d="M0 0 C2.91734408 0.0397133 5.83013775 0.02065399 8.74755859 -0.00512695 C27.39530436 -0.00003856 27.39530436 -0.00003856 34.42333984 5.72729492 C36.67724609 8.11401367 36.67724609 8.11401367 37.98583984 10.41479492 C38.44087891 11.18178711 38.89591797 11.9487793 39.36474609 12.73901367 C42.01518952 17.7171528 41.96845972 22.12467392 41.42333984 27.72729492 C39.33937798 34.47751923 35.05734562 39.44804383 28.86621094 42.83032227 C24.10565483 45.14526412 19.81538631 45.3398374 14.58740234 45.32885742 C13.20831192 45.3417128 13.20831192 45.3417128 11.80136108 45.35482788 C9.86679358 45.36625391 7.9321402 45.36735982 5.99755859 45.35864258 C3.0624501 45.35232529 0.13138796 45.39928659 -2.80322266 45.44995117 C-21.6175858 45.57811045 -21.6175858 45.57811045 -28.57666016 38.72729492 C-33.28764095 32.71934207 -35.0824663 27.35929001 -34.97119141 19.71166992 C-34.16079335 13.58153013 -31.30885019 9.29920588 -26.87451172 5.125 C-18.86368118 -0.92796633 -9.57849968 -0.14591049 0 0 Z " fill="#000303" transform="translate(204.57666015625,441.272705078125)"/>
<path d="M0 0 C17.16 0 34.32 0 52 0 C52 17.16 52 34.32 52 52 C34.84 52 17.68 52 0 52 C0 34.84 0 17.68 0 0 Z " fill="#F98026" transform="translate(174,366)"/>
<path d="M0 0 C3.76381862 1.50721148 5.58463482 3.64916931 8.0625 6.8125 C8.84753906 7.79863281 9.63257813 8.78476563 10.44140625 9.80078125 C10.85664551 10.32365723 11.27188477 10.8465332 11.69970703 11.38525391 C13.91377109 14.13475066 16.20933768 16.81429939 18.5 19.5 C22.61606074 24.3417966 26.66018794 29.23587093 30.66796875 34.16796875 C32.38265428 36.25029205 34.11101857 38.31305827 35.86328125 40.36328125 C36.353125 40.93691406 36.84296875 41.51054687 37.34765625 42.1015625 C38.2940015 43.20689376 39.2430378 44.30992927 40.1953125 45.41015625 C43.12537517 48.83288433 45.46967093 52.20450639 48 56 C16.98 56 -14.04 56 -46 56 C-42.20594594 50.94126126 -38.46213636 46.10428803 -34.3125 41.375 C-30.16847218 36.60375745 -26.17888344 31.74864233 -22.3125 26.75 C-18.45415014 21.76629809 -14.41903599 17.03905175 -10.1484375 12.3984375 C-6.58051016 8.41533316 -3.2900334 4.21339427 0 0 Z " fill="#FDDB27" transform="translate(251,90)"/>
<path d="M0 0 C3.05314173 1.36518681 5.1643696 2.91199664 7.52758789 5.26879883 C8.19830826 5.93321487 8.86902863 6.59763092 9.56007385 7.28218079 C10.27372604 7.99988144 10.98737823 8.71758209 11.72265625 9.45703125 C12.46454697 10.19700851 13.20643768 10.93698578 13.97080994 11.6993866 C15.53744437 13.26466104 17.10155993 14.83246002 18.66333008 16.40258789 C21.05006007 18.80000437 23.44723528 21.1865988 25.84570312 23.57226562 C27.36782903 25.09571346 28.88933425 26.61978175 30.41015625 28.14453125 C31.12583267 28.85615921 31.84150909 29.56778717 32.57887268 30.30097961 C37.67102339 35.44121912 41.42767471 39.30952933 41.4375 46.875 C41.28542893 52.5016295 40.42963386 55.55074527 37 60 C32.61483619 64.06429817 29.21856695 65.18794788 23.3125 65.4375 C22.31863281 65.49808594 21.32476562 65.55867188 20.30078125 65.62109375 C12.45502527 64.14479174 6.41153681 56.68893208 1 51.1953125 C0.2788501 50.4713327 -0.4422998 49.74735291 -1.18530273 49.00143433 C-3.4616559 46.7139886 -5.73091099 44.41964942 -8 42.125 C-9.55291932 40.56203676 -11.10630047 38.99953224 -12.66015625 37.4375 C-16.44545683 33.6302842 -20.22497281 29.81740112 -24 26 C-22.2241334 22.18750121 -19.99634812 19.76650504 -16.9921875 16.796875 C-16.50670441 16.3142218 -16.02122131 15.8315686 -15.52102661 15.33428955 C-13.97700134 13.80141438 -12.42615176 12.27565996 -10.875 10.75 C-9.82375991 9.70879639 -8.77297343 8.66713459 -7.72265625 7.625 C-5.15366996 5.07800536 -2.57851839 2.53734823 0 0 Z " fill="#454F63" transform="translate(453,365)"/>
<path d="M0 0 C6.80926454 3.92752801 11.24339972 9.73078254 13.2890625 17.3203125 C14.35918032 24.85526579 13.31698762 31.80455127 9.2890625 38.3203125 C4.70341492 43.6053156 0.23773613 47.13755954 -6.7109375 48.3203125 C-7.3709375 46.6703125 -8.0309375 45.0203125 -8.7109375 43.3203125 C-12.11414684 42.64357803 -12.11414684 42.64357803 -15.7109375 42.3203125 C-17.849486 44.458861 -18.13748813 45.45306564 -18.7109375 48.3203125 C-25.57370474 47.51292812 -30.1869447 43.42943219 -34.38671875 38.2265625 C-38.80247185 31.86996217 -39.81336785 24.93132201 -38.7109375 17.3203125 C-35.91203264 8.431198 -30.2840275 2.99513873 -22.3984375 -1.6171875 C-14.57973625 -3.87003362 -7.41555448 -3.36642632 0 0 Z " fill="#22D77B" transform="translate(116.7109375,200.6796875)"/>
<path d="M0 0 C0.66 0 1.32 0 2 0 C7.33333333 9.33333333 12.66666667 18.66666667 18 28 C18.37354614 28.63050262 18.74709229 29.26100525 19.13195801 29.91061401 C22 34.78853812 22 34.78853812 22 37 C21.30132812 37.04898438 20.60265625 37.09796875 19.8828125 37.1484375 C18.97273438 37.22320312 18.06265625 37.29796875 17.125 37.375 C16.22007812 37.44460937 15.31515625 37.51421875 14.3828125 37.5859375 C11.82058097 37.79568132 11.82058097 37.79568132 10 40 C9.53032467 44.55870684 10.28533392 47.22043003 12.625 51.109375 C13.16640625 52.02847656 13.7078125 52.94757813 14.265625 53.89453125 C14.83796875 54.83683594 15.4103125 55.77914062 16 56.75 C17.12853506 58.63851701 18.25371729 60.529043 19.375 62.421875 C19.87773437 63.25299805 20.38046875 64.08412109 20.8984375 64.94042969 C22 67 22 67 22 69 C8.14 69 -5.72 69 -20 69 C-17.75808681 62.27426044 -17.75808681 62.27426044 -15.6171875 58.90625 C-15.17246094 58.18566406 -14.72773438 57.46507812 -14.26953125 56.72265625 C-13.33763039 55.23735768 -12.40009052 53.75558266 -11.45703125 52.27734375 C-8.90656173 48.12074765 -7.04262509 45.04521383 -8 40 C-11.03525486 37.97649676 -12.19426202 37.67875982 -15.6875 37.375 C-16.49574219 37.30023438 -17.30398437 37.22546875 -18.13671875 37.1484375 C-18.75160156 37.09945312 -19.36648437 37.05046875 -20 37 C-18.71992321 32.7859934 -17.12544885 29.19612282 -14.8828125 25.41015625 C-13.97208984 23.86231445 -13.97208984 23.86231445 -13.04296875 22.28320312 C-12.41003906 21.22037109 -11.77710938 20.15753906 -11.125 19.0625 C-9.87741846 16.94932838 -8.63001796 14.83604986 -7.3828125 12.72265625 C-6.79790039 11.73539551 -6.21298828 10.74813477 -5.61035156 9.73095703 C-3.70804217 6.50487565 -1.84510303 3.25906389 0 0 Z " fill="#22D77B" transform="translate(191,213)"/>
<path d="M0 0 C1.24170708 -0.00855011 1.24170708 -0.00855011 2.50849915 -0.01727295 C4.26631384 -0.02674074 6.02414643 -0.03326396 7.78198242 -0.03710938 C10.45979371 -0.0467722 13.13682359 -0.07776015 15.81445312 -0.109375 C17.52213086 -0.11590919 19.22981409 -0.12115802 20.9375 -0.125 C22.13314827 -0.1435202 22.13314827 -0.1435202 23.35295105 -0.16241455 C28.22983305 -0.14308308 31.5908541 0.47352832 35.80078125 3.203125 C38.31445012 6.97362831 37.93884249 8.7146409 37.34765625 13.04296875 C36.58660112 16.04913651 35.30960054 17.43219374 32.80078125 19.203125 C26.8099261 21.20007672 19.90140097 20.51051247 13.61376953 20.55322266 C11.8252258 20.56979227 10.03674856 20.59709579 8.24853516 20.63525391 C5.66404027 20.69008086 3.08109215 20.71190194 0.49609375 20.7265625 C-0.29989227 20.74923187 -1.0958783 20.77190125 -1.91598511 20.79525757 C-6.18691397 20.77904357 -7.72731986 20.580567 -11.1875 17.81298828 C-13.73017361 14.51430129 -14.20981909 12.41911992 -14.48046875 8.359375 C-14.19921875 6.203125 -14.19921875 6.203125 -11.82421875 3.203125 C-10.95796875 2.543125 -10.09171875 1.883125 -9.19921875 1.203125 C-7.14366141 -0.85243234 -2.8288432 0.01489339 0 0 Z " fill="#00C7BA" transform="translate(196.19921875,453.796875)"/>
<path d="M0 0 C0.66700928 -0.00525696 1.33401855 -0.01051392 2.02124023 -0.01593018 C4.22606835 -0.0291334 6.4301743 -0.0203906 8.63500977 -0.01025391 C10.16813801 -0.0122748 11.70126531 -0.01518638 13.23439026 -0.01895142 C16.44818266 -0.02337538 19.66172495 -0.01694249 22.87548828 -0.00292969 C26.99265464 0.01414809 31.10923371 0.00433082 35.22637844 -0.01364708 C38.39285189 -0.02449542 41.55918647 -0.02103356 44.72566414 -0.0132637 C46.2435011 -0.01126384 47.76135071 -0.01371349 49.2791729 -0.02070236 C51.4025999 -0.02833282 53.52508084 -0.01669115 55.6484375 0 C57.46020729 0.00358017 57.46020729 0.00358017 59.30857849 0.00723267 C62.6136583 0.41597788 63.98765978 1.14356382 66.38891602 3.38818359 C66.07641602 6.76318359 66.07641602 6.76318359 65.38891602 10.38818359 C61.76915327 12.80135876 60.07132846 12.65156132 55.76196289 12.67871094 C55.09334732 12.68542816 54.42473175 12.69214539 53.7358551 12.69906616 C51.52638312 12.71805971 49.31721454 12.72197063 47.10766602 12.72412109 C45.57214228 12.7305469 44.03661978 12.73727509 42.50109863 12.74429321 C39.28317423 12.75626849 36.06535722 12.75997367 32.84741211 12.75878906 C28.72109901 12.75858558 24.59547241 12.78591596 20.4693222 12.82033348 C17.29861274 12.84255154 14.12807001 12.84662823 10.95729065 12.84556961 C9.43581266 12.84793219 7.91433053 12.85679259 6.39292908 12.87223434 C4.26675008 12.89179783 2.14207149 12.88609695 0.01586914 12.87402344 C-1.194198 12.87687347 -2.40426514 12.87972351 -3.65100098 12.88265991 C-6.61108398 12.38818359 -6.61108398 12.38818359 -8.50183105 10.51797485 C-9.87640636 7.8787585 -10.06293216 6.32519672 -9.61108398 3.38818359 C-7.07286341 -0.33390735 -4.26526068 0.00843398 0 0 Z " fill="#000101" transform="translate(179.611083984375,33.61181640625)"/>
<path d="M0 0 C5.6621214 0.87897467 8.93559753 5.42281302 12.8125 9.3125 C13.61365234 10.08529297 14.41480469 10.85808594 15.24023438 11.65429688 C15.99240234 12.40388672 16.74457031 13.15347656 17.51953125 13.92578125 C18.21151611 14.61067627 18.90350098 15.29557129 19.61645508 16.0012207 C21 18 21 18 20.86523438 20.07763672 C19.45806206 23.20406867 17.08407911 25.42832234 14.6875 27.8125 C14.20087891 28.32748047 13.71425781 28.84246094 13.21289062 29.37304688 C11.76171875 30.83203125 11.76171875 30.83203125 9 33 C5.14926439 32.772643 3.27803657 30.62685164 0.671875 27.96484375 C-0.12734375 27.15595703 -0.9265625 26.34707031 -1.75 25.51367188 C-2.575 24.66353516 -3.4 23.81339844 -4.25 22.9375 C-5.09046875 22.08349609 -5.9309375 21.22949219 -6.796875 20.34960938 C-8.87147597 18.23964588 -10.93875832 16.12300292 -13 14 C-10.67958929 11.67558858 -8.35871156 9.35235643 -6.015625 7.05078125 C-5.43296875 6.47714844 -4.8503125 5.90351563 -4.25 5.3125 C-3.65703125 4.73113281 -3.0640625 4.14976562 -2.453125 3.55078125 C-0.90358196 2.04486026 -0.90358196 2.04486026 0 0 Z " fill="#4DF1E7" transform="translate(418,342)"/>
<path d="M0 0 C0.80752213 -0.00287018 1.61504425 -0.00574036 2.44703674 -0.00869751 C4.1542328 -0.01073814 5.86145224 -0.00520828 7.56860352 0.00732422 C10.17843118 0.02335779 12.78670536 0.0074871 15.39648438 -0.01171875 C17.055993 -0.00973591 18.71550065 -0.00589138 20.375 0 C21.54391029 -0.00910904 21.54391029 -0.00910904 22.73643494 -0.0184021 C27.00661865 0.03685498 29.66781039 0.3148934 32.75390625 3.3984375 C32.44140625 6.7734375 32.44140625 6.7734375 31.75390625 10.3984375 C27.96064306 12.92727963 24.87139309 12.72189463 20.47265625 12.734375 C19.66276245 12.7410318 18.85286865 12.7476886 18.01843262 12.75454712 C16.30707062 12.76466657 14.59566923 12.76936436 12.88427734 12.76904297 C10.26333936 12.77342174 7.64407812 12.80976154 5.0234375 12.84765625 C3.36068285 12.85352343 1.69792019 12.85749348 0.03515625 12.859375 C-1.14149597 12.88093155 -1.14149597 12.88093155 -2.34191895 12.90292358 C-7.75637599 12.85733805 -7.75637599 12.85733805 -10.24023438 10.52978516 C-11.48434446 7.89360045 -11.68942189 6.2800704 -11.24609375 3.3984375 C-8.67068457 -0.75939191 -4.36984166 -0.03396491 0 0 Z " fill="#000202" transform="translate(277.24609375,457.6015625)"/>
<path d="M0 0 C0.80752213 -0.00287018 1.61504425 -0.00574036 2.44703674 -0.00869751 C4.1542328 -0.01073814 5.86145224 -0.00520828 7.56860352 0.00732422 C10.17843118 0.02335779 12.78670536 0.0074871 15.39648438 -0.01171875 C17.055993 -0.00973591 18.71550065 -0.00589138 20.375 0 C21.54391029 -0.00910904 21.54391029 -0.00910904 22.73643494 -0.0184021 C27.00661865 0.03685498 29.66781039 0.3148934 32.75390625 3.3984375 C32.44140625 6.7734375 32.44140625 6.7734375 31.75390625 10.3984375 C27.96064306 12.92727963 24.87139309 12.72189463 20.47265625 12.734375 C19.66276245 12.7410318 18.85286865 12.7476886 18.01843262 12.75454712 C16.30707062 12.76466657 14.59566923 12.76936436 12.88427734 12.76904297 C10.26333936 12.77342174 7.64407812 12.80976154 5.0234375 12.84765625 C3.36068285 12.85352343 1.69792019 12.85749348 0.03515625 12.859375 C-1.14149597 12.88093155 -1.14149597 12.88093155 -2.34191895 12.90292358 C-7.75637599 12.85733805 -7.75637599 12.85733805 -10.24023438 10.52978516 C-11.48434446 7.89360045 -11.68942189 6.2800704 -11.24609375 3.3984375 C-8.67068457 -0.75939191 -4.36984166 -0.03396491 0 0 Z " fill="#000202" transform="translate(117.24609375,457.6015625)"/>
<path d="M0 0 C4.10544333 1.36848111 5.78922946 4.23277492 8.3125 7.5625 C8.80016846 8.19567139 9.28783691 8.82884277 9.7902832 9.48120117 C11.2002714 11.31575744 12.60077978 13.15722593 14 15 C14.67804688 15.88171875 15.35609375 16.7634375 16.0546875 17.671875 C20 22.84419856 20 22.84419856 20 24 C7.46 24 -5.08 24 -18 24 C-16.01786813 20.69644688 -14.32841612 18.01698958 -11.93359375 15.1171875 C-11.0818457 14.07884766 -11.0818457 14.07884766 -10.21289062 13.01953125 C-9.62701172 12.31183594 -9.04113281 11.60414063 -8.4375 10.875 C-7.26835746 9.45669594 -6.10034229 8.03746161 -4.93359375 6.6171875 C-4.1610022 5.68302002 -4.1610022 5.68302002 -3.37280273 4.72998047 C-2.1691003 3.21309706 -1.07414866 1.61122298 0 0 Z " fill="#F59235" transform="translate(199,330)"/>
<path d="M0 0 C0 4.25970659 -2.01337063 7.41457778 -3.90234375 11.1328125 C-4.29950089 11.9252536 -4.69665802 12.7176947 -5.10585022 13.53414917 C-5.94626539 15.20825709 -6.78955755 16.88092337 -7.63549805 18.55224609 C-8.93445521 21.1189835 -10.22481104 23.68989913 -11.51367188 26.26171875 C-12.33023064 27.88566743 -13.14727153 29.5093738 -13.96484375 31.1328125 C-14.35341049 31.90569611 -14.74197723 32.67857971 -15.14231873 33.47488403 C-17.88283067 38.88283067 -17.88283067 38.88283067 -19 40 C-21.35313555 40.07271741 -23.70833668 40.08370868 -26.0625 40.0625 C-27.35285156 40.05347656 -28.64320313 40.04445312 -29.97265625 40.03515625 C-30.97167969 40.02355469 -31.97070312 40.01195312 -33 40 C-28.86610031 34.25847265 -24.38685812 28.91773995 -19.75488281 23.58007812 C-15.55762865 18.71572791 -11.56218712 13.71722559 -7.65356445 8.61865234 C-5.27353338 5.53283776 -2.82770882 2.68370513 0 0 Z " fill="#FBF16B" transform="translate(238,106)"/>
<path d="M0 0 C4.0743356 0.84881992 5.54405875 2.30225596 8 5.625 C8.625 8.625 8.625 8.625 8 11.625 C5.54405875 14.94774404 4.0743356 16.40118008 0 17.25 C-4.0743356 16.40118008 -5.54405875 14.94774404 -8 11.625 C-8.625 8.625 -8.625 8.625 -8 5.625 C-5.54405875 2.30225596 -4.0743356 0.84881992 0 0 Z " fill="#03070B" transform="translate(272,31.375)"/>
<path d="M0 0 C0 3.78176921 -1.07555275 5.76967782 -3 9 C-5.0625 10.3125 -5.0625 10.3125 -7 11 C-7.99 11.495 -7.99 11.495 -9 12 C-7.55575365 8.76138697 -5.74227753 6.38030837 -3.375 3.75 C-2.74335938 3.04359375 -2.11171875 2.3371875 -1.4609375 1.609375 C-0.97882813 1.07828125 -0.49671875 0.5471875 0 0 Z " fill="#EADF5F" transform="translate(238,106)"/>
</svg>
