<?xml version="1.0" encoding="UTF-8"?>
<svg version="1.1" xmlns="http://www.w3.org/2000/svg" width="512" height="512">
<path d="M0 0 C1.72733607 -0.00735005 3.45466725 -0.01593899 5.18199158 -0.02566528 C9.84691956 -0.04777899 14.51167041 -0.05081749 19.17664361 -0.04891777 C23.07616995 -0.04879772 26.97565921 -0.0573748 30.87517518 -0.06569529 C40.07110574 -0.08488863 49.26694552 -0.08782627 58.46289062 -0.08105469 C67.9471048 -0.07439977 77.43093146 -0.09734575 86.91506702 -0.13436842 C95.06816833 -0.1650392 103.2211447 -0.17642881 111.37430257 -0.1725316 C116.23977466 -0.17046331 121.10494434 -0.17595749 125.97036171 -0.20042419 C130.53997915 -0.22264863 135.10896309 -0.22084972 139.67858315 -0.20049667 C141.35516856 -0.19708022 143.03179633 -0.20220307 144.70832443 -0.21648026 C146.9970317 -0.23462718 149.2835785 -0.22196172 151.57221985 -0.20153809 C152.85250722 -0.2022506 154.13279459 -0.2029631 155.45187855 -0.2036972 C159.72187421 0.59452825 161.22783544 1.95457187 163.7878418 5.41992188 C163.7878418 7.06992188 163.7878418 8.71992188 163.7878418 10.41992188 C172.0378418 10.41992188 180.2878418 10.41992188 188.7878418 10.41992188 C188.7878418 8.76992187 188.7878418 7.11992187 188.7878418 5.41992188 C190.86484637 2.30441502 192.43752069 0.69662702 196.1706543 -0.06835938 C200.74135272 -0.3071272 203.09781953 -0.06309371 206.9128418 2.60742188 C208.7878418 5.41992187 208.7878418 5.41992187 208.7878418 10.41992188 C217.0378418 10.41992188 225.2878418 10.41992188 233.7878418 10.41992188 C233.7878418 8.76992187 233.7878418 7.11992187 233.7878418 5.41992188 C236.34608083 1.95891006 237.85368268 0.59562838 242.11821842 -0.20649052 C243.39590816 -0.20707683 244.67359789 -0.20766314 245.99000549 -0.20826721 C247.06177132 -0.21890879 247.06177132 -0.21890879 248.15518898 -0.22976536 C250.54443973 -0.24733779 252.93206187 -0.2292458 255.32128906 -0.21118164 C257.03653198 -0.21632111 258.75176962 -0.22360261 260.46699524 -0.23286438 C265.12457968 -0.25139291 269.78159224 -0.2384268 274.43915296 -0.21877408 C279.3209278 -0.20237971 284.20266661 -0.21120244 289.0844574 -0.21629333 C297.2901216 -0.22081641 305.49555805 -0.20493861 313.70117188 -0.17700195 C323.16636965 -0.14502381 332.63115495 -0.1449361 342.09638172 -0.16221672 C351.21763144 -0.17813156 360.33873105 -0.17131162 369.45997429 -0.15427971 C373.33249889 -0.14743546 377.20490222 -0.14841482 381.077425 -0.15582466 C385.65025168 -0.16353641 390.22261463 -0.1512032 394.79536247 -0.12397575 C396.46575927 -0.11713893 398.13619978 -0.1169429 399.80659485 -0.12419128 C416.01600352 -0.18637532 429.29126061 3.42457491 441.5378418 14.60742188 C452.72597964 26.60239659 455.24593881 39.87358054 455.19189453 55.68505859 C455.1976074 57.20399474 455.20457518 58.7229266 455.21269226 60.24185181 C455.23053872 64.34117082 455.22947132 68.44027478 455.22374988 72.53962088 C455.22064531 75.97373064 455.22676458 79.40779984 455.23278862 82.84190381 C455.24680461 90.94981307 455.24529731 99.05761691 455.23388672 107.16552734 C455.22241127 115.50326915 455.23647814 123.84068907 455.26328319 132.17838848 C455.2855043 139.36175597 455.2920631 146.54502289 455.28620678 153.72842228 C455.28285094 158.00777661 455.28516011 162.28692474 455.30245781 166.56624985 C455.31802735 170.59330981 455.31386181 174.61989638 455.29515266 178.64693832 C455.29149411 180.11578283 455.29449445 181.58466321 455.30503845 183.05347443 C455.40872133 198.70460472 451.27099343 211.48425703 440.6003418 223.16992188 C430.30111027 232.77637998 417.95974252 236.90926819 404.1322937 236.78068542 C403.10694492 236.7832487 402.08159613 236.78581197 401.02517617 236.78845292 C397.61500898 236.79336497 394.2052919 236.77694034 390.79516602 236.76049805 C388.34052033 236.75965122 385.88587388 236.76012801 383.43122864 236.76182556 C378.15967986 236.76250707 372.88826919 236.7540393 367.61675644 236.73711205 C359.99520678 236.71265465 352.37371088 236.70490991 344.75212623 236.70114807 C332.38444348 236.69459412 320.01682034 236.67466173 307.64916992 236.64624023 C295.64038388 236.61867225 283.63161407 236.59745211 271.62280273 236.5847168 C270.88166807 236.58392863 270.14053341 236.58314046 269.37694012 236.5823284 C265.65861282 236.57841308 261.94028541 236.57462201 258.22195792 236.57089269 C227.41054255 236.53982969 196.59920125 236.48679862 165.7878418 236.41992188 C166.19894196 237.74838387 166.19894196 237.74838387 166.61834717 239.10368347 C166.97817688 240.26918228 167.33800659 241.43468109 167.70874023 242.63549805 C168.06530701 243.78926437 168.42187378 244.9430307 168.78924561 246.13175964 C169.95825953 249.98107079 171.01944298 253.84068352 172.0378418 257.73242188 C172.37299805 259.00730469 172.7081543 260.2821875 173.0534668 261.59570312 C173.29581055 262.52769531 173.5381543 263.4596875 173.7878418 264.41992188 C178.03655325 263.03760161 178.03655325 263.03760161 182.15893555 261.32617188 C189.24707966 258.88271061 198.40175985 259.23551982 205.4284668 261.69335938 C209.04828222 263.52109869 212.45945604 265.56756178 215.86987305 267.75585938 C217.80769702 268.66783363 217.80769702 268.66783363 219.7175293 267.59179688 C220.35948242 267.12257813 221.00143555 266.65335937 221.6628418 266.16992188 C229.38289102 260.6064856 237.56808065 260.6452324 246.7878418 261.41992188 C253.35172145 263.02616227 258.51454261 266.29299208 263.7878418 270.41992188 C264.29573242 270.0821875 264.80362305 269.74445313 265.3269043 269.39648438 C266.01526367 268.95046875 266.70362305 268.50445312 267.4128418 268.04492188 C268.08573242 267.6040625 268.75862305 267.16320312 269.4519043 266.70898438 C277.44709259 262.29692394 286.9002324 262.10368256 295.70581055 264.07226562 C305.63997361 267.66088577 311.28260058 274.13335699 315.7878418 283.41992188 C317.07863811 286.89498927 318.08056316 290.42353283 319.05737305 293.99804688 C319.33966766 294.99498566 319.62196228 295.99192444 319.91281128 297.01907349 C320.81988498 300.2329921 321.71063963 303.45115533 322.6003418 306.66992188 C323.22232508 308.89231935 323.8451321 311.11448644 324.46875 313.33642578 C325.6947841 317.71122719 326.91423272 322.08778411 328.12866211 326.46582031 C329.51647232 331.46118509 330.93542653 336.44672838 332.3737793 341.42773438 C343.66083577 380.76057978 344.04608082 416.84232211 323.7878418 453.41992188 C307.5454111 480.43813891 281.03217576 499.93987047 250.7878418 508.41992188 C250.09851563 508.6189209 249.40918945 508.81791992 248.69897461 509.02294922 C213.66430632 518.72302405 175.06054543 511.98193755 143.67114258 494.52636719 C134.17917995 488.94980838 125.71573821 482.02865982 117.7878418 474.41992188 C116.89452148 473.58976562 116.00120117 472.75960938 115.08081055 471.90429688 C101.3551361 458.7737216 92.55794714 442.49530835 83.14968872 426.20903015 C80.56948617 421.74915881 77.95295529 417.31238238 75.3112793 412.88867188 C74.94972748 412.28258591 74.58817566 411.67649994 74.21566772 411.05204773 C72.49851198 408.17475984 70.77794856 405.29961811 69.05297852 402.42700195 C54.51232384 378.04044162 54.51232384 378.04044162 57.25268555 362.84179688 C60.3997979 350.99822614 66.60869632 343.38635796 76.95581055 337.10351562 C85.60627817 332.83039306 96.51470012 333.19924611 105.8190918 335.00976562 C114.43818448 337.96916928 120.51290086 345.11632824 126.7878418 351.41992188 C125.53571342 344.85874567 124.08779405 338.38561512 122.40527344 331.92211914 C122.17571457 331.03124603 121.9461557 330.14037292 121.7096405 329.22250366 C120.95837911 326.30976147 120.20325197 323.39803738 119.44799805 320.48632812 C118.91974049 318.4419455 118.39170367 316.39750583 117.86387634 314.35301208 C116.7601846 310.08020893 115.65473583 305.80786589 114.54785156 301.53588867 C113.13560217 296.08531554 111.72634921 290.63397376 110.31824589 285.18232822 C108.96668052 279.95006507 107.61366039 274.71817846 106.26049805 269.48632812 C106.00577288 268.50101168 105.75104771 267.51569523 105.48860359 266.50052071 C104.75979508 263.68251465 104.02996049 260.86477637 103.29980469 258.04711914 C103.08931488 257.23275894 102.87882507 256.41839874 102.66195679 255.57936096 C101.0880151 249.51218226 99.44792147 243.46406343 97.7878418 237.41992188 C97.2062241 237.41845531 96.6246064 237.41698875 96.02536392 237.41547775 C81.82582604 237.37830883 67.62651896 237.31916159 53.42717361 237.23601913 C46.56025081 237.19633216 39.69344089 237.16388753 32.82641602 237.14892578 C26.19322519 237.13445264 19.56034885 237.09922357 12.9272995 237.05161285 C10.40294191 237.03683233 7.87853433 237.02888278 5.35413361 237.02803802 C1.80464315 237.0256567 -1.74388894 236.99848129 -5.29321289 236.96582031 C-6.84150032 236.97336586 -6.84150032 236.97336586 -8.42106628 236.98106384 C-22.02557264 236.78873342 -33.95599916 231.36944906 -43.9621582 222.23242188 C-55.15029605 210.23744716 -57.67025522 196.96626321 -57.61621094 181.15478516 C-57.6219238 179.63584901 -57.62889159 178.11691715 -57.63700867 176.59799194 C-57.65485512 172.49867293 -57.65378772 168.39956897 -57.64806628 164.30022287 C-57.64496171 160.86611311 -57.65108099 157.43204391 -57.65710503 153.99793994 C-57.67112101 145.89003068 -57.66961372 137.78222684 -57.65820312 129.67431641 C-57.64672768 121.3365746 -57.66079455 112.99915468 -57.6875996 104.66145527 C-57.70982071 97.47808778 -57.7163795 90.29482086 -57.71052319 83.11142147 C-57.70716734 78.83206714 -57.70947652 74.55291901 -57.72677422 70.2735939 C-57.74234376 66.24653394 -57.73817822 62.21994737 -57.71946907 58.19290543 C-57.71581052 56.72406092 -57.71881085 55.25518054 -57.72935486 53.78636932 C-57.83303773 38.13523903 -53.69530984 25.35558672 -43.0246582 13.66992188 C-30.40034835 1.89478084 -16.43865278 -0.03319129 0 0 Z " fill="#85E79D" transform="translate(57.212158203125,-0.419921875)"/>
<path d="M0 0 C1.72733607 -0.00735005 3.45466725 -0.01593899 5.18199158 -0.02566528 C9.84691956 -0.04777899 14.51167041 -0.05081749 19.17664361 -0.04891777 C23.07616995 -0.04879772 26.97565921 -0.0573748 30.87517518 -0.06569529 C40.07110574 -0.08488863 49.26694552 -0.08782627 58.46289062 -0.08105469 C67.9471048 -0.07439977 77.43093146 -0.09734575 86.91506702 -0.13436842 C95.06816833 -0.1650392 103.2211447 -0.17642881 111.37430257 -0.1725316 C116.23977466 -0.17046331 121.10494434 -0.17595749 125.97036171 -0.20042419 C130.53997915 -0.22264863 135.10896309 -0.22084972 139.67858315 -0.20049667 C141.35516856 -0.19708022 143.03179633 -0.20220307 144.70832443 -0.21648026 C146.9970317 -0.23462718 149.2835785 -0.22196172 151.57221985 -0.20153809 C152.85250722 -0.2022506 154.13279459 -0.2029631 155.45187855 -0.2036972 C159.68615352 0.58785068 161.17420074 2.05781128 163.7878418 5.41992188 C164.53630422 10.56560105 163.69259997 14.11286665 160.7878418 18.41992188 C156.77644751 20.54425655 153.30473803 20.66625709 148.8134613 20.65802002 C147.77844745 20.66035853 147.77844745 20.66035853 146.72252423 20.66274428 C144.41663759 20.66569332 142.1110349 20.6545374 139.80517578 20.64355469 C138.14905297 20.64303028 136.49292962 20.64346652 134.83680725 20.64479065 C131.27206772 20.64612364 127.7073971 20.641717 124.14266777 20.63318634 C118.49749862 20.62078948 112.85245704 20.62776239 107.20729065 20.63861084 C91.15492363 20.66705441 75.1026655 20.67956384 59.05029297 20.64990234 C50.18314434 20.63368027 41.3162742 20.63891934 32.44915444 20.66769862 C27.76159563 20.68195104 23.07461638 20.68510308 18.38708305 20.66147614 C13.97171656 20.63922515 9.55724725 20.64499172 5.14191246 20.67146111 C3.52955047 20.676202 1.91711933 20.67087407 0.30483627 20.65423012 C-10.44279902 20.55068013 -19.58217573 21.80401203 -28.12860966 29.04324722 C-36.04851439 37.4914267 -36.79994592 46.82764928 -36.72973633 57.96069336 C-36.73516561 59.41376443 -36.74229278 60.86682999 -36.75097656 62.31988525 C-36.76911896 66.24359121 -36.76217993 70.16687363 -36.74946022 74.09058642 C-36.73928321 78.21120457 -36.74873907 82.33178816 -36.75500488 86.45240784 C-36.76226849 93.37141379 -36.75272837 100.29024859 -36.73364258 107.20922852 C-36.71188484 115.188576 -36.71892226 123.16751441 -36.7409482 131.14685196 C-36.75914932 138.01765658 -36.76163733 144.88833866 -36.75119352 151.75915962 C-36.74498328 155.85401324 -36.74405425 159.94867514 -36.75733948 164.04351616 C-36.768966 167.89576053 -36.76074966 171.74748203 -36.73776245 175.59967041 C-36.73251101 177.00645648 -36.73392744 178.4132872 -36.74281311 179.82005501 C-36.80240896 190.22083102 -35.67067943 200.04958382 -28.09341431 207.83262634 C-16.37384017 217.7209279 -2.85824746 216.35026398 11.6862793 216.32226562 C14.21066924 216.33393997 16.73505335 216.34694675 19.25942993 216.36122131 C24.52962877 216.38352194 29.79938299 216.383212 35.06958008 216.36694336 C41.1507897 216.34876023 47.2299282 216.38595191 53.3107847 216.44965357 C59.1864065 216.50892391 65.06121694 216.51802086 70.93709183 216.5074482 C73.42741407 216.5089875 75.91776966 216.52469532 78.40790939 216.55488396 C81.88433284 216.59188936 85.35592989 216.57168248 88.83227539 216.53686523 C90.37061539 216.57126205 90.37061539 216.57126205 91.94003296 216.60635376 C97.41950875 216.51490598 97.41950875 216.51490598 101.71611404 213.42276192 C103.22956877 211.14595659 104.50238433 208.82959759 105.7878418 206.41992188 C112.5732329 199.54126079 119.58898349 196.3411613 129.1628418 195.98242188 C138.70790883 196.23622135 146.92508631 199.73612384 153.7878418 206.41992188 C154.68386112 207.9486063 155.54911534 209.49566176 156.38576889 211.05762768 C158.5654032 214.39575349 158.5654032 214.39575349 161.968575 216.2524544 C164.67185413 216.56815344 167.24989693 216.59623918 169.9710083 216.52912903 C171.5055721 216.54489716 171.5055721 216.54489716 173.07113719 216.56098384 C176.49919407 216.58517523 179.92345304 216.54504675 183.35131836 216.50512695 C185.80886231 216.50913681 188.26640255 216.51705094 190.72392273 216.52857971 C196.70680292 216.54622326 202.68819782 216.52212776 208.67083797 216.47874085 C215.64341967 216.42998142 222.61576671 216.428841 229.58848915 216.429643 C242.0358771 216.42945676 254.48274307 216.38618096 266.92993164 216.31860352 C278.99478815 216.25314091 291.05923069 216.2176677 303.12426758 216.21606445 C303.8667731 216.21596155 304.60927861 216.21585866 305.3742843 216.21575264 C306.11553197 216.21565438 306.85677964 216.21555612 307.62048936 216.21545488 C321.36966706 216.21347097 335.11867661 216.18518745 348.86778839 216.14353803 C353.72177897 216.12935535 358.5757483 216.12255487 363.42975616 216.11792946 C369.9732513 216.11104064 376.51639883 216.0814046 383.05976295 216.03699303 C385.45824989 216.02374302 387.85678471 216.01717702 390.25530815 216.01786804 C393.5361968 216.01759042 396.81601989 215.9926358 400.09674072 215.96150208 C401.04014761 215.96701436 401.9835545 215.97252665 402.95554948 215.97820598 C411.69008607 215.84565448 419.74525286 213.28272276 426.25268555 207.26757812 C431.21872575 201.29063915 433.89957445 194.17187676 433.94847107 186.48329163 C433.95851669 185.2428006 433.96856232 184.00230957 433.97891235 182.72422791 C433.98494252 181.34683288 433.99082751 179.96943722 433.99658203 178.59204102 C434.00612196 177.1431048 434.01601319 175.69417086 434.02622986 174.24523926 C434.05761535 169.4818797 434.07788978 164.71850273 434.09643555 159.95507812 C434.10138153 158.73780191 434.10138153 158.73780191 434.10642743 157.49593425 C434.13722159 149.83520917 434.16391786 142.17448008 434.18084621 134.51371098 C434.2027163 124.73247708 434.24460344 114.95179469 434.31428379 105.1707812 C434.36166208 98.28481844 434.38579858 91.39900368 434.3930431 84.51288313 C434.39798086 80.40538188 434.41287965 76.29850213 434.4527874 72.19117928 C434.48991025 68.31922761 434.49798092 64.44824568 434.48478127 60.57614899 C434.4848348 59.16370941 434.49496151 57.75122405 434.5165329 56.3389492 C434.66490339 46.06634605 433.01111269 37.28580699 425.98148251 29.39132786 C419.13112175 22.9493273 410.96783068 21.29504093 401.80432129 21.29534912 C401.11345665 21.29393897 400.422592 21.29252882 399.71079206 21.29107594 C397.40247027 21.28743434 395.09421034 21.29075451 392.78588867 21.29394531 C391.12825981 21.29254998 389.4706313 21.2906503 387.81300354 21.2882843 C384.24663507 21.28379274 380.68027809 21.28193134 377.11390686 21.2818222 C371.47487475 21.28068098 365.83590797 21.26783716 360.19689941 21.2522583 C359.24488852 21.24968545 358.29287763 21.24711259 357.31201792 21.24446177 C355.36559799 21.2391955 353.41917812 21.23391002 351.47275829 21.22860575 C338.34681873 21.19349619 325.22096115 21.16694744 312.0949707 21.16943359 C303.23704946 21.17102114 294.37935161 21.15501409 285.52150202 21.11872697 C280.8348121 21.10025368 276.14849526 21.09093633 271.46177673 21.10320282 C267.05551758 21.11462435 262.64992732 21.10297193 258.24375725 21.07356834 C256.62685799 21.06691894 255.00989767 21.06880973 253.39302254 21.07986641 C251.18500041 21.09371313 248.97924466 21.07687761 246.7713623 21.0524292 C245.53620125 21.05096264 244.30104019 21.04949608 243.02845001 21.04798508 C238.8754508 20.24309111 237.40234711 18.67628574 234.7878418 15.41992188 C233.57523302 11.78209556 233.39239628 9.24256188 233.7878418 5.41992188 C236.38982615 2.04737247 237.88578364 0.58959049 242.11821842 -0.20649052 C243.39590816 -0.20707683 244.67359789 -0.20766314 245.99000549 -0.20826721 C247.06177132 -0.21890879 247.06177132 -0.21890879 248.15518898 -0.22976536 C250.54443973 -0.24733779 252.93206187 -0.2292458 255.32128906 -0.21118164 C257.03653198 -0.21632111 258.75176962 -0.22360261 260.46699524 -0.23286438 C265.12457968 -0.25139291 269.78159224 -0.2384268 274.43915296 -0.21877408 C279.3209278 -0.20237971 284.20266661 -0.21120244 289.0844574 -0.21629333 C297.2901216 -0.22081641 305.49555805 -0.20493861 313.70117188 -0.17700195 C323.16636965 -0.14502381 332.63115495 -0.1449361 342.09638172 -0.16221672 C351.21763144 -0.17813156 360.33873105 -0.17131162 369.45997429 -0.15427971 C373.33249889 -0.14743546 377.20490222 -0.14841482 381.077425 -0.15582466 C385.65025168 -0.16353641 390.22261463 -0.1512032 394.79536247 -0.12397575 C396.46575927 -0.11713893 398.13619978 -0.1169429 399.80659485 -0.12419128 C416.01600352 -0.18637532 429.29126061 3.42457491 441.5378418 14.60742188 C452.72597964 26.60239659 455.24593881 39.87358054 455.19189453 55.68505859 C455.1976074 57.20399474 455.20457518 58.7229266 455.21269226 60.24185181 C455.23053872 64.34117082 455.22947132 68.44027478 455.22374988 72.53962088 C455.22064531 75.97373064 455.22676458 79.40779984 455.23278862 82.84190381 C455.24680461 90.94981307 455.24529731 99.05761691 455.23388672 107.16552734 C455.22241127 115.50326915 455.23647814 123.84068907 455.26328319 132.17838848 C455.2855043 139.36175597 455.2920631 146.54502289 455.28620678 153.72842228 C455.28285094 158.00777661 455.28516011 162.28692474 455.30245781 166.56624985 C455.31802735 170.59330981 455.31386181 174.61989638 455.29515266 178.64693832 C455.29149411 180.11578283 455.29449445 181.58466321 455.30503845 183.05347443 C455.40872133 198.70460472 451.27099343 211.48425703 440.6003418 223.16992188 C430.30111027 232.77637998 417.95974252 236.90926819 404.1322937 236.78068542 C403.10694492 236.7832487 402.08159613 236.78581197 401.02517617 236.78845292 C397.61500898 236.79336497 394.2052919 236.77694034 390.79516602 236.76049805 C388.34052033 236.75965122 385.88587388 236.76012801 383.43122864 236.76182556 C378.15967986 236.76250707 372.88826919 236.7540393 367.61675644 236.73711205 C359.99520678 236.71265465 352.37371088 236.70490991 344.75212623 236.70114807 C332.38444348 236.69459412 320.01682034 236.67466173 307.64916992 236.64624023 C295.64038388 236.61867225 283.63161407 236.59745211 271.62280273 236.5847168 C270.88166807 236.58392863 270.14053341 236.58314046 269.37694012 236.5823284 C265.65861282 236.57841308 261.94028541 236.57462201 258.22195792 236.57089269 C227.41054255 236.53982969 196.59920125 236.48679862 165.7878418 236.41992188 C166.19894196 237.74838387 166.19894196 237.74838387 166.61834717 239.10368347 C166.97817688 240.26918228 167.33800659 241.43468109 167.70874023 242.63549805 C168.06530701 243.78926437 168.42187378 244.9430307 168.78924561 246.13175964 C169.95825953 249.98107079 171.01944298 253.84068352 172.0378418 257.73242188 C172.37299805 259.00730469 172.7081543 260.2821875 173.0534668 261.59570312 C173.29581055 262.52769531 173.5381543 263.4596875 173.7878418 264.41992188 C178.03655325 263.03760161 178.03655325 263.03760161 182.15893555 261.32617188 C189.24707966 258.88271061 198.40175985 259.23551982 205.4284668 261.69335938 C209.04828222 263.52109869 212.45945604 265.56756178 215.86987305 267.75585938 C217.80769702 268.66783363 217.80769702 268.66783363 219.7175293 267.59179688 C220.35948242 267.12257813 221.00143555 266.65335937 221.6628418 266.16992188 C229.38289102 260.6064856 237.56808065 260.6452324 246.7878418 261.41992188 C253.35172145 263.02616227 258.51454261 266.29299208 263.7878418 270.41992188 C264.29573242 270.0821875 264.80362305 269.74445313 265.3269043 269.39648438 C266.01526367 268.95046875 266.70362305 268.50445312 267.4128418 268.04492188 C268.08573242 267.6040625 268.75862305 267.16320312 269.4519043 266.70898438 C277.44709259 262.29692394 286.9002324 262.10368256 295.70581055 264.07226562 C305.63997361 267.66088577 311.28260058 274.13335699 315.7878418 283.41992188 C317.07863811 286.89498927 318.08056316 290.42353283 319.05737305 293.99804688 C319.33966766 294.99498566 319.62196228 295.99192444 319.91281128 297.01907349 C320.81988498 300.2329921 321.71063963 303.45115533 322.6003418 306.66992188 C323.22232508 308.89231935 323.8451321 311.11448644 324.46875 313.33642578 C325.6947841 317.71122719 326.91423272 322.08778411 328.12866211 326.46582031 C329.51647232 331.46118509 330.93542653 336.44672838 332.3737793 341.42773438 C343.66083577 380.76057978 344.04608082 416.84232211 323.7878418 453.41992188 C307.5454111 480.43813891 281.03217576 499.93987047 250.7878418 508.41992188 C250.09851563 508.6189209 249.40918945 508.81791992 248.69897461 509.02294922 C213.66430632 518.72302405 175.06054543 511.98193755 143.67114258 494.52636719 C134.17917995 488.94980838 125.71573821 482.02865982 117.7878418 474.41992188 C116.89452148 473.58976562 116.00120117 472.75960938 115.08081055 471.90429688 C101.3551361 458.7737216 92.55794714 442.49530835 83.14968872 426.20903015 C80.56948617 421.74915881 77.95295529 417.31238238 75.3112793 412.88867188 C74.94972748 412.28258591 74.58817566 411.67649994 74.21566772 411.05204773 C72.49851198 408.17475984 70.77794856 405.29961811 69.05297852 402.42700195 C54.51232384 378.04044162 54.51232384 378.04044162 57.25268555 362.84179688 C60.3997979 350.99822614 66.60869632 343.38635796 76.95581055 337.10351562 C85.60627817 332.83039306 96.51470012 333.19924611 105.8190918 335.00976562 C114.43818448 337.96916928 120.51290086 345.11632824 126.7878418 351.41992188 C125.53571342 344.85874567 124.08779405 338.38561512 122.40527344 331.92211914 C122.17571457 331.03124603 121.9461557 330.14037292 121.7096405 329.22250366 C120.95837911 326.30976147 120.20325197 323.39803738 119.44799805 320.48632812 C118.91974049 318.4419455 118.39170367 316.39750583 117.86387634 314.35301208 C116.7601846 310.08020893 115.65473583 305.80786589 114.54785156 301.53588867 C113.13560217 296.08531554 111.72634921 290.63397376 110.31824589 285.18232822 C108.96668052 279.95006507 107.61366039 274.71817846 106.26049805 269.48632812 C106.00577288 268.50101168 105.75104771 267.51569523 105.48860359 266.50052071 C104.75979508 263.68251465 104.02996049 260.86477637 103.29980469 258.04711914 C103.08931488 257.23275894 102.87882507 256.41839874 102.66195679 255.57936096 C101.0880151 249.51218226 99.44792147 243.46406343 97.7878418 237.41992188 C97.2062241 237.41845531 96.6246064 237.41698875 96.02536392 237.41547775 C81.82582604 237.37830883 67.62651896 237.31916159 53.42717361 237.23601913 C46.56025081 237.19633216 39.69344089 237.16388753 32.82641602 237.14892578 C26.19322519 237.13445264 19.56034885 237.09922357 12.9272995 237.05161285 C10.40294191 237.03683233 7.87853433 237.02888278 5.35413361 237.02803802 C1.80464315 237.0256567 -1.74388894 236.99848129 -5.29321289 236.96582031 C-6.84150032 236.97336586 -6.84150032 236.97336586 -8.42106628 236.98106384 C-22.02557264 236.78873342 -33.95599916 231.36944906 -43.9621582 222.23242188 C-55.15029605 210.23744716 -57.67025522 196.96626321 -57.61621094 181.15478516 C-57.6219238 179.63584901 -57.62889159 178.11691715 -57.63700867 176.59799194 C-57.65485512 172.49867293 -57.65378772 168.39956897 -57.64806628 164.30022287 C-57.64496171 160.86611311 -57.65108099 157.43204391 -57.65710503 153.99793994 C-57.67112101 145.89003068 -57.66961372 137.78222684 -57.65820312 129.67431641 C-57.64672768 121.3365746 -57.66079455 112.99915468 -57.6875996 104.66145527 C-57.70982071 97.47808778 -57.7163795 90.29482086 -57.71052319 83.11142147 C-57.70716734 78.83206714 -57.70947652 74.55291901 -57.72677422 70.2735939 C-57.74234376 66.24653394 -57.73817822 62.21994737 -57.71946907 58.19290543 C-57.71581052 56.72406092 -57.71881085 55.25518054 -57.72935486 53.78636932 C-57.83303773 38.13523903 -53.69530984 25.35558672 -43.0246582 13.66992188 C-30.40034835 1.89478084 -16.43865278 -0.03319129 0 0 Z " fill="#000000" transform="translate(57.212158203125,-0.419921875)"/>
<path d="M0 0 C7.05420394 5.0163228 8.31967652 15.00369338 10.25 22.9375 C10.86113475 25.37423727 11.47441054 27.81043857 12.08984375 30.24609375 C12.38487793 31.41640137 12.67991211 32.58670898 12.98388672 33.79248047 C14.00003383 37.72593386 15.12522708 41.6154178 16.3125 45.5 C18.52458588 52.77987411 20.4254668 60.12983214 22.3125 67.5 C24.39497759 75.62863208 26.5130298 83.72817551 28.96875 91.75268555 C30.18058323 95.73916145 31.26605614 99.73873142 32.27734375 103.78125 C32.66007446 105.28014771 32.66007446 105.28014771 33.05053711 106.80932617 C33.5471361 108.76660402 34.02916731 110.72765371 34.49438477 112.69262695 C35.56644256 116.87172651 36.26663622 119.42477013 39.28125 122.6015625 C42.76377688 124.52555112 44.89437666 124.62969839 48.8125 124 C51.9360883 122.21013047 51.9360883 122.21013047 53.8125 119 C54.38367693 111.66146101 52.90815209 105.41435257 50.9375 98.375 C50.66808594 97.37726563 50.39867187 96.37953125 50.12109375 95.3515625 C49.01020496 91.25482142 47.8660523 87.17321342 46.640625 83.109375 C45.45702331 78.66528565 45.17888667 74.55892518 45.8125 70 C47.93766732 66.35685602 49.95156344 64.57401984 53.8125 63 C58.40846709 62.67935113 61.89955736 63.36490947 65.6875 66 C71.40654695 74.07394864 72.828904 85.2670585 75.25756836 94.72705078 C75.75277894 96.64912714 76.26487854 98.56682697 76.77734375 100.484375 C77.0724585 101.61584961 77.36757324 102.74732422 77.67163086 103.91308594 C79.12553774 107.8470039 80.97380386 111.08065193 84.8125 113 C88.68464182 113.43023798 90.33746371 113.31669086 93.625 111.125 C96.35551529 108.47249943 96.76349341 107.69746875 97.03125 103.88671875 C96.783492 99.48459007 95.71022904 95.95595431 94.3125 91.8125 C92.13785489 84.87841105 90.51485337 78.30967919 91.8125 71 C93.90070902 67.27105533 95.91818103 65.60186795 99.8125 64 C101.99609375 63.84765625 101.99609375 63.84765625 104.25 64.0625 C104.99121094 64.11535156 105.73242188 64.16820312 106.49609375 64.22265625 C109.95933479 65.38485687 111.51573492 67.18278569 113.8125 70 C114.87666873 72.59567081 115.7073866 74.94568769 116.4375 77.625 C116.6427832 78.32778076 116.84806641 79.03056152 117.05957031 79.75463867 C117.66154486 81.83192485 118.24047294 83.9142935 118.8125 86 C119.12445313 87.11761719 119.43640625 88.23523438 119.7578125 89.38671875 C120.25920242 91.20973356 120.75278916 93.03493502 121.234375 94.86328125 C121.70219925 96.59233437 122.24606516 98.30069549 122.8125 100 C126.54587473 101.24445824 129.94040345 101.64032725 133.8125 101 C136.9991503 99.2301177 136.9991503 99.2301177 138.8125 96 C139.38439232 92.26275016 139.24648815 88.69558162 138.30859375 85.03125 C137.03951832 79.83503565 136.84761661 74.65408581 139.5625 70 C142.258401 67.60364355 144.3405866 66.10269163 147.99609375 65.84765625 C152.02597946 66.23178747 154.33486658 66.65734994 157.6875 69.0625 C162.38876079 75.56130168 164.01952304 83.92064049 166.125 91.5625 C166.58229492 93.20690063 166.58229492 93.20690063 167.04882812 94.88452148 C169.30007008 103.02421204 171.438048 111.19027881 173.53125 119.37182617 C175.6553523 127.59349354 178.03913254 135.73149756 180.54101562 143.84594727 C186.16441399 162.51608022 186.16315943 184.55384119 179.8125 203 C179.461875 204.08667969 179.11125 205.17335938 178.75 206.29296875 C169.51836818 232.6095303 151.0125882 252.80674943 126.10546875 265.0625 C119.54629723 268.11920129 112.8243753 270.25662931 105.8125 272 C104.55179688 272.31839844 103.29109375 272.63679688 101.9921875 272.96484375 C71.81154631 279.58019642 40.94423874 272.83952346 14.8125 257 C-6.51779257 243.31306227 -20.67482185 224.24538984 -32.70703125 202.4375 C-35.60263447 197.21321464 -38.6433307 192.07620874 -41.6875 186.9375 C-42.24058838 186.00309082 -42.79367676 185.06868164 -43.36352539 184.10595703 C-45.88770949 179.84987005 -48.4230126 175.60101235 -50.984375 171.3671875 C-51.61182617 170.32896851 -51.61182617 170.32896851 -52.25195312 169.26977539 C-53.0185525 168.00416023 -53.78790071 166.74020422 -54.56054688 165.47827148 C-58.12140736 159.60814855 -58.9503338 154.79133983 -58.1875 148 C-55.69415497 143.01330993 -52.19399051 139.50324526 -47.1875 137 C-40.50558913 136.54698909 -35.39757102 137.31225696 -30.12339783 141.72824097 C-27.80779657 143.95090999 -25.56294797 146.22749502 -23.33203125 148.53515625 C-22.50797287 149.36961777 -21.68391449 150.20407928 -20.83488464 151.06382751 C-18.21353086 153.72068917 -15.6059891 156.39057304 -13 159.0625 C-10.38157836 161.73619809 -7.76027407 164.40690292 -5.13298035 167.07188416 C-3.50134668 168.72798988 -1.87508925 170.38941345 -0.25483704 172.05665588 C0.48305557 172.80761032 1.22094818 173.55856476 1.98120117 174.33227539 C2.62627121 174.99385147 3.27134125 175.65542755 3.93595886 176.33705139 C7.33145546 179.34606422 9.20892322 180 13.8125 180 C17.15954535 179.44945796 17.8002539 179.01194741 20.375 176.5 C23.20693292 169.60485898 20.49538689 162.07068909 18.5625 155.125 C18.10791285 153.44535581 17.65349028 151.76566707 17.19921875 150.0859375 C16.9676709 149.23870117 16.73612305 148.39146484 16.49755859 147.51855469 C15.43226592 143.60210449 14.40409181 139.67608706 13.375 135.75 C12.95835762 134.16666027 12.54169045 132.58332707 12.125 131 C9.93102104 122.6495831 7.75578523 114.2942641 5.57861328 105.93945312 C4.32409764 101.12607891 3.06823997 96.31305492 1.8125 91.5 C1.31249337 89.58333506 0.81249338 87.66666839 0.3125 85.75 C0.065 84.80125 -0.1825 83.8525 -0.4375 82.875 C-2.6875 74.25 -2.6875 74.25 -3.43774414 71.37402344 C-3.93690383 69.46060506 -4.43608995 67.54719359 -4.93530273 65.63378906 C-6.19837829 60.79248023 -7.46096996 55.95104609 -8.72265625 51.109375 C-8.9757959 50.1387915 -9.22893555 49.16820801 -9.48974609 48.16821289 C-9.99259802 46.23803014 -10.49424539 44.30753313 -10.99462891 42.37670898 C-12.18848908 37.77911938 -13.40422539 33.19004305 -14.67578125 28.61328125 C-14.90966553 27.76024414 -15.1435498 26.90720703 -15.38452148 26.02832031 C-15.81960904 24.44589888 -16.26246401 22.86558091 -16.71508789 21.28808594 C-18.28094227 15.55375213 -19.38757498 9.84228285 -17 4.1875 C-12.21595061 -1.58635271 -7.01296745 -2.20014665 0 0 Z " fill="#FDCDC4" transform="translate(193.1875,217)"/>
<path d="M0 0 C8.84700079 5.31106358 15.05980988 12.33237833 17.95549011 22.31591797 C18.43513511 24.54724956 18.56130035 26.56298273 18.59106445 28.84375 C18.61031731 30.13659912 18.61031731 30.13659912 18.62995911 31.45556641 C18.63734604 32.38159668 18.64473297 33.30762695 18.65234375 34.26171875 C18.6604155 35.2264209 18.66848724 36.19112305 18.67680359 37.18505859 C18.69062753 39.22931126 18.70135723 41.27358684 18.70922852 43.31787109 C18.7207056 45.39118294 18.74108897 47.46446625 18.77075195 49.53759766 C18.98887268 64.79142597 19.16346634 77.74784592 7.9296875 89.31640625 C0.24265952 95.8336691 -7.90679135 97.94984203 -17.80859375 97.84765625 C-27.09797865 96.86780386 -33.86954921 91.99111316 -39.8671875 85.0859375 C-44.89365007 77.37488697 -46.20332566 70.76227507 -46.1875 61.6171875 C-46.19607025 60.50418777 -46.2046405 59.39118805 -46.21347046 58.24446106 C-46.22490402 55.90055041 -46.22599682 53.55656883 -46.21728516 51.21264648 C-46.21097312 47.65678759 -46.2579106 44.10427548 -46.30859375 40.54882812 C-46.44103339 16.91032676 -46.44103339 16.91032676 -37.57543945 7.26098633 C-27.5136939 -2.51617928 -13.01253276 -6.04001928 0 0 Z " fill="#010302" transform="translate(221.5859375,70.55078125)"/>
<path d="M0 0 C8.60197045 4.66568865 14.28262968 11.3219023 17.671875 20.44921875 C18.5002604 23.30527255 18.81011311 25.87334914 18.84887695 28.84375 C18.86812981 30.13659912 18.86812981 30.13659912 18.88777161 31.45556641 C18.89515854 32.38159668 18.90254547 33.30762695 18.91015625 34.26171875 C18.918228 35.2264209 18.92629974 36.19112305 18.93461609 37.18505859 C18.94844003 39.22931126 18.95916973 41.27358684 18.96704102 43.31787109 C18.9785181 45.39118294 18.99890147 47.46446625 19.02856445 49.53759766 C19.24668518 64.79142597 19.42127884 77.74784592 8.1875 89.31640625 C0.50047202 95.8336691 -7.64897885 97.94984203 -17.55078125 97.84765625 C-26.84016615 96.86780386 -33.61173671 91.99111316 -39.609375 85.0859375 C-44.63583757 77.37488697 -45.94551316 70.76227507 -45.9296875 61.6171875 C-45.93825775 60.50418777 -45.946828 59.39118805 -45.95565796 58.24446106 C-45.96709152 55.90055041 -45.96818432 53.55656883 -45.95947266 51.21264648 C-45.95316062 47.65678759 -46.0000981 44.10427548 -46.05078125 40.54882812 C-46.18322089 16.91032676 -46.18322089 16.91032676 -37.31762695 7.26098633 C-27.01600813 -2.74926813 -13.34036814 -5.49422676 0 0 Z " fill="#020302" transform="translate(151.328125,70.55078125)"/>
<path d="M0 0 C1.06025391 -0.02900391 2.12050781 -0.05800781 3.21289062 -0.08789062 C13.23007679 -0.16822586 20.29509744 2.49507547 27.64453125 9.31640625 C33.28791585 15.59912854 35.78671124 22.54974508 35.73828125 30.9765625 C35.13628307 35.65182109 33.22240048 39.97774169 31.4375 44.3125 C32.01757812 44.93125 32.01757812 44.93125 32.609375 45.5625 C37.45823749 50.93945642 41.73240382 56.90899013 42.4375 64.3125 C42.51226562 65.00730469 42.58703125 65.70210938 42.6640625 66.41796875 C43.19520116 75.2097113 40.08066901 83.32022976 34.6875 90.25 C27.48511299 97.82174019 18.05875084 100.28635008 7.92578125 100.68359375 C5.53397863 100.71653869 3.14200147 100.73841957 0.75 100.75 C-0.45978516 100.78287109 -1.66957031 100.81574219 -2.91601562 100.84960938 C-11.54764751 100.9020958 -11.54764751 100.9020958 -14.47119141 99.20361328 C-15.83203125 97.84765625 -15.83203125 97.84765625 -17.5625 95.3125 C-17.8925 94.9825 -18.2225 94.6525 -18.5625 94.3125 C-18.68425632 91.63628736 -18.741122 88.98542716 -18.75537109 86.30786133 C-18.76354858 85.46879242 -18.77172607 84.62972351 -18.78015137 83.76522827 C-18.80506054 80.97500329 -18.82153779 78.18482946 -18.8359375 75.39453125 C-18.84126118 74.44310431 -18.84658485 73.49167736 -18.85206985 72.5114193 C-18.87882884 67.47303446 -18.89819258 62.43467461 -18.91259766 57.39624023 C-18.92922801 52.19175184 -18.97398437 46.98789886 -19.0249691 41.7836504 C-19.05863791 37.78331276 -19.07017488 33.78312573 -19.07582474 29.78265953 C-19.08254112 27.86451057 -19.09777326 25.94637166 -19.12171555 24.02836037 C-19.15335461 21.33975326 -19.15340566 18.65285593 -19.14599609 15.96411133 C-19.16240143 15.17373978 -19.17880676 14.38336823 -19.19570923 13.56904602 C-19.15001146 9.51024343 -18.7428289 7.04229147 -16.15103149 3.83427429 C-11.30296317 -0.88876427 -6.48516502 0.057663 0 0 Z " fill="#000101" transform="translate(58.5625,67.6875)"/>
<path d="M0 0 C5.52454828 3.74913312 7.99417576 7.99529798 10.890625 13.9140625 C11.32131287 14.76551849 11.75200073 15.61697449 12.19573975 16.49423218 C13.56021132 19.19815991 14.9055612 21.91106477 16.25 24.625 C17.61279949 27.34386674 18.97941346 30.06078351 20.34710693 32.77719116 C21.19448323 34.46364712 22.03825034 36.15192251 22.87799072 37.8421936 C23.44933746 38.98886002 23.44933746 38.98886002 24.03222656 40.15869141 C24.36498596 40.82977936 24.69774536 41.50086731 25.04058838 42.19229126 C26.09251169 44.24699751 26.09251169 44.24699751 28 47 C28.00410889 45.81970215 28.00821777 44.6394043 28.01245117 43.42333984 C28.03428528 39.02836933 28.0886191 34.63428865 28.15258789 30.23974609 C28.17573066 28.34074455 28.19015486 26.44161534 28.19555664 24.54248047 C28.2048736 21.8061603 28.24592231 19.07183785 28.29296875 16.3359375 C28.2890361 15.49195404 28.28510345 14.64797058 28.28105164 13.77841187 C28.42718178 7.82419842 29.68566302 5.14414697 34 1 C36.82001327 -0.41000664 38.87007255 -0.24548451 42 0 C45.49406769 1.66762322 46.82670681 2.74006022 49 6 C49.20998884 8.74614723 49.30406696 11.39232558 49.30639648 14.13989258 C49.31472 14.96949997 49.32304352 15.79910736 49.33161926 16.65385437 C49.35574554 19.40079421 49.36449504 22.14749664 49.37109375 24.89453125 C49.38005889 26.80401176 49.38918072 28.71349154 49.39845276 30.62297058 C49.41495301 34.62862862 49.42264461 38.63420298 49.42553711 42.63989258 C49.43091849 47.76814058 49.46858392 52.89559996 49.51428127 58.02362537 C49.54405357 61.96907914 49.55126072 65.91434318 49.55226326 69.85989952 C49.55646611 71.75012507 49.568903 73.64035116 49.58978081 75.53046608 C49.61669586 78.17820448 49.61186973 80.82411759 49.59936523 83.47192383 C49.61419952 84.24980255 49.62903381 85.02768127 49.64431763 85.82913208 C49.56785322 91.52681467 48.07757151 94.01389774 44 98 C40.84203893 99.57898053 37.39329364 99.81928171 34 99 C29.34686377 95.25102768 26.99704002 90.73167631 24.375 85.5 C23.51061879 83.81630247 22.64602704 82.13271301 21.78125 80.44921875 C21.33265625 79.5679834 20.8840625 78.68674805 20.421875 77.77880859 C17.94430597 72.93682874 15.40515947 68.12714037 12.875 63.3125 C11.93454357 61.51711156 10.99440779 59.7215551 10.0546875 57.92578125 C9.65749512 57.16692627 9.26030273 56.40807129 8.85107422 55.6262207 C8.57021973 55.08956787 8.28936523 54.55291504 8 54 C7.98541748 55.1552417 7.97083496 56.3104834 7.95581055 57.50073242 C7.89773178 61.79677912 7.8204995 66.09230694 7.73754883 70.38793945 C7.70434451 72.2452755 7.67629859 74.10271137 7.65356445 75.96020508 C7.61993558 78.63405798 7.56761626 81.30699993 7.51171875 83.98046875 C7.50213387 85.2213752 7.50213387 85.2213752 7.49235535 86.48735046 C7.37442806 91.13691356 6.96893144 94.20118307 4 98 C0.57840405 100.56619697 -2.84844133 100.50984054 -7 100 C-9.63016161 97.8272578 -11.47336894 96.05326212 -13 93 C-13.11918735 90.31652396 -13.17834991 87.65819823 -13.19287109 84.97363281 C-13.20104858 84.14417145 -13.20922607 83.31471008 -13.21765137 82.46011353 C-13.24251744 79.7077914 -13.25902533 76.95552092 -13.2734375 74.203125 C-13.27876118 73.26364769 -13.28408485 72.32417038 -13.28956985 71.35622406 C-13.31630796 66.38267329 -13.33567989 61.40914767 -13.35009766 56.43554688 C-13.36673833 51.29946506 -13.4115093 46.1640258 -13.4624691 41.0281868 C-13.49613639 37.07846342 -13.50767458 33.12889257 -13.51332474 29.179039 C-13.52003969 27.28600917 -13.53526813 25.39298945 -13.55921555 23.50009918 C-13.59085651 20.84751676 -13.59090566 18.19666712 -13.58349609 15.54394531 C-13.59990143 14.76449554 -13.61630676 13.98504578 -13.63320923 13.18197632 C-13.58719057 9.14921539 -13.16282725 6.71456604 -10.58853149 3.52850342 C-6.96911125 -0.00698243 -5.04126152 -0.58168402 0 0 Z " fill="#000101" transform="translate(352,68)"/>
<path d="M0 0 C7.88898115 4.29049852 14.57697833 10.91871298 17.671875 19.453125 C18.20264031 23.43386483 18.03741715 25.58736728 16.484375 29.265625 C13.63033464 32.71015646 10.99798359 33.25973416 6.671875 33.890625 C2.48109332 33.27946934 1.32417932 31.71749955 -1.328125 28.453125 C-2.64847605 26.4040342 -3.9103855 24.34063426 -5.1171875 22.22265625 C-6.37014946 20.15543564 -6.37014946 20.15543564 -9.328125 18.453125 C-14.14353124 17.97947848 -16.37927455 17.96112847 -20.703125 20.203125 C-23.6580224 22.7358942 -25.08493865 24.60246104 -25.59555054 28.48825073 C-25.60317413 29.20739655 -25.61079773 29.92654236 -25.61865234 30.66748047 C-25.63141205 31.48868378 -25.64417175 32.30988708 -25.65731812 33.15597534 C-25.65954376 34.0352066 -25.66176941 34.91443787 -25.6640625 35.8203125 C-25.6707193 36.73265656 -25.6773761 37.64500061 -25.68423462 38.58499146 C-25.6943495 40.51318346 -25.699052 42.4414104 -25.69873047 44.36962891 C-25.70309928 47.31081208 -25.73941867 50.25048889 -25.77734375 53.19140625 C-25.78321313 55.06770322 -25.78718171 56.94400729 -25.7890625 58.8203125 C-25.80343353 59.6954953 -25.81780457 60.5706781 -25.83261108 61.47238159 C-25.79186026 66.95266652 -25.00248645 70.11657842 -21.328125 74.453125 C-17.52635786 76.95142912 -13.78029365 76.68561808 -9.41796875 76.046875 C-7.08783501 75.53593011 -7.08783501 75.53593011 -4.828125 73.390625 C-2.90101861 69.61670832 -2.61404089 66.67038431 -2.328125 62.453125 C-3.25625 62.22625 -4.184375 61.999375 -5.140625 61.765625 C-8.328125 60.453125 -8.328125 60.453125 -10.203125 58.265625 C-11.63182154 54.69388365 -11.80551131 52.27221544 -11.328125 48.453125 C-9.53250095 45.69983479 -8.27557578 43.92685039 -5.328125 42.453125 C-2.54008378 42.24919304 0.19348633 42.12941953 2.984375 42.078125 C4.12422852 42.02205078 4.12422852 42.02205078 5.28710938 41.96484375 C9.63868192 41.89679136 11.16339687 42.03328067 14.65234375 44.9140625 C15.31878906 45.75195312 15.98523438 46.58984375 16.671875 47.453125 C17.001875 47.783125 17.331875 48.113125 17.671875 48.453125 C18.01245362 52.77804237 17.9972367 57.11654269 18.046875 61.453125 C18.10294922 63.26490234 18.10294922 63.26490234 18.16015625 65.11328125 C18.2367843 72.93785683 17.2442307 78.06832013 12.671875 84.453125 C12.115 85.34 11.558125 86.226875 10.984375 87.140625 C3.91831127 94.20668873 -4.67922359 97.4157444 -14.515625 97.953125 C-23.46550561 97.79863914 -30.80303139 94.11730738 -37.328125 88.078125 C-44.73572354 79.89552224 -46.63735066 70.23460118 -46.6640625 59.53125 C-46.6707193 58.59061707 -46.6773761 57.64998413 -46.68423462 56.68084717 C-46.6943213 54.69740746 -46.69905288 52.71393408 -46.69873047 50.73046875 C-46.70309182 47.72598077 -46.73942153 44.72297752 -46.77734375 41.71875 C-46.85835213 28.04611485 -45.91166297 16.98751008 -36.328125 6.453125 C-26.26248461 -3.08274484 -12.76675482 -5.23953522 0 0 Z " fill="#010302" transform="translate(454.328125,70.546875)"/>
<path d="M0 0 C4.58317133 4.46859204 5.16553922 7.88704496 5.5625 14.125 C5.68818359 16.04699219 5.68818359 16.04699219 5.81640625 18.0078125 C5.87699219 18.99523437 5.93757813 19.98265625 6 21 C7.08667969 19.71416016 7.08667969 19.71416016 8.1953125 18.40234375 C10.18197169 16.05200745 12.17053868 13.70330102 14.16015625 11.35546875 C15.77798967 9.44609546 17.3905429 7.53302992 18.99609375 5.61328125 C23.60432688 0.13166728 23.60432688 0.13166728 28.3125 -0.3125 C32.57536111 0.04875942 34.01992054 1.01992054 37 4 C38.64347445 7.2869489 38.62590447 10.45953027 38 14 C36.45771855 17.04518551 34.24487816 19.44577178 32 22 C31.08056533 23.07557152 30.16272172 24.15250429 29.24609375 25.23046875 C27.19265504 27.63946397 25.12881471 30.03901233 23.05859375 32.43359375 C18.94252468 37.21041046 14.96332149 42.09589008 11 47 C15.76882699 53.52674753 20.85475736 59.76797344 26 66 C28.31524682 68.80427586 30.62572856 71.61120685 32.9140625 74.4375 C34.21872013 76.04022547 35.54389333 77.62670836 36.8984375 79.1875 C39.60599099 82.44164879 41.37576751 84.87818987 41.625 89.1875 C40.93991521 93.36651724 40.0080279 95.08044351 37 98 C33.73952371 99.63023814 31.62198965 99.4673535 28 99 C21.00524632 94.95661918 16.21784107 87.43111574 11.41796875 81.109375 C9.67261408 78.86494476 8.02272475 76.95792434 6 75 C5.97421875 76.08539063 5.9484375 77.17078125 5.921875 78.2890625 C5.86556262 79.73441349 5.808216 81.17972444 5.75 82.625 C5.72873047 83.69427734 5.72873047 83.69427734 5.70703125 84.78515625 C5.47222675 89.90389444 4.34894811 92.92992803 1 97 C-2.7373856 99.4915904 -4.57331583 99.45793285 -9 99 C-11.75329021 97.20437595 -13.52627461 95.94745078 -15 93 C-15.11407607 90.25009849 -15.16784574 87.52494277 -15.17700195 84.77416992 C-15.18357315 83.92359512 -15.19014435 83.07302032 -15.19691467 82.19667053 C-15.21666696 79.37460243 -15.22831439 76.55258758 -15.23828125 73.73046875 C-15.24235678 72.76767817 -15.2464323 71.80488758 -15.25063133 70.81292152 C-15.27150004 65.7173242 -15.28579844 60.62175388 -15.29516602 55.52612305 C-15.30623376 50.26001096 -15.34063562 44.99432104 -15.38033772 39.72835827 C-15.40646923 35.68173938 -15.41485476 31.63522162 -15.41844749 27.58852577 C-15.42332222 25.64724183 -15.43496132 23.70596266 -15.45348549 21.76476097 C-15.47780391 19.04750387 -15.47692539 16.33134602 -15.4699707 13.61401367 C-15.48278076 12.81226715 -15.49559082 12.01052063 -15.50878906 11.18447876 C-15.47358051 7.40986106 -15.15069564 5.23548511 -13.09562683 2.02412415 C-9.06524109 -1.86874503 -5.22148932 -1.38434503 0 0 Z " fill="#010201" transform="translate(262,69)"/>
<path d="M0 0 C3.49406769 1.66762322 4.82670681 2.74006022 7 6 C7.19981604 8.78226733 7.28333175 11.46467179 7.2746582 14.24755859 C7.2823246 15.50900948 7.2823246 15.50900948 7.29014587 16.79594421 C7.30406301 19.58018074 7.30308334 22.36417029 7.30078125 25.1484375 C7.30466739 27.08273409 7.30900188 29.01702983 7.31376648 30.95132446 C7.32123352 35.00826786 7.32093417 39.06512425 7.31567383 43.12207031 C7.30988252 48.31972055 7.32679969 53.51701407 7.3500185 58.71460533 C7.3647556 62.71062298 7.3656275 66.70655475 7.36250877 70.70259476 C7.36302213 72.61873709 7.36826251 74.53488421 7.37832069 76.45100021 C7.3906655 79.13211935 7.38390493 81.81254421 7.37231445 84.49365234 C7.38378006 85.67988945 7.38378006 85.67988945 7.39547729 86.89009094 C7.35201872 91.44126169 6.80618866 94.37239367 4 98 C0.57840405 100.56619697 -2.84844133 100.50984054 -7 100 C-10.15954305 97.45862841 -11.71540886 95.85377341 -13 92 C-13.11673692 89.30927532 -13.17806874 86.64346529 -13.19287109 83.9519043 C-13.20104858 83.13205048 -13.20922607 82.31219666 -13.21765137 81.46749878 C-13.2424733 78.7530795 -13.2590125 76.03871238 -13.2734375 73.32421875 C-13.27876118 72.39669107 -13.28408485 71.4691634 -13.28956985 70.51352882 C-13.31628656 65.60481213 -13.33566685 60.69612075 -13.35009766 55.78735352 C-13.36344262 51.72592679 -13.39130748 47.66500179 -13.43212891 43.60375977 C-13.48143405 38.69840658 -13.50621594 33.79350888 -13.51332474 28.88791847 C-13.52003822 27.02000774 -13.53526286 25.15210721 -13.55921555 23.284338 C-13.59085846 20.66778008 -13.59090567 18.05297856 -13.58349609 15.4362793 C-13.59990143 14.66775131 -13.61630676 13.89922333 -13.63320923 13.10740662 C-13.56578413 7.27864575 -12.00799393 4.92546765 -8 1 C-5.17998673 -0.41000664 -3.12992745 -0.24548451 0 0 Z " fill="#010101" transform="translate(322,68)"/>
<path d="M0 0 C4.44418302 2.30755657 6.91481125 4.4656254 9 9 C9.44356405 12.15617085 9.44428546 15.28144583 9.43359375 18.46484375 C9.4388356 19.37577286 9.44407745 20.28670197 9.44947815 21.22523499 C9.45588766 23.14746076 9.45457523 25.06972582 9.44604492 26.99194336 C9.43753806 29.92437983 9.46630571 32.85486532 9.49804688 35.78710938 C9.4996592 37.65885359 9.49908077 39.53060123 9.49609375 41.40234375 C9.51294472 42.71041237 9.51294472 42.71041237 9.53013611 44.04490662 C9.46779117 49.5229954 8.6353031 52.64733042 5 57 C1.86724599 59.77472498 -0.43730742 60.22233641 -4.5 60 C-9.01073806 59.33090719 -11.16581304 57.63130205 -14 54 C-15.15630852 51.68738297 -15.15040238 50.29687898 -15.19287109 47.72143555 C-15.20893402 46.83679123 -15.22499695 45.95214691 -15.24154663 45.04069519 C-15.28599715 40.99303948 -15.32706141 36.94554778 -15.35009766 32.89770508 C-15.36665841 30.76282857 -15.39394988 28.62800754 -15.43212891 26.4934082 C-15.48689333 23.4158857 -15.50877113 20.33966289 -15.5234375 17.26171875 C-15.54610687 16.30947922 -15.56877625 15.35723969 -15.59213257 14.37614441 C-15.57750205 9.78632369 -15.54649905 7.70289359 -12.65478516 3.98364258 C-8.03436559 0.53128751 -5.83800388 -0.59369531 0 0 Z " fill="#83E49B" transform="translate(211,88)"/>
<path d="M0 0 C4.44418302 2.30755657 6.91481125 4.4656254 9 9 C9.44356405 12.15617085 9.44428546 15.28144583 9.43359375 18.46484375 C9.4388356 19.37577286 9.44407745 20.28670197 9.44947815 21.22523499 C9.45588766 23.14746076 9.45457523 25.06972582 9.44604492 26.99194336 C9.43753806 29.92437983 9.46630571 32.85486532 9.49804688 35.78710938 C9.4996592 37.65885359 9.49908077 39.53060123 9.49609375 41.40234375 C9.51294472 42.71041237 9.51294472 42.71041237 9.53013611 44.04490662 C9.46779117 49.5229954 8.6353031 52.64733042 5 57 C1.86724599 59.77472498 -0.43730742 60.22233641 -4.5 60 C-9.01073806 59.33090719 -11.16581304 57.63130205 -14 54 C-15.15630852 51.68738297 -15.15040238 50.29687898 -15.19287109 47.72143555 C-15.20893402 46.83679123 -15.22499695 45.95214691 -15.24154663 45.04069519 C-15.28599715 40.99303948 -15.32706141 36.94554778 -15.35009766 32.89770508 C-15.36665841 30.76282857 -15.39394988 28.62800754 -15.43212891 26.4934082 C-15.48689333 23.4158857 -15.50877113 20.33966289 -15.5234375 17.26171875 C-15.54610687 16.30947922 -15.56877625 15.35723969 -15.59213257 14.37614441 C-15.57750205 9.78632369 -15.54649905 7.70289359 -12.65478516 3.98364258 C-8.03436559 0.53128751 -5.83800388 -0.59369531 0 0 Z " fill="#83E49B" transform="translate(141,88)"/>
<path d="M0 0 C13.36633663 -0.44554455 13.36633663 -0.44554455 18 3 C20.14721819 5.3550135 20.93766319 6.96105314 21.12890625 10.1484375 C20.89282434 14.45514382 20.35724337 16.54874522 17.625 20 C12.19728304 24.1354034 6.57243693 23.07067136 0 23 C0 15.41 0 7.82 0 0 Z " fill="#84E59B" transform="translate(60,125)"/>
<path d="M0 0 C3.125 2.0625 3.125 2.0625 5 5 C5.74846242 10.14567917 4.90475817 13.69294478 2 18 C-1.58466458 20.13142218 -4.88622755 20.59992515 -9 20 C-13.25628919 16.50038444 -14.76636522 14.102713 -15.375 8.625 C-15 5 -15 5 -13.125 2.0625 C-8.74948817 -0.82533781 -5.10170093 -1.02870363 0 0 Z " fill="#010302" transform="translate(261,0)"/>
<path d="M0 0 C8 0 8 0 10.9375 1.5625 C13.66802141 4.78947985 14.07383065 6.79165269 14 11 C12.23358828 13.80189446 10.96950178 15.51524911 8 17 C5.36 17 2.72 17 0 17 C0 11.39 0 5.78 0 0 Z " fill="#81E098" transform="translate(60,88)"/>
</svg>
