<?xml version="1.0" encoding="UTF-8"?>
<svg version="1.1" xmlns="http://www.w3.org/2000/svg" width="512" height="512">
<path d="M0 0 C0.86625 0.66 1.7325 1.32 2.625 2 C3.8315625 2.89332031 3.8315625 2.89332031 5.0625 3.8046875 C12.8359876 10.46429121 16.99354676 20.29870244 17.9375 30.31640625 C18.33889465 41.74361015 15.93917488 51.20545004 8.5 60.0234375 C5.25234042 63.44701197 1.8781099 66.87344505 -2.375 69 C-1.21742188 69.06058594 -0.05984375 69.12117188 1.1328125 69.18359375 C2.67188457 69.26805502 4.21094655 69.35270018 5.75 69.4375 C6.51054687 69.47681641 7.27109375 69.51613281 8.0546875 69.55664062 C11.42316319 69.74539142 14.61105679 69.9973661 17.93359375 70.625 C20.83070344 71.02866115 21.95722954 70.76124408 24.5625 69.5625 C33.84921049 66.16415906 44.16737302 67.26579713 53.35546875 70.44140625 C55.95010057 71.08001615 57.07877664 70.66778477 59.625 70 C60.99176632 69.86070644 62.3624567 69.75634699 63.734375 69.68359375 C64.48847656 69.64169922 65.24257812 69.59980469 66.01953125 69.55664062 C66.79683594 69.51732422 67.57414063 69.47800781 68.375 69.4375 C69.16777344 69.39431641 69.96054688 69.35113281 70.77734375 69.30664062 C72.72637815 69.20097009 74.67566748 69.10002034 76.625 69 C76.04492188 68.5875 75.46484375 68.175 74.8671875 67.75 C65.34392215 60.70969822 58.50065922 51.96849216 56.625 40 C55.66204151 25.87043598 58.72058397 16.02405106 67.9375 5.3125 C78.01515081 -3.35896698 86.6300486 -6.60115268 99.97265625 -6.28125 C111.09018165 -5.42514109 119.3818102 -0.72536984 126.9375 7.375 C134.0408621 15.81995137 137.22558576 25.20428057 136.93359375 36.265625 C135.70835777 47.12214631 131.40232606 56.88504253 123.171875 64.171875 C121.03116936 65.85481968 118.87122737 67.46176719 116.625 69 C117.79417969 69.06058594 118.96335937 69.12117188 120.16796875 69.18359375 C121.71615614 69.26804034 123.26433268 69.35268625 124.8125 69.4375 C125.58142578 69.47681641 126.35035156 69.51613281 127.14257812 69.55664062 C130.31844964 69.73383517 133.29242028 69.92515787 136.40234375 70.625 C139.10553987 71.08107527 140.46785152 70.56203229 143 69.5625 C153.65611297 66.13221624 164.64679378 67.05324921 174.625 72 C178 74 178 74 180.625 76 C181.45 76.556875 182.275 77.11375 183.125 77.6875 C190.57993487 84.58331475 195.09570506 94.0497501 195.86328125 104.12890625 C196.13791458 116.83431142 193.48101853 126.66428046 184.625 136 C181.82833755 138.67261694 179.10114708 141.26192646 175.625 143 C176.73617188 143.02578125 177.84734375 143.0515625 178.9921875 143.078125 C192.15980349 143.52390752 202.83746593 145.63817715 212.25 155.6875 C217.56054598 161.9732126 220.683628 169.33300422 220.81787109 177.58154297 C220.84196548 178.93347244 220.84196548 178.93347244 220.86654663 180.31271362 C220.91122634 184.41696178 220.95203553 188.52105376 220.97509766 192.62548828 C220.99167262 194.78835803 221.01898269 196.95117267 221.05712891 199.11376953 C221.11194505 202.24019639 221.13377635 205.3653446 221.1484375 208.4921875 C221.18244156 209.93620438 221.18244156 209.93620438 221.21713257 211.40939331 C221.20303168 215.8998025 221.10758926 219.01788339 218.21728516 222.59423828 C214.51527054 226.02988077 212.83357098 226.12621364 207.88273239 226.13701439 C206.03785158 226.1446262 206.03785158 226.1446262 204.15570045 226.15239179 C202.77834054 226.15299352 201.40098058 226.15349258 200.02362061 226.15390015 C198.57011492 226.15791329 197.11661036 226.16235127 195.66310716 226.1671797 C191.65445479 226.17916753 187.64581446 226.18479875 183.63714767 226.18936086 C179.31936458 226.19530857 175.00159597 226.20692045 170.68382263 226.21765137 C160.24924449 226.24219399 149.81466155 226.256805 139.38006341 226.26971143 C136.43423422 226.27342193 133.48840551 226.27739528 130.54257679 226.2814641 C112.26010799 226.30669855 93.97763847 226.32875763 75.6951561 226.34119225 C71.45871732 226.34412208 67.22227856 226.34708372 62.98583984 226.35009766 C61.93285769 226.35084371 60.87987555 226.35158976 59.79498485 226.35235842 C42.73071789 226.3650167 25.66655501 226.39824504 8.60233673 226.43989949 C-8.9061684 226.48228909 -26.4146202 226.50588382 -43.92317653 226.51111281 C-53.75805186 226.51453025 -63.59276451 226.52632459 -73.42758942 226.55921555 C-81.8020954 226.58717635 -90.17640538 226.59823288 -98.55095443 226.58702008 C-102.8251807 226.58182326 -107.09899626 226.58478614 -111.37316322 226.60948563 C-115.2854233 226.63190539 -119.19697591 226.63129568 -123.10924777 226.61228175 C-124.5251766 226.60947145 -125.94115266 226.61513743 -127.35700527 226.63009469 C-139.25483887 226.74810838 -139.25483887 226.74810838 -143.19433212 223.64949989 C-145.96014855 220.28904762 -146.49735615 217.91960082 -146.55200195 213.703125 C-146.56483719 212.83792236 -146.57767242 211.97271973 -146.59089661 211.08129883 C-146.59828354 210.14697021 -146.60567047 209.2126416 -146.61328125 208.25 C-146.621353 207.28151123 -146.62942474 206.31302246 -146.63774109 205.31518555 C-146.65157911 203.26076036 -146.66230253 201.20631221 -146.67016602 199.15185547 C-146.68164362 197.06487221 -146.7020278 194.97791731 -146.73168945 192.89111328 C-146.93967002 178.25811178 -147.06132189 165.23251167 -136.375 154 C-125.75093985 144.03743794 -115.29202931 143.46336837 -101.375 143 C-101.88289063 142.64808594 -102.39078125 142.29617188 -102.9140625 141.93359375 C-112.46203374 135.085517 -119.09870729 126.76084567 -121.375 115 C-122.32906204 101.29163495 -119.99003106 90.8856594 -111.375 80 C-102.51676096 71.27107832 -92.58203426 67.81119475 -80.37963867 67.73803711 C-74.90613177 67.80207404 -70.06633026 68.82220013 -64.86328125 70.44140625 C-62.13939807 71.05289023 -61.01691724 70.70195719 -58.375 70 C-55.62182026 69.77609683 -52.88194671 69.58606338 -50.125 69.4375 C-49.37992187 69.39431641 -48.63484375 69.35113281 -47.8671875 69.30664062 C-46.036651 69.20103275 -44.20584824 69.10005799 -42.375 69 C-43.01566406 68.55011719 -43.65632813 68.10023438 -44.31640625 67.63671875 C-54.77854953 59.85637673 -60.39989862 50.93602433 -62.375 38 C-63.77759301 26.00881751 -59.07027074 15.36004218 -51.8515625 6.03125 C-38.5378282 -8.77622035 -16.38125892 -9.7074127 0 0 Z " fill="#020202" transform="translate(166.375,286)"/>
<path d="M0 0 C4.48141313 2.12277464 7.00031308 4.44515757 9 9 C9.1875 11.8125 9.1875 11.8125 9 14 C9.82814209 14.25362305 10.65628418 14.50724609 11.50952148 14.76855469 C15.44534984 16.15712 19.10684096 17.86394239 22.84765625 19.703125 C23.58197372 20.06339783 24.3162912 20.42367065 25.07286072 20.79486084 C26.61782704 21.55575848 28.16163812 22.31900583 29.7043457 23.08447266 C32.05261968 24.24511661 34.40978774 25.38618402 36.76757812 26.52734375 C38.27402922 27.27224202 39.77990853 28.018298 41.28515625 28.765625 C41.98423599 29.10023743 42.68331573 29.43484985 43.40357971 29.77960205 C48.13137584 32.16469655 50.90268778 34.68616195 54 39 C54.6640625 41.125 54.6640625 41.125 54.625 43 C54.64433594 43.928125 54.64433594 43.928125 54.6640625 44.875 C53.10037 49.878816 49.39931082 53.0068946 44.9440918 55.42529297 C43.36958448 56.21199925 41.7874988 56.98367149 40.19921875 57.7421875 C39.36284378 58.15542267 38.52646881 58.56865784 37.66474915 58.99441528 C35.01198746 60.30132437 32.35013463 61.58834484 29.6875 62.875 C27.87891944 63.76172103 26.07096919 64.64972891 24.26367188 65.5390625 C19.85058782 67.71016214 15.42573085 69.85406233 11 72 C10.67 80.25 10.34 88.5 10 97 C11.32 97.66 12.64 98.32 14 99 C18.63993765 102.75614 20.04341829 106.26537787 21 112 C21.28471604 115.31850854 21.32517838 118.60815778 21.3125 121.9375 C21.32861328 122.77990234 21.34472656 123.62230469 21.36132812 124.49023438 C21.36197266 125.32748047 21.36261719 126.16472656 21.36328125 127.02734375 C21.36626221 127.76718506 21.36924316 128.50702637 21.37231445 129.26928711 C21.02556879 131.8124676 20.40337182 133.69916229 19.50927734 136.0859375 C17.6029956 141.58428331 17.52427905 146.82124332 17.48828125 152.59765625 C17.47033005 153.67252792 17.45237885 154.7473996 17.43388367 155.85484314 C17.38009468 159.2573566 17.34598564 162.65973232 17.3125 166.0625 C17.27929924 168.3821805 17.24480706 170.70184289 17.20898438 173.02148438 C17.12438653 178.68086596 17.05590489 184.34026609 17 190 C23.41921954 189.93221245 29.83786711 189.84211631 36.2565918 189.73754883 C38.43360565 189.70459057 40.61069899 189.67647134 42.7878418 189.65356445 C59.50779061 189.47295365 76.89023861 189.24168803 92 181 C94.88441042 178.0183076 96.46765918 175.85202705 96.75 171.6875 C96.8325 170.470625 96.915 169.25375 97 168 C96.41863281 167.731875 95.83726562 167.46375 95.23828125 167.1875 C84.77025925 161.63378501 78.41587369 151.3150182 74.62890625 140.4453125 C74 138 74 138 74 134 C73.12988281 133.85304687 73.12988281 133.85304687 72.2421875 133.703125 C63.58817944 132.0465822 58.08640325 128.15571637 53 121 C50.17267777 115.47387018 50.23955149 109.06077462 51 103 C52.45627107 98.84962746 54.16860654 94.57515852 57.56347656 91.65527344 C59.43961251 89.49344445 59.3685382 88.29113202 59.37109375 85.45703125 C59.39272583 84.10508667 59.39272583 84.10508667 59.41479492 82.72583008 C59.42603394 81.28373169 59.42603394 81.28373169 59.4375 79.8125 C59.94981406 61.41576772 64.14777898 46.20981646 77.17578125 32.578125 C91.11767425 19.85108574 107.88466898 16.82947857 126.125 16.75 C127.28515625 16.729375 128.4453125 16.70875 129.640625 16.6875 C143.13409028 16.62712655 154.95363166 19.23279138 164.9140625 28.84765625 C168.07501064 32.6392369 169.33847058 35.93845602 170.375 40.75 C171.18659423 44.63209614 171.18659423 44.63209614 173.81640625 47.37890625 C175.22157451 47.99738731 176.64003574 48.58656614 178.0703125 49.14453125 C181.43924832 50.63804733 182.42821681 52.74000524 184 56 C187.24318708 64.53162727 187.41085578 73.23898533 187.3581543 82.2578125 C187.45217845 88.71299811 188.38019618 91.46432008 193 96 C196.74839107 102.33348836 196.80508376 108.76319151 196 116 C193.9830774 122.77729368 189.57723545 127.57070974 183.5625 131.1875 C180 133 180 133 176.90234375 133.76953125 C173.81272551 134.71127686 173.81272551 134.71127686 172.75 137.46875 C172.37875 138.96921875 172.37875 138.96921875 172 140.5 C168.94871455 150.92418744 163.50679794 159.13538392 155 166 C152.22265625 167.25 152.22265625 167.25 150 168 C150.20290673 169.58691231 150.4385725 171.16965292 150.6875 172.75 C150.87892578 174.07257813 150.87892578 174.07257813 151.07421875 175.421875 C152.64580233 179.79843687 156.09212519 181.55629385 160.15209961 183.54052734 C170.52867292 187.67750422 181.00597927 190.53460602 191.8449707 193.18261719 C194.06712058 193.72938772 196.28545507 194.29000531 198.50390625 194.8515625 C199.16959122 195.00895905 199.83527618 195.16635559 200.52113342 195.32852173 C206.49747265 196.84681357 211.24244569 199.68484029 215.25 204.375 C215.72953125 204.91898438 216.2090625 205.46296875 216.703125 206.0234375 C219.58644064 210.41788844 220.2725322 215.12986103 220.57836914 220.28637695 C220.65507339 221.51238113 220.73177765 222.73838531 220.81080627 224.00154114 C220.88484177 225.31716537 220.95887726 226.63278961 221.03515625 227.98828125 C221.11887818 229.37391871 221.20331838 230.75951294 221.28843689 232.14506531 C221.51057726 235.79265956 221.72296596 239.4407581 221.93328857 243.08905029 C222.14561115 246.74266351 222.36712635 250.39571701 222.58789062 254.04882812 C222.99894867 260.87313468 223.39974518 267.69799886 223.79681396 274.52313232 C223.97322333 277.54180444 224.15259872 280.56026645 224.33447266 283.57861328 C224.38155869 284.36310349 224.42864471 285.14759369 224.47715759 285.95585632 C224.59273491 287.8780629 224.7088121 289.8002394 224.82495117 291.72241211 C225.69398808 307.9941283 225.69398808 307.9941283 222 313 C218.45594688 315.36270208 216.95978135 315.25700847 212.75724792 315.27415466 C211.44918686 315.28412979 210.14112579 315.29410492 208.79342651 315.30438232 C207.34039319 315.30527815 205.8873597 315.30594171 204.43432617 315.30639648 C202.90668837 315.31401659 201.37905442 315.32244383 199.85142517 315.33161926 C195.69843247 315.35358756 191.54551341 315.36236642 187.39246917 315.36744571 C184.79783932 315.37108691 182.20322882 315.37732578 179.60860634 315.3844471 C170.55668921 315.40895092 161.50482946 315.42199524 152.45288086 315.42553711 C144.01572227 315.42917182 135.57892759 315.45906003 127.14188021 315.50094169 C119.89846111 315.53563736 112.65516262 315.55108543 105.41166097 315.55178314 C101.08537138 315.55257629 96.75945225 315.56133181 92.43324852 315.58978081 C88.36275199 315.6159489 84.29293335 315.61817415 80.22239113 315.60212517 C78.73005318 315.60030957 77.23767637 315.60701163 75.74542236 315.62294388 C63.06793779 315.75002264 63.06793779 315.75002264 59.12788391 312.65003967 C55.92195426 308.65741549 55.87343023 305.74609201 55.8581543 300.77197266 C55.84760262 298.84449692 55.84760262 298.84449692 55.83683777 296.87808228 C55.83502188 296.19162251 55.83320599 295.50516273 55.83133507 294.79790115 C55.82415675 292.64547296 55.80848046 290.49327104 55.78999329 288.34091187 C55.73758605 282.22177216 55.68955003 276.10275779 55.67407227 269.98339844 C55.66397971 266.23846665 55.63462591 262.49410673 55.59275246 258.74940109 C55.58045734 257.32454126 55.5753185 255.89960061 55.57755089 254.47468948 C55.57990868 252.47867033 55.55551824 250.4826742 55.5300293 248.48681641 C55.52416306 247.35225006 55.51829681 246.21768372 55.51225281 245.04873657 C54.88929163 241.34110531 53.59210549 239.67289785 51 237 C48.72740993 235.86370496 47.44872702 235.86441376 44.92431641 235.84228516 C44.08228668 235.83202301 43.24025696 235.82176086 42.37271118 235.81118774 C41.00099258 235.80023575 41.00099258 235.80023575 39.6015625 235.7890625 C37.65754417 235.76095916 35.71353388 235.73229454 33.76953125 235.703125 C30.71110562 235.66213126 27.65282461 235.62524207 24.59423828 235.59863281 C7.8894368 235.44075788 -6.00178274 235.28712563 -18.8125 223.3046875 C-25.51884415 216.09536754 -28.0991699 207.51136063 -28.15771484 197.8203125 C-28.16797699 196.59554199 -28.17823914 195.37077148 -28.18881226 194.10888672 C-28.19611359 192.7942041 -28.20341492 191.47952148 -28.2109375 190.125 C-28.22391195 188.75406091 -28.23772923 187.38312956 -28.25234985 186.01220703 C-28.31374298 180.20547306 -28.36803268 174.39876543 -28.40136719 168.59179688 C-28.42234239 165.03265641 -28.45765923 161.47389913 -28.50212479 157.91497803 C-28.52310207 155.90710581 -28.52832642 153.89908893 -28.53329468 151.89111328 C-28.54986115 150.66634277 -28.56642761 149.44157227 -28.58349609 148.1796875 C-28.59158295 147.10444824 -28.5996698 146.02920898 -28.60800171 144.92138672 C-29.05252 141.60859209 -30.20073882 139.77760819 -32 137 C-32.53679059 132.73486628 -32.47318619 128.48645598 -32.44604492 124.18994141 C-32.43755098 122.13732017 -32.46629435 120.08750189 -32.49804688 118.03515625 C-32.49193359 105.62518191 -32.49193359 105.62518191 -28 100 C-23.93548387 97 -23.93548387 97 -21 97 C-21.01332367 95.36627945 -21.01332367 95.36627945 -21.0269165 93.69955444 C-21.10804371 83.429613 -21.16798534 73.15973667 -21.20724869 62.88954735 C-21.22811311 57.60965991 -21.25641012 52.3300314 -21.30175781 47.05029297 C-21.345256 41.95392948 -21.36914573 36.85781487 -21.37950897 31.76128006 C-21.38689318 29.81802071 -21.40131288 27.8747748 -21.42292023 25.93162155 C-21.45200697 23.20720865 -21.4559538 20.48382083 -21.45410156 17.75927734 C-21.47567322 16.55733734 -21.47567322 16.55733734 -21.49768066 15.33111572 C-21.4592407 10.09715595 -20.43974097 7.16607794 -17 3 C-11.77740143 -1.05630398 -6.34659858 -0.77397544 0 0 Z " fill="#030201" transform="translate(267,0)"/>
<path d="M0 0 C0.33 0 0.66 0 1 0 C1.00410889 0.9787207 1.00821777 1.95744141 1.01245117 2.96582031 C1.03425708 6.60421088 1.08855952 10.24152217 1.15258789 13.87939453 C1.17575561 15.45253133 1.19016079 17.02582296 1.19555664 18.59912109 C1.20485626 20.86393572 1.24585978 23.12631967 1.29296875 25.390625 C1.2890361 26.09181458 1.28510345 26.79300415 1.28105164 27.51544189 C1.38105862 30.87758396 1.81159471 32.75278441 3.86303711 35.44458008 C8.51886506 37.75310836 12.7676883 37.55255654 17.8984375 37.49609375 C18.9655899 37.49754898 20.03274231 37.49900421 21.13223267 37.50050354 C23.3933586 37.49884451 25.65449583 37.48728287 27.91552734 37.46655273 C31.3283056 37.43789214 34.73949982 37.44588657 38.15234375 37.45898438 C49.83604917 37.44684532 60.66305078 36.89851898 72 34 C73.97696861 33.59333079 75.95581587 33.19553098 77.9375 32.8125 C78.73027344 32.65394531 79.52304687 32.49539062 80.33984375 32.33203125 C80.88769531 32.22246094 81.43554688 32.11289063 82 32 C86.14255397 43.91232026 89.33634691 56.3142995 92.0625 68.625 C92.32160156 69.77226562 92.58070313 70.91953125 92.84765625 72.1015625 C93 75 93 75 91.53378296 76.89381409 C89.72902887 79.37209671 89.62092515 80.57021567 89.61181641 83.59741211 C89.59763168 84.95418312 89.59763168 84.95418312 89.5831604 86.33836365 C89.58923309 87.30822708 89.59530579 88.27809052 89.6015625 89.27734375 C89.59869232 90.28084366 89.59582214 91.28434357 89.59286499 92.31825256 C89.59082495 94.43898076 89.59635061 96.5597278 89.60888672 98.68041992 C89.62492402 101.92214192 89.60904424 105.16261394 89.58984375 108.40429688 C89.59182652 110.46614858 89.5956709 112.52799951 89.6015625 114.58984375 C89.59548981 115.55768295 89.58941711 116.52552216 89.5831604 117.52268982 C89.62837607 124.27937849 89.62837607 124.27937849 93 130 C95.80202511 131.67626244 97.88881292 132.2534028 101.13842773 132.2746582 C101.94283798 132.28419022 102.74724823 132.29372223 103.57603455 132.30354309 C104.43652908 132.30263168 105.29702362 132.30172028 106.18359375 132.30078125 C107.07611343 132.30506638 107.96863312 132.3093515 108.88819885 132.31376648 C110.77352043 132.31950264 112.65886414 132.3200153 114.54418945 132.31567383 C117.42372517 132.31251511 120.30223197 132.33597732 123.18164062 132.36132812 C125.01562371 132.36360136 126.84960954 132.3643045 128.68359375 132.36328125 C129.97129921 132.37709587 129.97129921 132.37709587 131.28501892 132.39118958 C136.00456692 132.35478734 139.19307515 132.10259598 143 129 C145.1371427 125.79428596 145.24918639 124.98147785 145.24291992 121.30078125 C145.24599655 120.34969482 145.24907318 119.3986084 145.25224304 118.41870117 C145.24505753 117.39365479 145.23787201 116.3686084 145.23046875 115.3125 C145.23001053 114.25844971 145.22955231 113.20439941 145.2290802 112.1184082 C145.22605827 109.88914871 145.21817373 107.65989132 145.20581055 105.43066406 C145.18757257 102.01359598 145.18530076 98.59679914 145.18554688 95.1796875 C145.18063091 93.01562265 145.17480225 90.85155964 145.16796875 88.6875 C145.16629951 87.14993042 145.16629951 87.14993042 145.16459656 85.58129883 C145.15821671 84.6302124 145.15183685 83.67912598 145.14526367 82.69921875 C145.14145187 81.86221436 145.13764008 81.02520996 145.13371277 80.1628418 C145.08168806 77.81658626 145.08168806 77.81658626 144 75 C143.34 75 142.68 75 142 75 C143.57703554 67.81656539 145.23656422 60.65506989 146.9375 53.5 C147.31551758 51.88544922 147.31551758 51.88544922 147.70117188 50.23828125 C149.1793101 44.03085677 150.8816854 38.01980746 153 32 C153.62753174 32.1858667 154.25506348 32.3717334 154.90161133 32.56323242 C157.87105781 33.44089467 160.84168865 34.31446898 163.8125 35.1875 C164.89515137 35.50702637 165.97780273 35.82655273 167.09326172 36.15576172 C172.24666362 37.66416677 177.39611085 39.12979435 182.61328125 40.40234375 C183.46365967 40.61157471 184.31403809 40.82080566 185.19018555 41.03637695 C186.76767985 41.41774051 188.34851151 41.78565277 189.93286133 42.13745117 C195.5941434 43.51214277 199.8311394 45.66369853 203.12545776 50.73126221 C204.3134298 53.8130997 204.41701753 56.60348052 204.59423828 59.90136719 C204.63354462 60.58826126 204.67285095 61.27515533 204.71334839 61.98286438 C204.84101131 64.25381805 204.95587303 66.52521953 205.0703125 68.796875 C205.15648402 70.38954138 205.24331741 71.98217207 205.33078003 73.57476807 C205.51263537 76.92018514 205.68853204 80.26584414 205.85986328 83.61181641 C206.07729489 87.8547554 206.30604854 92.09698108 206.53901863 96.33909225 C206.71928652 99.63535249 206.89494039 102.93184615 207.06914902 106.2284317 C207.15186479 107.7894346 207.23556259 109.35038585 207.32034683 110.91127777 C207.87928898 121.29052517 208.07562765 131.60450259 208 142 C199.75 142 191.5 142 183 142 C182.97494385 139.884729 182.9498877 137.76945801 182.92407227 135.59008789 C182.84075889 128.61707011 182.75205264 121.64412855 182.66066074 114.6712122 C182.60539313 110.44172386 182.55196715 106.21222867 182.50268555 101.98266602 C182.45509841 97.90425337 182.40275792 93.82592738 182.34705925 89.74761772 C182.32661 88.18824852 182.30790125 86.62885554 182.29092598 85.06944466 C182.26693856 82.8926441 182.23687681 80.71600876 182.20532227 78.53930664 C182.18977798 77.29798477 182.1742337 76.0566629 182.15821838 74.77772522 C182.31448486 72.09256784 182.31448486 72.09256784 181 71 C178 70.83333333 178 70.83333333 175 71 C173.12875503 72.87124497 173.8259501 76.04198478 173.79467773 78.53930664 C173.78464501 79.23328017 173.77461229 79.9272537 173.76427555 80.64225674 C173.73278618 82.8981888 173.70807668 85.15413837 173.68359375 87.41015625 C173.66519991 88.79911893 173.64636376 90.18807582 173.6270752 91.57702637 C173.55851297 96.73878237 173.49853366 101.90064949 173.4375 107.0625 C173.293125 118.591875 173.14875 130.12125 173 142 C136.04 142 99.08 142 61 142 C60.75 110.5 60.75 110.5 60.70214844 100.59570312 C60.67277059 97.99086751 60.64194336 95.38604767 60.609375 92.78125 C60.60892181 91.78007141 60.60892181 91.78007141 60.60845947 90.75866699 C60.59741309 81.74966685 60.29219607 75.07615882 54.2890625 67.9765625 C53.73992187 67.53054687 53.19078125 67.08453125 52.625 66.625 C52.08101563 66.16351563 51.53703125 65.70203125 50.9765625 65.2265625 C45.08654875 61.57149468 39.17670294 61.73307044 32.484375 61.76171875 C30.40754557 61.74629613 28.33072253 61.72999229 26.25390625 61.71289062 C23.00425018 61.69647327 19.75506505 61.68748895 16.50537109 61.69458008 C13.35200755 61.69721627 10.2000497 61.66896393 7.046875 61.63671875 C6.08924255 61.64692551 5.13161011 61.65713226 4.1449585 61.66764832 C-3.5211789 61.55786019 -10.20139173 59.53125161 -15.91973877 54.21537781 C-21.73706098 47.8801766 -23.44758819 42.09195347 -23.29296875 33.6640625 C-23.28872391 32.78471039 -23.28447906 31.90535828 -23.28010559 30.99935913 C-23.26339461 28.20758658 -23.22575692 25.41655212 -23.1875 22.625 C-23.17244334 20.72527089 -23.15875666 18.82553039 -23.14648438 16.92578125 C-23.11351598 12.28357242 -23.06178653 7.64191109 -23 3 C-18.25 4.875 -18.25 4.875 -16 6 C-10.3726568 6.44136025 -6.88932685 5.58846715 -2 3 C-1.34 2.01 -0.68 1.02 0 0 Z " fill="#F9A064" transform="translate(273,163)"/>
<path d="M0 0 C4.88477291 0.55585347 8.08558511 2.77824979 12.109375 5.4296875 C19.13811574 9.24800342 25.6218749 10.47350213 33.5625 10.3125 C34.36107422 10.31572266 35.15964844 10.31894531 35.98242188 10.32226562 C44.30996546 10.24760957 50.94758081 8.35528021 58.25 4.4375 C65.41141479 0.64843248 65.41141479 0.64843248 69 0 C72.96445532 4.57437152 75.10091129 7.30405088 75.17700195 13.54052734 C75.19625481 14.91874161 75.19625481 14.91874161 75.21589661 16.32479858 C75.22328354 17.31847443 75.23067047 18.31215027 75.23828125 19.3359375 C75.246353 20.36627106 75.25442474 21.39660461 75.26274109 22.4581604 C75.27658352 24.64542968 75.28730496 26.83272058 75.29516602 29.02001953 C75.30662984 31.23883469 75.32699156 33.45762351 75.35668945 35.67626953 C75.58926899 53.05346895 75.22466597 67.59556488 63.0703125 81.15234375 C54.79535857 89.29089734 45.24222082 92.4478482 33.8125 92.5625 C22.46021679 92.3654691 14.31534087 88.80529208 6 81 C-1.42787054 73.23449898 -6.02300317 63.09371956 -6.19287109 52.26660156 C-6.20893402 51.33172913 -6.22499695 50.39685669 -6.24154663 49.43365479 C-6.28627426 45.1657405 -6.32705717 40.89797695 -6.35009766 36.62988281 C-6.36664723 34.38368359 -6.39392384 32.13753682 -6.43212891 29.89160156 C-6.48708615 26.64100014 -6.50880068 23.39162935 -6.5234375 20.140625 C-6.54610687 19.14452209 -6.56877625 18.14841919 -6.59213257 17.12213135 C-6.57119284 10.16081862 -5.02402778 5.02402778 0 0 Z " fill="#F6CDB2" transform="translate(356,73)"/>
<path d="M0 0 C1.31188797 -0.00953201 2.62377594 -0.01906403 3.97541809 -0.02888489 C5.39596585 -0.02862338 6.81651362 -0.02768595 8.23706055 -0.02612305 C9.70908223 -0.03001539 11.1811028 -0.03435117 12.65312195 -0.03910828 C15.73379155 -0.04655316 18.81434652 -0.04629244 21.89501953 -0.04101562 C25.82213824 -0.03523209 29.74878361 -0.052133 33.67582417 -0.0753603 C36.71551712 -0.09017191 39.75509813 -0.09095916 42.79482079 -0.08785057 C44.24154788 -0.08836035 45.68828181 -0.09353292 47.13497353 -0.10366249 C58.46099917 -0.17322359 67.1794765 0.49143412 75.6550293 8.51293945 C81.79519216 15.04410325 82.60872855 22.26211507 82.5065918 30.8293457 C82.5037619 31.73089386 82.50093201 32.63244202 82.49801636 33.56130981 C82.48687369 36.42423096 82.4617801 39.28683254 82.4362793 42.1496582 C82.42624185 44.09757033 82.41711734 46.0454874 82.40893555 47.9934082 C82.38695372 52.7539469 82.35246479 57.51424848 82.3112793 62.2746582 C77.3612793 62.2746582 72.4112793 62.2746582 67.3112793 62.2746582 C66.9812793 50.3946582 66.6512793 38.5146582 66.3112793 26.2746582 C64.3312793 25.9446582 62.3512793 25.6146582 60.3112793 25.2746582 C57.40621724 28.17972026 57.95662082 31.2278841 57.8972168 35.1262207 C57.87957275 35.81224365 57.86192871 36.4982666 57.84375 37.20507812 C57.78064612 39.76969897 57.7344848 42.33471407 57.6862793 44.8996582 C57.5625293 50.6334082 57.4387793 56.3671582 57.3112793 62.2746582 C37.5112793 62.2746582 17.7112793 62.2746582 -2.6887207 62.2746582 C-3.0187207 50.3946582 -3.3487207 38.5146582 -3.6887207 26.2746582 C-5.6687207 25.9446582 -7.6487207 25.6146582 -9.6887207 25.2746582 C-12.59369225 28.17962975 -12.0431724 31.22865126 -12.1027832 35.1262207 C-12.12214935 35.90025238 -12.1415155 36.67428406 -12.16146851 37.47177124 C-12.221319 39.94762096 -12.26767081 42.42351704 -12.3137207 44.8996582 C-12.35189552 46.57676198 -12.39094696 48.25384604 -12.4309082 49.9309082 C-12.52702479 54.04533174 -12.61103509 58.15984706 -12.6887207 62.2746582 C-17.3087207 62.2746582 -21.9287207 62.2746582 -26.6887207 62.2746582 C-26.81313885 56.33397903 -26.90344427 50.39407289 -26.96337891 44.45239258 C-26.9883865 42.43500542 -27.0224041 40.41770761 -27.06591797 38.40063477 C-27.54453985 15.62949498 -27.54453985 15.62949498 -19.44262695 6.8371582 C-18.35788086 6.0637207 -18.35788086 6.0637207 -17.2512207 5.2746582 C-16.53063477 4.7384082 -15.81004883 4.2021582 -15.06762695 3.6496582 C-10.14404265 0.80384264 -5.63852885 0.02259471 0 0 Z " fill="#F2C54B" transform="translate(294.688720703125,439.725341796875)"/>
<path d="M0 0 C0.65795563 -0.00846954 1.31591125 -0.01693909 1.99380493 -0.02566528 C4.1480088 -0.04887791 6.30149158 -0.05006113 8.45581055 -0.04882812 C9.96884947 -0.05594044 11.48188572 -0.06364099 12.99491882 -0.07189941 C16.15961204 -0.08530898 19.32405595 -0.08692953 22.48876953 -0.08105469 C26.52031103 -0.07516893 30.55064395 -0.10571835 34.5819521 -0.14617157 C37.70578824 -0.17217801 40.82933859 -0.17491426 43.95326805 -0.17127991 C45.43826516 -0.17295983 46.9232771 -0.18249239 48.40816689 -0.20042419 C58.29573135 -0.30667989 66.63247416 0.39034417 74.16548157 7.40979004 C80.8587629 14.41166769 82.48817101 20.87626395 82.32299805 30.29101562 C82.3187532 31.21334488 82.31450836 32.13567413 82.31013489 33.08595276 C82.29344293 36.01008223 82.25580867 38.93350336 82.2175293 41.85742188 C82.20247019 43.84894833 82.18878394 45.84048566 82.17651367 47.83203125 C82.14357052 52.69493126 82.09185429 57.55730678 82.0300293 62.41992188 C77.4100293 62.41992188 72.7900293 62.41992188 68.0300293 62.41992188 C68.00030029 60.84525146 68.00030029 60.84525146 67.9699707 59.23876953 C67.89400731 55.35098926 67.80527632 51.46358784 67.71264648 47.57617188 C67.67431826 45.89232858 67.63947217 44.20840233 67.6081543 42.52441406 C67.56258642 40.10646881 67.50458007 37.6890966 67.4440918 35.27148438 C67.43254059 34.51622467 67.42098938 33.76096497 67.40908813 32.9828186 C67.42672863 28.74166989 67.42672863 28.74166989 65.0300293 25.41992188 C62.48812928 25.16984457 62.48812928 25.16984457 60.0300293 25.41992188 C57.99649731 27.45345386 58.77331654 31.59486513 58.71362305 34.39257812 C58.69497192 35.09926636 58.6763208 35.80595459 58.65710449 36.53405762 C58.58861319 39.18338067 58.52858831 41.83291711 58.4675293 44.48242188 C58.3231543 50.40179688 58.1787793 56.32117188 58.0300293 62.41992188 C37.9000293 62.41992188 17.7700293 62.41992188 -2.9699707 62.41992188 C-3.4074707 44.48242187 -3.4074707 44.48242187 -3.53808594 38.81469727 C-3.57619363 37.34064754 -3.61466145 35.86660707 -3.65356445 34.39257812 C-3.67004028 33.6203894 -3.68651611 32.84820068 -3.70349121 32.0526123 C-3.47392016 28.43550448 -3.47392016 28.43550448 -4.9699707 25.41992188 C-7.42807068 25.16984457 -7.42807068 25.16984457 -9.9699707 25.41992188 C-12.87494225 28.32489343 -12.3244224 31.37391493 -12.3840332 35.27148438 C-12.40339935 36.04551605 -12.4227655 36.81954773 -12.44271851 37.61703491 C-12.502569 40.09288463 -12.54892081 42.56878071 -12.5949707 45.04492188 C-12.63314552 46.72202565 -12.67219696 48.39910972 -12.7121582 50.07617188 C-12.80827479 54.19059541 -12.89228509 58.30511073 -12.9699707 62.41992188 C-17.5899707 62.41992188 -22.2099707 62.41992188 -26.9699707 62.41992188 C-27.09442158 56.6216599 -27.184709 50.82419091 -27.24462891 45.02490234 C-27.26963117 43.05601441 -27.3036447 41.08721795 -27.34716797 39.11865234 C-27.83137649 16.63998388 -27.83137649 16.63998388 -19.97900391 8.30712891 C-14.11633195 2.62906616 -8.13930305 0.05806966 0 0 Z " fill="#508DD7" transform="translate(175.969970703125,439.580078125)"/>
<path d="M0 0 C1.49061825 -0.00456856 2.98123439 -0.00987612 4.47184753 -0.0158844 C7.58947324 -0.0247936 10.70684251 -0.02241896 13.82446289 -0.01245117 C17.79532612 -0.00098495 21.7652969 -0.02114713 25.73604298 -0.05036831 C28.81354789 -0.06882963 31.89084305 -0.06841792 34.96838951 -0.06273079 C36.43103979 -0.06257867 37.89370531 -0.06853122 39.35630226 -0.08102226 C49.53896452 -0.15572339 57.42639575 0.99088654 66.10546875 6.55859375 C75.70698577 16.82998405 74.3908358 28.33048496 74.10546875 41.55859375 C74.08035421 43.5846079 74.05754662 45.61065202 74.03710938 47.63671875 C73.98236538 52.56975821 73.89626698 57.50134187 73.79296875 62.43359375 C69.17296875 62.43359375 64.55296875 62.43359375 59.79296875 62.43359375 C59.76323975 60.85892334 59.76323975 60.85892334 59.73291016 59.25244141 C59.65694677 55.36466114 59.56821577 51.47725972 59.47558594 47.58984375 C59.43725771 45.90600046 59.40241163 44.2220742 59.37109375 42.53808594 C59.32552588 40.12014069 59.26751952 37.70276847 59.20703125 35.28515625 C59.19548004 34.52989655 59.18392883 33.77463684 59.17202759 32.99649048 C59.18966809 28.75534177 59.18966809 28.75534177 56.79296875 25.43359375 C54.25106873 25.18351645 54.25106873 25.18351645 51.79296875 25.43359375 C49.75943677 27.46712573 50.536256 31.60853701 50.4765625 34.40625 C50.45791138 35.11293823 50.43926025 35.81962646 50.42004395 36.54772949 C50.35155264 39.19705254 50.29152777 41.84658899 50.23046875 44.49609375 C50.08609375 50.41546875 49.94171875 56.33484375 49.79296875 62.43359375 C29.99296875 62.43359375 10.19296875 62.43359375 -10.20703125 62.43359375 C-10.58203125 45.05859375 -10.58203125 45.05859375 -10.68505859 39.57666016 C-10.72025732 38.14613967 -10.75617777 36.71563667 -10.79296875 35.28515625 C-10.80432861 34.53967529 -10.81568848 33.79419434 -10.82739258 33.02612305 C-10.80661417 28.76917298 -10.80661417 28.76917298 -13.20703125 25.43359375 C-15.74893127 25.18351645 -15.74893127 25.18351645 -18.20703125 25.43359375 C-20.238262 27.4648245 -19.46372743 31.61128241 -19.5234375 34.40625 C-19.5442186 35.20389267 -19.56499969 36.00153534 -19.58641052 36.823349 C-19.65199283 39.38083986 -19.71083092 41.93843655 -19.76953125 44.49609375 C-19.81270824 46.22592257 -19.85632226 47.95574054 -19.90039062 49.68554688 C-20.00768297 53.93478635 -20.10892551 58.18413265 -20.20703125 62.43359375 C-24.82703125 62.43359375 -29.44703125 62.43359375 -34.20703125 62.43359375 C-34.30632815 56.31384957 -34.37870221 50.19458023 -34.42675781 44.07421875 C-34.44680284 41.9947085 -34.47404638 39.91525412 -34.50878906 37.8359375 C-34.55762073 34.83709888 -34.58007153 31.83900912 -34.59765625 28.83984375 C-34.61830139 27.91868774 -34.63894653 26.99753174 -34.66021729 26.04846191 C-34.66266724 18.90994127 -32.99330546 13.67945959 -28.3125 8.2265625 C-27.67957031 7.69675781 -27.04664063 7.16695313 -26.39453125 6.62109375 C-25.76933594 6.07839844 -25.14414062 5.53570312 -24.5 4.9765625 C-16.66976298 -0.2925067 -9.13200007 -0.02454531 0 0 Z " fill="#6FD4F7" transform="translate(65.20703125,439.56640625)"/>
<path d="M0 0 C20.46 0 40.92 0 62 0 C58.535 5.445 58.535 5.445 55 11 C50.60402961 19.36652428 50.41686521 30.83176417 53.125 39.875 C53.70061326 41.27139513 54.32860929 42.647046 55 44 C55.60328125 45.24523437 55.60328125 45.24523437 56.21875 46.515625 C59.71269229 52.99882903 63.98098112 56.87423615 70 61 C71.33718331 61.994846 72.67173228 62.99328125 74 64 C72.13408203 64.03867187 72.13408203 64.03867187 70.23046875 64.078125 C56.4159735 64.49203206 45.36086674 65.97479849 35 76 C33.1181808 78.73891911 33.1181808 78.73891911 32 81 C31.34 81 30.68 81 30 81 C26 76.52941176 26 76.52941176 26 74 C25.42765625 73.7215625 24.8553125 73.443125 24.265625 73.15625 C21.30058041 71.64305483 18.4650849 69.92800702 15.609375 68.21875 C9.28178001 65.26334635 2.87548869 64.6609822 -4 64.375 C-4.77472656 64.33632813 -5.54945313 64.29765625 -6.34765625 64.2578125 C-8.23143415 64.16478643 -10.11568256 64.08136825 -12 64 C-11.25621094 63.40574219 -10.51242188 62.81148438 -9.74609375 62.19921875 C-8.83988281 61.47347656 -7.93367187 60.74773437 -7 60 C-6.33097656 59.47019531 -5.66195312 58.94039063 -4.97265625 58.39453125 C4.03570094 50.93362192 9.11566649 42.36186463 10.3515625 30.67578125 C10.87142893 18.24002898 6.4960094 10.39361504 0 0 Z " fill="#85CE46" transform="translate(232,366)"/>
<path d="M0 0 C20.46 0 40.92 0 62 0 C59.36 4.62 56.72 9.24 54 14 C50.20321653 24.28295524 51.05182838 34.94611461 55.3203125 44.91796875 C59.78088763 53.10260544 65.98612339 58.48308773 74 63 C74 63.33 74 63.66 74 64 C72.76765625 64.01417969 71.5353125 64.02835937 70.265625 64.04296875 C57.10151247 64.35465572 46.6219088 65.94131934 36.62109375 75.25390625 C34.92239676 77.01041054 34.92239676 77.01041054 33.41015625 79.21484375 C32.94480469 79.80394531 32.47945312 80.39304687 32 81 C31.34 81 30.68 81 30 81 C29.505 80.154375 29.01 79.30875 28.5 78.4375 C24.48328796 72.13618967 16.93449009 67.58474934 9.84765625 65.48828125 C2.97878727 64.31049164 -4.04621608 64.21754017 -11 64 C-8.75691912 61.61450129 -6.36151133 59.81715909 -3.6875 57.9375 C1.38322298 54.02933302 4.1700198 49.67810131 7 44 C7.3403125 43.39929688 7.680625 42.79859375 8.03125 42.1796875 C11.77335879 34.45292582 11.24311587 23.61436427 9.05078125 15.4765625 C6.67370341 9.52261991 3.81730435 5.34422609 0 0 Z " fill="#F68DA4" transform="translate(113,366)"/>
<path d="M0 0 C5.30358433 5.69982914 6.31735137 13.00224202 7.359375 20.4609375 C7.97425781 20.63109375 8.58914063 20.80125 9.22265625 20.9765625 C15.72007769 22.92475266 15.72007769 22.92475266 18.296875 25.0859375 C22.09029393 33.56534453 21.57472396 42.38038985 21.359375 51.4609375 C20.369375 51.4609375 19.379375 51.4609375 18.359375 51.4609375 C18.05 49.511875 18.05 49.511875 17.734375 47.5234375 C16.19451319 40.64827982 12.69708531 35.50021671 7.421875 30.8984375 C3.44817087 29.03322944 1.73284791 28.68499876 -2.640625 29.4609375 C-5.73807327 31.08753045 -8.69887231 32.88492047 -11.6875 34.703125 C-21.54025817 40.567862 -33.57256218 41.27779134 -44.7109375 38.76953125 C-49.02550941 37.15325745 -52.52949818 34.87869642 -56.265625 32.2109375 C-60.72837259 29.10983953 -63.25497038 28.5780433 -68.640625 29.4609375 C-74.99592931 32.45166894 -78.14718764 37.60786912 -80.6171875 43.98046875 C-81.34149217 46.12969055 -82.0196281 48.27987522 -82.640625 50.4609375 C-83.300625 50.4609375 -83.960625 50.4609375 -84.640625 50.4609375 C-85.68119274 27.67730668 -85.68119274 27.67730668 -79.640625 17.4609375 C-79.18300781 16.64496094 -78.72539062 15.82898438 -78.25390625 14.98828125 C-71.62711038 4.11307379 -61.79700315 -1.5858911 -50.015625 -5.8515625 C-34.41406304 -9.02965846 -13.11120013 -10.70964367 0 0 Z " fill="#595B5E" transform="translate(422.640625,34.5390625)"/>
<path d="M0 0 C2.0546875 1.1328125 2.0546875 1.1328125 3.9375 2.375 C4.55882812 2.76429688 5.18015625 3.15359375 5.8203125 3.5546875 C12.35135615 8.33281034 16.11023196 15.76117621 17.51953125 23.62109375 C18.00680689 33.0606427 15.02744061 40.70508623 8.81640625 47.796875 C0.97063707 55.24831609 -5.83359204 57.04974854 -16.58984375 56.78515625 C-24.20697262 55.88549536 -30.38754384 52.06802072 -35.5234375 46.4453125 C-41.03945925 39.02528325 -43.28922767 31.54819695 -42.0625 22.375 C-40.31634723 13.54404705 -35.77804032 6.99323485 -28.375 1.9375 C-20.57436461 -3.00694419 -8.62683564 -3.60323638 0 0 Z " fill="#F6CDB2" transform="translate(216.0625,366.625)"/>
<path d="M0 0 C8.53261729 -0.46243206 15.30665395 2.44817375 21.859375 7.81640625 C28.3804189 14.10620746 31.29348116 20.08971492 31.609375 29.19140625 C31.25244357 38.31298718 28.60893301 45.77848592 22.046875 52.19140625 C13.69370496 58.40007715 5.42484582 60.50626228 -4.953125 59.19140625 C-13.93576545 56.26882467 -20.05867457 51.38330225 -25.0390625 43.46484375 C-28.43375853 36.3951557 -28.4033067 25.79331619 -26.07421875 18.40234375 C-21.87766866 10.34164358 -15.39436445 4.46711111 -6.953125 1.19140625 C-4.59357672 0.4653914 -2.44448839 0.23955986 0 0 Z " fill="#F6CEB2" transform="translate(82.953125,363.80859375)"/>
<path d="M0 0 C6.52718975 4.3773174 10.52855642 10.05711283 14 17 C14.62509061 25.86398974 15.12775338 34.34663675 10 42 C9.53722656 42.70640625 9.07445312 43.4128125 8.59765625 44.140625 C3.33233261 51.09239704 -3.78543591 54.24979149 -12.3125 55.4765625 C-20.0381286 55.82275812 -25.54279076 54.17961949 -32 50 C-32.928125 49.401875 -33.85625 48.80375 -34.8125 48.1875 C-41.07523784 41.92476216 -44.28205106 34.63651343 -44.4375 25.8125 C-44.40440502 17.57184948 -42.47738601 11.93601763 -37.015625 5.75390625 C-25.99082918 -4.89948687 -13.64724033 -6.83369937 0 0 Z " fill="#F6CEB2" transform="translate(159,294)"/>
<path d="M0 0 C5.74977097 3.65548353 9.81677779 9.51673961 11.95703125 15.9375 C12.56517906 24.81047619 13.09239192 33.27278259 7.95703125 40.9375 C7.49425781 41.64390625 7.03148437 42.3503125 6.5546875 43.078125 C1.28936386 50.02989704 -5.82840466 53.18729149 -14.35546875 54.4140625 C-22.08109735 54.76025812 -27.58575951 53.11711949 -34.04296875 48.9375 C-34.97109375 48.339375 -35.89921875 47.74125 -36.85546875 47.125 C-43.23216112 40.74830763 -46.30738168 33.18802783 -46.48046875 24.1875 C-46.30481361 14.91681219 -43.49930251 8.97073682 -36.85546875 2.5625 C-24.93648607 -7.20197337 -13.28960076 -6.91160881 0 0 Z " fill="#F6CEB2" transform="translate(339.04296875,369.0625)"/>
<path d="M0 0 C7.05710592 6.95086992 10.11108772 12.38027863 10.5 22.3125 C10.36069487 29.35437435 8.89702506 34.18270173 5 40 C4.401875 40.928125 3.80375 41.85625 3.1875 42.8125 C-2.95141807 48.95141807 -10.43320067 52.2385925 -19.125 52.5 C-27.39862731 52.34888352 -33.94826879 49.4975868 -40.19921875 44.1015625 C-47.21774014 36.65633855 -48.60960044 29.56844038 -48.33984375 19.46875 C-47.51837048 11.08405732 -44.31506246 5.37212462 -38.15234375 -0.30859375 C-26.51227037 -9.45587465 -11.55046595 -9.29059218 0 0 Z " fill="#F6CEB2" transform="translate(282,297)"/>
<path d="M0 0 C1.79236067 0.47656412 3.58386897 0.95633498 5.375 1.4375 C6.37273437 1.70433594 7.37046875 1.97117188 8.3984375 2.24609375 C11 3 11 3 13 4 C16.03566911 4.23910817 19.08095166 4.18520087 22.125 4.1875 C22.95515625 4.19974609 23.7853125 4.21199219 24.640625 4.22460938 C30.11769165 4.23748649 34.74069388 3.53255049 40 2 C41.1446875 1.68675781 41.1446875 1.68675781 42.3125 1.3671875 C42.869375 1.20476562 43.42625 1.04234375 44 0.875 C45.485 0.441875 45.485 0.441875 47 0 C46.00969507 8.09318168 44.07961393 15.83308227 41.9375 23.6875 C41.6679248 24.68023926 41.39834961 25.67297852 41.12060547 26.69580078 C39.13198589 33.86801411 39.13198589 33.86801411 38 35 C35.85441173 35.08775605 33.70595579 35.10695219 31.55859375 35.09765625 C30.25341797 35.09443359 28.94824219 35.09121094 27.60351562 35.08789062 C26.2148431 35.07953401 24.82617123 35.07106905 23.4375 35.0625 C22.04492344 35.05748666 20.65234519 35.05292347 19.25976562 35.04882812 C15.8398013 35.03699434 12.41992156 35.0205088 9 35 C6.4209511 26.956327 3.89873787 18.90368511 1.6875 10.75 C1.36136719 9.54859375 1.03523438 8.3471875 0.69921875 7.109375 C0 4 0 4 0 0 Z " fill="#F89F63" transform="translate(367,200)"/>
<path d="M0 0 C1.00224609 -0.00515625 2.00449219 -0.0103125 3.03710938 -0.015625 C4.07802734 -0.00015625 5.11894531 0.0153125 6.19140625 0.03125 C7.74698242 0.00804688 7.74698242 0.00804688 9.33398438 -0.015625 C13.5910725 0.00624829 16.96906762 0.21538857 20.9375 1.8125 C23.98652645 6.3762041 23.47357683 11.17920629 23.37890625 16.53125 C23.39824219 17.624375 23.41757812 18.7175 23.4375 19.84375 C23.39009413 27.58038855 23.39009413 27.58038855 20.9375 31.24609375 C16.04393368 33.2215334 11.41994505 33.14899249 6.19140625 33.09375 C5.15048828 33.11759766 4.10957031 33.14144531 3.03710938 33.16601562 C-4.32729377 33.15180777 -4.32729377 33.15180777 -7.9296875 30.71875 C-9.94987297 25.82714363 -9.82424774 21.20832387 -9.74609375 15.96875 C-9.7615625 14.92783203 -9.77703125 13.88691406 -9.79296875 12.81445312 C-9.7878125 11.81220703 -9.78265625 10.80996094 -9.77734375 9.77734375 C-9.77283203 8.86654053 -9.76832031 7.9557373 -9.76367188 7.01733398 C-8.62954745 1.56979199 -5.21417413 0.02582873 0 0 Z " fill="#F7CFB3" transform="translate(254.24609375,105.46875)"/>
<path d="M0 0 C1.423125 0.4021875 1.423125 0.4021875 2.875 0.8125 C4.43379555 3.93009111 4.00452133 7.23764486 3.98852539 10.65869141 C3.98867142 11.46852982 3.98881744 12.27836823 3.9889679 13.11274719 C3.98826977 15.79654596 3.98048204 18.48027581 3.97265625 21.1640625 C3.97079171 23.02208417 3.96936798 24.88010633 3.96836853 26.73812866 C3.96454615 31.63392488 3.95471823 36.52969155 3.94366455 41.42547607 C3.93344444 46.41906331 3.92886962 51.41265532 3.92382812 56.40625 C3.91309573 66.20834634 3.89602264 76.01042071 3.875 85.8125 C0.575 85.8125 -2.725 85.8125 -6.125 85.8125 C-6.1944446 75.04249767 -6.24778307 64.27254841 -6.28043652 53.50236797 C-6.29610684 48.50157971 -6.31737004 43.50094438 -6.35131836 38.50024414 C-6.38386309 33.67622686 -6.40184271 28.85235687 -6.40963173 24.0282383 C-6.41518404 22.18578586 -6.42602608 20.34334167 -6.44219017 18.50095177 C-6.46389965 15.92452816 -6.46696967 13.34871683 -6.46557617 10.7722168 C-6.476362 10.00689133 -6.48714783 9.24156586 -6.4982605 8.45304871 C-6.46820074 3.33254002 -6.46820074 3.33254002 -4.79902649 0.80329895 C-3.125 -0.1875 -3.125 -0.1875 0 0 Z " fill="#D6A27F" transform="translate(262.125,10.1875)"/>
<path d="M0 0 C12.21 0 24.42 0 37 0 C37 6.6 37 13.2 37 20 C24.79 20 12.58 20 0 20 C0 13.4 0 6.8 0 0 Z " fill="#E8EFF6" transform="translate(372,266)"/>
<path d="M0 0 C0.79664063 0.16242188 1.59328125 0.32484375 2.4140625 0.4921875 C6.76557256 1.10841441 10.98714175 1.14569744 15.375 1.125 C16.59316406 1.13080078 16.59316406 1.13080078 17.8359375 1.13671875 C22.97776555 1.12847864 27.91095197 0.73703454 33 0 C33.18175781 0.67546875 33.36351562 1.3509375 33.55078125 2.046875 C33.80214844 2.93890625 34.05351562 3.8309375 34.3125 4.75 C34.55613281 5.63171875 34.79976563 6.5134375 35.05078125 7.421875 C36.02282983 10.06200695 37.28854605 11.79476522 39 14 C39 14.66 39 15.32 39 16 C37.79443396 16.63032133 36.58536811 17.2539497 35.375 17.875 C34.70210938 18.22304687 34.02921875 18.57109375 33.3359375 18.9296875 C27.5265165 21.59152923 22.56302139 22.38691511 16.25 22.375 C15.4552124 22.37483887 14.6604248 22.37467773 13.84155273 22.37451172 C6.15282898 22.22542941 0.38732615 20.25821744 -6 16 C-4.84355097 13.68710194 -3.67275225 11.39786415 -2.4375 9.125 C-1.00704743 6.01532051 -0.40265232 3.38227947 0 0 Z " fill="#F2CAAF" transform="translate(374,173)"/>
<path d="M0 0 C2 1.5625 2 1.5625 3 4 C3.1875 7.75 3.1875 7.75 3 11 C4.258125 10.896875 5.51625 10.79375 6.8125 10.6875 C9.015625 10.69140625 9.015625 10.69140625 11 11 C13.0625 13.125 13.0625 13.125 14 16 C13.875 19.1875 13.875 19.1875 13 22 C9.3558226 24.4294516 7.28758728 24.16179575 3 24 C2.96261719 24.62648438 2.92523438 25.25296875 2.88671875 25.8984375 C2.82097656 26.71570313 2.75523437 27.53296875 2.6875 28.375 C2.62949219 29.18710937 2.57148438 29.99921875 2.51171875 30.8359375 C2 33 2 33 -1 35 C-6.96764986 35.53282588 -6.96764986 35.53282588 -9.9375 34 C-11.67278693 30.73357754 -11.17982715 27.65648548 -11 24 C-12.258125 24.061875 -13.51625 24.12375 -14.8125 24.1875 C-17.37705844 24.16934383 -18.71463773 24.1515987 -21 22.9375 C-22.58433618 19.86784865 -22.36248449 17.38318857 -22 14 C-21 12.0625 -21 12.0625 -19 11 C-16.28117977 10.76404716 -13.74042978 10.86522477 -11 11 C-11.061875 9.741875 -11.12375 8.48375 -11.1875 7.1875 C-11.16521115 4.66886049 -11.13502197 3.27004394 -10 1 C-6.73582328 -0.63208836 -3.56124386 -0.65289471 0 0 Z " fill="#6FD6F9" transform="translate(437,392)"/>
<path d="M0 0 C4.58412383 1.52804128 8.44041711 3.10296276 12.7109375 5.2578125 C13.32393707 5.56572723 13.93693665 5.87364197 14.56851196 6.19088745 C16.50593658 7.16515063 18.4404876 8.14496917 20.375 9.125 C21.69642788 9.7907353 23.01804076 10.45610353 24.33984375 11.12109375 C27.56204525 12.74315823 30.78169593 14.37021374 34 16 C34 16.66 34 17.32 34 18 C29.48187768 20.28373583 24.9611797 22.56225804 20.43798828 24.8359375 C18.8988525 25.61054162 17.360437 26.38657862 15.82275391 27.1640625 C13.61547549 28.27979833 11.40567846 29.3903961 9.1953125 30.5 C8.50567413 30.84998047 7.81603577 31.19996094 7.10549927 31.56054688 C2.22774341 34 2.22774341 34 0 34 C0 22.78 0 11.56 0 0 Z " fill="#F7637B" transform="translate(276,26)"/>
<path d="M0 0 C2.75245998 1.37622999 2.93727784 2.94265672 4.125 5.75 C7.29457316 12.31420476 11.54230265 14.48725741 18 17.3125 C18.66 17.539375 19.32 17.76625 20 18 C18.62541393 20.74917214 17.03486983 21.01411102 14.25 22.25 C8.22613471 25.18448295 5.17124839 27.98821843 2.6875 34.375 C2.460625 35.24125 2.23375 36.1075 2 37 C-1 36 -1 36 -1.921875 34.36328125 C-2.19515625 33.68652344 -2.4684375 33.00976562 -2.75 32.3125 C-5.50081229 26.46439907 -9.46398113 23.01440755 -15.4375 20.625 C-16.7059375 20.315625 -16.7059375 20.315625 -18 20 C-18 19.34 -18 18.68 -18 18 C-17.33613281 17.70867188 -16.67226562 17.41734375 -15.98828125 17.1171875 C-7.31086639 13.08884016 -3.40367489 8.95703918 0 0 Z " fill="#F5C84B" transform="translate(177,31)"/>
<path d="M0 0 C12.21 0 24.42 0 37 0 C37 3.63 37 7.26 37 11 C24.79 11 12.58 11 0 11 C0 7.37 0 3.74 0 0 Z " fill="#6CCFF1" transform="translate(372,245)"/>
<path d="M0 0 C0.61875 0.515625 1.2375 1.03125 1.875 1.5625 C5.07543423 3.72749963 8.3054484 3.56444538 12 3 C14.36293002 1.84367254 16.14983755 0.85016245 18 -1 C20.4375 -1.1875 20.4375 -1.1875 23 -1 C25 1 25 1 25.5 3.8125 C25 7 25 7 22.375 9.75 C16.08981931 14.28524639 9.55478602 14.7216512 2 14 C-2.67376058 12.35552868 -5.97312624 9.94410823 -9 6 C-8.9375 2.75 -8.9375 2.75 -8 0 C-5.05854616 -1.47072692 -3.14695372 -0.75526889 0 0 Z " fill="#070505" transform="translate(383,133)"/>
<path d="M0 0 C0.66 0 1.32 0 2 0 C3.04296875 1.609375 3.04296875 1.609375 4.1875 3.75 C6.80940074 8.17740126 9.38987383 9.83052886 14 12 C14 12.66 14 13.32 14 14 C13.46890625 14.1959375 12.9378125 14.391875 12.390625 14.59375 C7.04092873 16.85858492 4.85858492 19.04092873 2.59375 24.390625 C2.3978125 24.92171875 2.201875 25.4528125 2 26 C1.34 26 0.68 26 0 26 C-0.1959375 25.46890625 -0.391875 24.9378125 -0.59375 24.390625 C-2.85858492 19.04092873 -5.04092873 16.85858492 -10.390625 14.59375 C-10.92171875 14.3978125 -11.4528125 14.201875 -12 14 C-11.67 13.01 -11.34 12.02 -11 11 C-10.0925 10.608125 -9.185 10.21625 -8.25 9.8125 C-4.35063355 7.63785333 -3.15385191 5.48462603 -1.078125 1.64453125 C-0.72234375 1.10183594 -0.3665625 0.55914062 0 0 Z " fill="#88D146" transform="translate(72,284)"/>
<path d="M0 0 C5.86024668 1.17204934 7.94979492 3.0711356 11.3125 7.875 C12.35640137 11.10160425 12.34887144 13.62757603 12 17 C10.1875 20.25 10.1875 20.25 8 23 C7.2884375 23.8971875 7.2884375 23.8971875 6.5625 24.8125 C5 26 5 26 0 27 C0 18.09 0 9.18 0 0 Z " fill="#F3CBAF" transform="translate(441,96)"/>
<path d="M0 0 C0 8.91 0 17.82 0 27 C-4.6201274 25.84496815 -6.5855405 24.26600474 -10 21 C-12.07995641 17.31280455 -12.50330967 14.19424727 -12 10 C-9.76707007 4.33922087 -6.54196536 0 0 0 Z " fill="#F2CAAF" transform="translate(340,96)"/>
<path d="M0 0 C2.0625 1.5625 2.0625 1.5625 3 4 C2.87988224 7.42335626 2.60726153 9.95416069 0.875 12.9375 C-2.22289358 14.69297303 -4.52844534 14.48723574 -8 14 C-10.5 11.875 -10.5 11.875 -12 9 C-11.93689022 5.84451076 -11.48864121 3.86230802 -9.9375 1.125 C-6.76015463 -0.71991022 -3.56671699 -0.65253866 0 0 Z " fill="#F5C84B" transform="translate(419,458)"/>
<path d="M0 0 C2.0625 1.5625 2.0625 1.5625 3 4 C2.87988224 7.42335626 2.60726153 9.95416069 0.875 12.9375 C-2.22289358 14.69297303 -4.52844534 14.48723574 -8 14 C-10.5 11.875 -10.5 11.875 -12 9 C-11.93689022 5.84451076 -11.48864121 3.86230802 -9.9375 1.125 C-6.76015463 -0.71991022 -3.56671699 -0.65253866 0 0 Z " fill="#FC647C" transform="translate(215,0)"/>
<path d="M0 0 C1.8125 1.25 1.8125 1.25 3 3 C3.42317323 5.82115488 3.38718434 7.33950907 1.9375 9.8125 C-1.08503156 11.66501934 -3.54932719 11.37643703 -7 11 C-9.31361802 7.52957297 -9.51020728 6.08165827 -9 2 C-6.13326387 -1.29143778 -4.01983549 -1.44301787 0 0 Z " fill="#0C0A08" transform="translate(415,106)"/>
<path d="M0 0 C1.8125 1.25 1.8125 1.25 3 3 C3.42317323 5.82115488 3.38718434 7.33950907 1.9375 9.8125 C-1.08503156 11.66501934 -3.54932719 11.37643703 -7 11 C-9.31361802 7.52957297 -9.51020728 6.08165827 -9 2 C-6.13326387 -1.29143778 -4.01983549 -1.44301787 0 0 Z " fill="#0B0908" transform="translate(374,106)"/>
<path d="M0 0 C3.3 0 6.6 0 10 0 C10.36929258 8.49372945 10.36929258 8.49372945 8.68359375 10.8046875 C7 12 7 12 3.875 11.8125 C2.92625 11.544375 1.9775 11.27625 1 11 C-0.71466036 7.57067929 -0.05404056 3.78283935 0 0 Z " fill="#D39F7D" transform="translate(256,148)"/>
</svg>
