<?xml version="1.0" encoding="UTF-8"?>
<!DOCTYPE svg PUBLIC "-//W3C//DTD SVG 1.1//EN" "http://www.w3.org/Graphics/SVG/1.1/DTD/svg11.dtd">
<svg xmlns="http://www.w3.org/2000/svg" version="1.1" width="669px" height="161px" style="shape-rendering:geometricPrecision; text-rendering:geometricPrecision; image-rendering:optimizeQuality; fill-rule:evenodd; clip-rule:evenodd" xmlns:xlink="http://www.w3.org/1999/xlink">
<g><path style="opacity:1" fill="#fcfcfc" d="M -0.5,-0.5 C 222.5,-0.5 445.5,-0.5 668.5,-0.5C 668.5,53.1667 668.5,106.833 668.5,160.5C 445.5,160.5 222.5,160.5 -0.5,160.5C -0.5,106.833 -0.5,53.1667 -0.5,-0.5 Z"/></g>
<g><path style="opacity:1" fill="#9b97b8" d="M 49.5,38.5 C 56.9818,37.508 64.6484,37.1746 72.5,37.5C 72.5,33.1667 72.5,28.8333 72.5,24.5C 51.5,24.5 30.5,24.5 9.5,24.5C 9.5,28.8333 9.5,33.1667 9.5,37.5C 17.5,37.5 25.5,37.5 33.5,37.5C 33.5,38.8333 33.5,40.1667 33.5,41.5C 33.5,61.1667 33.5,80.8333 33.5,100.5C 32.5028,80.0067 32.1695,59.3401 32.5,38.5C 24.5,38.5 16.5,38.5 8.5,38.5C 8.5,33.5 8.5,28.5 8.5,23.5C 30.1667,23.5 51.8333,23.5 73.5,23.5C 73.5,28.5 73.5,33.5 73.5,38.5C 65.5,38.5 57.5,38.5 49.5,38.5 Z"/></g>
<g><path style="opacity:1" fill="#f28d37" d="M 358.5,46.5 C 357.034,45.653 356.2,44.3197 356,42.5C 354.667,43.8333 353.333,45.1667 352,46.5C 350.008,40.7697 349.175,35.103 349.5,29.5C 355.147,24.5096 361.814,22.5096 369.5,23.5C 379.327,23.2763 388.494,25.6097 397,30.5C 395.506,35.1768 393.673,39.8434 391.5,44.5C 381.894,37.5143 371.561,35.8476 360.5,39.5C 358.829,41.5098 358.162,43.8431 358.5,46.5 Z"/></g>
<g><path style="opacity:1" fill="#33266f" d="M 49.5,38.5 C 48.596,39.209 48.2627,40.209 48.5,41.5C 47.8826,41.3893 47.3826,41.056 47,40.5C 46.829,45.5329 46.329,50.5329 45.5,55.5C 43.7249,48.477 42.8916,41.477 43,34.5C 40.0901,36.6241 39.2568,39.2908 40.5,42.5C 39.3966,42.9976 38.3966,43.3309 37.5,43.5C 38.565,45.8528 38.3983,48.1861 37,50.5C 36.0997,47.2823 34.933,44.2823 33.5,41.5C 33.5,40.1667 33.5,38.8333 33.5,37.5C 25.5,37.5 17.5,37.5 9.5,37.5C 9.5,33.1667 9.5,28.8333 9.5,24.5C 30.5,24.5 51.5,24.5 72.5,24.5C 72.5,28.8333 72.5,33.1667 72.5,37.5C 64.6484,37.1746 56.9818,37.508 49.5,38.5 Z"/></g>
<g><path style="opacity:1" fill="#6869a6" d="M 311.5,21.5 C 316.305,20.5128 321.305,20.1795 326.5,20.5C 326.5,47.5 326.5,74.5 326.5,101.5C 321.305,101.821 316.305,101.487 311.5,100.5C 316.167,100.5 320.833,100.5 325.5,100.5C 325.5,74.1667 325.5,47.8333 325.5,21.5C 320.833,21.5 316.167,21.5 311.5,21.5 Z"/></g>
<g><path style="opacity:1" fill="#f18038" d="M 349.5,29.5 C 349.175,35.103 350.008,40.7697 352,46.5C 353.333,45.1667 354.667,43.8333 356,42.5C 356.2,44.3197 357.034,45.653 358.5,46.5C 359.68,49.8446 362.013,52.0113 365.5,53C 374.118,55.2369 382.451,58.2369 390.5,62C 399.89,69.3023 402.057,78.4689 397,89.5C 393.118,95.5287 387.618,99.1954 380.5,100.5C 380.119,99.0689 379.119,98.2355 377.5,98C 380.905,96.5973 383.738,94.4306 386,91.5C 385.49,88.4705 385.656,85.4705 386.5,82.5C 386.563,80.5191 385.896,78.8524 384.5,77.5C 385.167,76.8333 385.833,76.1667 386.5,75.5C 384.542,72.7635 382.208,72.0969 379.5,73.5C 371.371,70.2137 363.038,67.3804 354.5,65C 341.195,58.221 337.695,48.0544 344,34.5C 345.704,32.6266 347.537,30.9599 349.5,29.5 Z"/></g>
<g><path style="opacity:1" fill="#322368" d="M 48.5,41.5 C 48.5,61.1667 48.5,80.8333 48.5,100.5C 43.5,100.5 38.5,100.5 33.5,100.5C 33.5,80.8333 33.5,61.1667 33.5,41.5C 34.933,44.2823 36.0997,47.2823 37,50.5C 38.3983,48.1861 38.565,45.8528 37.5,43.5C 38.3966,43.3309 39.3966,42.9976 40.5,42.5C 39.2568,39.2908 40.0901,36.6241 43,34.5C 42.8916,41.477 43.7249,48.477 45.5,55.5C 46.329,50.5329 46.829,45.5329 47,40.5C 47.3826,41.056 47.8826,41.3893 48.5,41.5 Z"/></g>
<g><path style="opacity:1" fill="#403a8a" d="M 179.5,44.5 C 184.64,43.5119 189.974,43.1786 195.5,43.5C 200.027,57.2449 204.86,70.9115 210,84.5C 214.548,71.0685 219.382,57.7351 224.5,44.5C 229.5,43.1667 234.5,43.1667 239.5,44.5C 231.366,63.244 224.032,82.244 217.5,101.5C 212.167,101.5 206.833,101.5 201.5,101.5C 194.541,82.2795 187.208,63.2795 179.5,44.5 Z"/></g>
<g><path style="opacity:1" fill="#36266e" d="M 97.5,67.5 C 96.5054,78.3206 96.1721,89.3206 96.5,100.5C 91.5,100.5 86.5,100.5 81.5,100.5C 81.5,81.5 81.5,62.5 81.5,43.5C 86.5,43.5 91.5,43.5 96.5,43.5C 96.3354,46.5184 96.502,49.5184 97,52.5C 101.508,46.1617 107.675,42.8284 115.5,42.5C 115.5,47.1667 115.5,51.8333 115.5,56.5C 106.895,56.1268 100.895,59.7935 97.5,67.5 Z"/></g>
<g><path style="opacity:1" fill="#f69933" d="M 516.5,100.5 C 516.879,89.4451 516.379,78.4451 515,67.5C 514.333,66.8333 513.667,66.1667 513,65.5C 512.506,67.1341 512.34,68.8008 512.5,70.5C 511.448,70.6495 510.448,70.4828 509.5,70C 509.925,67.9826 509.925,66.1493 509.5,64.5C 506.927,62.3584 505.094,59.6918 504,56.5C 503.338,57.9839 502.504,59.3172 501.5,60.5C 498.306,56.8152 494.139,55.1485 489,55.5C 483.329,55.6684 478.162,57.335 473.5,60.5C 471.84,57.2019 470.173,53.8685 468.5,50.5C 479.811,42.2588 492.144,40.4255 505.5,45C 511.492,47.6587 515.325,52.1587 517,58.5C 517.827,72.6728 517.661,86.6728 516.5,100.5 Z"/></g>
<g><path style="opacity:1" fill="#f79a28" d="M 532.5,43.5 C 536.833,43.5 541.167,43.5 545.5,43.5C 544.989,47.0297 545.656,50.1963 547.5,53C 547.499,54.3988 547.165,55.8988 546.5,57.5C 548.109,57.3886 549.775,57.722 551.5,58.5C 549.733,60.9384 548.399,63.605 547.5,66.5C 546.883,66.6107 546.383,66.944 546,67.5C 545.824,70.8818 545.324,74.2152 544.5,77.5C 543.833,76.1667 543.167,74.8333 542.5,73.5C 541.109,74.6446 539.776,74.6446 538.5,73.5C 537.029,69.2527 535.862,64.9194 535,60.5C 534.667,61.1667 534.333,61.8333 534,62.5C 532.683,56.2425 532.183,49.9092 532.5,43.5 Z"/></g>
<g><path style="opacity:1" fill="#f38f33" d="M 424.5,60.5 C 424.423,59.2502 423.756,58.4169 422.5,58C 426.114,55.8587 426.114,53.5254 422.5,51C 425.318,48.1308 424.652,46.6308 420.5,46.5C 433.378,40.2183 445.545,41.5517 457,50.5C 458.366,52.3703 459.533,54.3703 460.5,56.5C 456.509,58.4956 452.509,60.4956 448.5,62.5C 441.215,53.9879 433.215,53.3213 424.5,60.5 Z"/></g>
<g><path style="opacity:1" fill="#f7a12a" d="M 587.5,87.5 C 586.655,84.4858 586.988,81.4858 588.5,78.5C 588,77.5 587.5,76.5 587,75.5C 586.252,77.3325 585.252,78.9991 584,80.5C 582.143,77.0627 580.809,73.3961 580,69.5C 578.84,71.797 577.84,71.4637 577,68.5C 576.809,70.7078 576.309,72.7078 575.5,74.5C 575.075,57.6276 567.075,52.2943 551.5,58.5C 549.775,57.722 548.109,57.3886 546.5,57.5C 547.165,55.8988 547.499,54.3988 547.5,53C 545.656,50.1963 544.989,47.0297 545.5,43.5C 546.317,45.9686 546.817,48.6353 547,51.5C 552.843,43.5491 560.677,40.7158 570.5,43C 588.564,50.2948 595.064,63.4615 590,82.5C 589.626,84.4913 588.793,86.158 587.5,87.5 Z"/></g>
<g><path style="opacity:1" fill="#404292" d="M 311.5,21.5 C 316.167,21.5 320.833,21.5 325.5,21.5C 325.5,47.8333 325.5,74.1667 325.5,100.5C 320.833,100.5 316.167,100.5 311.5,100.5C 311.5,74.1667 311.5,47.8333 311.5,21.5 Z"/></g>
<g><path style="opacity:1" fill="#f5912e" d="M 516.5,100.5 C 513.833,100.5 511.167,100.5 508.5,100.5C 508.62,97.5198 509.287,94.6865 510.5,92C 509.736,89.9307 509.236,87.764 509,85.5C 505.847,89.8192 505.014,89.4859 506.5,84.5C 505.121,81.7415 503.787,79.0748 502.5,76.5C 496.21,75.2498 489.877,75.2498 483.5,76.5C 482.282,75.8386 480.949,75.1719 479.5,74.5C 482.872,73.2988 485.872,71.4655 488.5,69C 486.292,68.8091 484.292,68.3091 482.5,67.5C 489.167,67.5 495.833,67.5 502.5,67.5C 502.784,65.5853 502.451,63.9187 501.5,62.5C 501.5,61.8333 501.5,61.1667 501.5,60.5C 502.504,59.3172 503.338,57.9839 504,56.5C 505.094,59.6918 506.927,62.3584 509.5,64.5C 509.925,66.1493 509.925,67.9826 509.5,70C 510.448,70.4828 511.448,70.6495 512.5,70.5C 512.34,68.8008 512.506,67.1341 513,65.5C 513.667,66.1667 514.333,66.8333 515,67.5C 516.379,78.4451 516.879,89.4451 516.5,100.5 Z"/></g>
<g><path style="opacity:1" fill="#fcfcf9" d="M 575.5,74.5 C 573.767,85.3928 567.433,89.8928 556.5,88C 548.394,82.9561 545.394,75.7895 547.5,66.5C 548.399,63.605 549.733,60.9384 551.5,58.5C 567.075,52.2943 575.075,57.6276 575.5,74.5 Z"/></g>
<g><path style="opacity:1" fill="#f8a129" d="M 613.5,77.5 C 612.095,79.3789 610.428,79.7122 608.5,78.5C 607.566,73.966 605.566,69.966 602.5,66.5C 603.704,64.0972 604.038,61.7638 603.5,59.5C 601.92,61.4086 600.253,63.0753 598.5,64.5C 604.054,47.7101 615.721,40.5435 633.5,43C 650.244,48.2893 657.577,59.7893 655.5,77.5C 641.5,77.5 627.5,77.5 613.5,77.5 Z"/></g>
<g><path style="opacity:1" fill="#fcfcf6" d="M 622.5,54.5 C 632.923,53.022 638.923,57.3553 640.5,67.5C 631.5,67.5 622.5,67.5 613.5,67.5C 613.797,61.223 616.797,56.8897 622.5,54.5 Z"/></g>
<g><path style="opacity:1" fill="#f38335" d="M 420.5,46.5 C 424.652,46.6308 425.318,48.1308 422.5,51C 426.114,53.5254 426.114,55.8587 422.5,58C 423.756,58.4169 424.423,59.2502 424.5,60.5C 421.613,66.1336 420.78,72.1336 422,78.5C 427.491,89.0835 435.324,91.2501 445.5,85C 446.618,83.9264 447.618,82.7598 448.5,81.5C 452.509,83.5044 456.509,85.5044 460.5,87.5C 452.465,99.9079 441.131,104.408 426.5,101C 411.067,94.3176 404.233,82.4842 406,65.5C 408.019,56.9856 412.852,50.6522 420.5,46.5 Z"/></g>
<g><path style="opacity:1" fill="#685d97" d="M 157.5,62.5 C 158.451,63.9187 158.784,65.5853 158.5,67.5C 150.833,67.5 143.167,67.5 135.5,67.5C 142.648,66.5084 149.981,66.175 157.5,66.5C 157.5,65.1667 157.5,63.8333 157.5,62.5 Z"/></g>
<g><path style="opacity:1" fill="#f9b066" d="M 501.5,62.5 C 502.451,63.9187 502.784,65.5853 502.5,67.5C 495.833,67.5 489.167,67.5 482.5,67.5C 488.645,66.5098 494.978,66.1765 501.5,66.5C 501.5,65.1667 501.5,63.8333 501.5,62.5 Z"/></g>
<g><path style="opacity:1" fill="#f89a32" d="M 532.5,43.5 C 532.183,49.9092 532.683,56.2425 534,62.5C 534.333,61.8333 534.667,61.1667 535,60.5C 535.862,64.9194 537.029,69.2527 538.5,73.5C 539.776,74.6446 541.109,74.6446 542.5,73.5C 543.167,74.8333 543.833,76.1667 544.5,77.5C 545.324,74.2152 545.824,70.8818 546,67.5C 546.383,66.944 546.883,66.6107 547.5,66.5C 545.394,75.7895 548.394,82.9561 556.5,88C 567.433,89.8928 573.767,85.3928 575.5,74.5C 576.309,72.7078 576.809,70.7078 577,68.5C 577.84,71.4637 578.84,71.797 580,69.5C 580.809,73.3961 582.143,77.0627 584,80.5C 585.252,78.9991 586.252,77.3325 587,75.5C 587.5,76.5 588,77.5 588.5,78.5C 586.988,81.4858 586.655,84.4858 587.5,87.5C 579.64,101.251 568.307,105.084 553.5,99C 551.627,97.2962 549.96,95.4628 548.5,93.5C 548.44,92.9569 548.107,92.6236 547.5,92.5C 546.534,94.396 546.201,96.396 546.5,98.5C 545.086,96.1327 543.752,93.6327 542.5,91C 539.28,90.3575 537.113,88.5241 536,85.5C 535.333,86.1667 534.667,86.8333 534,87.5C 533.667,85.5 533.333,83.5 533,81.5C 532.5,94.4957 532.333,107.496 532.5,120.5C 531.167,94.8333 531.167,69.1667 532.5,43.5 Z"/></g>
<g><path style="opacity:1" fill="#372978" d="M 172.5,57.5 C 172.5,71.8333 172.5,86.1667 172.5,100.5C 167.833,100.5 163.167,100.5 158.5,100.5C 158.662,98.4727 158.495,96.4727 158,94.5C 153.011,99.7948 146.844,102.128 139.5,101.5C 124.327,99.8437 118.494,91.5104 122,76.5C 124.771,70.8937 129.271,67.8937 135.5,67.5C 143.167,67.5 150.833,67.5 158.5,67.5C 158.784,65.5853 158.451,63.9187 157.5,62.5C 156.929,58.532 154.596,56.3653 150.5,56C 146.5,55.3333 142.5,55.3333 138.5,56C 135.258,57.6395 131.924,58.6395 128.5,59C 127.038,55.906 125.704,52.7394 124.5,49.5C 138.298,40.9355 152.298,40.4355 166.5,48C 169.647,50.4638 171.647,53.6305 172.5,57.5 Z"/></g>
<g><path style="opacity:1" fill="#f5f4f8" d="M 141.5,75.5 C 146.833,75.5 152.167,75.5 157.5,75.5C 159.232,85.7671 154.899,90.7671 144.5,90.5C 137.851,90.3543 135.018,87.0209 136,80.5C 137.73,78.5981 139.563,76.9314 141.5,75.5 Z"/></g>
<g><path style="opacity:1" fill="#fdf8f1" d="M 502.5,76.5 C 503.04,85.6284 498.707,90.2951 489.5,90.5C 482.336,90.8378 479.169,87.5045 480,80.5C 481.376,79.2949 482.542,77.9616 483.5,76.5C 489.877,75.2498 496.21,75.2498 502.5,76.5 Z"/></g>
<g><path style="opacity:1" fill="#7f739e" d="M 49.5,38.5 C 49.5,59.5 49.5,80.5 49.5,101.5C 43.9738,101.821 38.6405,101.488 33.5,100.5C 38.5,100.5 43.5,100.5 48.5,100.5C 48.5,80.8333 48.5,61.1667 48.5,41.5C 48.2627,40.209 48.596,39.209 49.5,38.5 Z"/></g>
<g><path style="opacity:1" fill="#f17a3b" d="M 380.5,100.5 C 364.543,103.927 350.21,100.593 337.5,90.5C 339.208,86.17 341.375,82.17 344,78.5C 349.619,81.7258 355.452,84.5591 361.5,87C 366.5,87.6667 371.5,87.6667 376.5,87C 383.19,83.715 384.19,79.215 379.5,73.5C 382.208,72.0969 384.542,72.7635 386.5,75.5C 385.833,76.1667 385.167,76.8333 384.5,77.5C 385.896,78.8524 386.563,80.5191 386.5,82.5C 385.656,85.4705 385.49,88.4705 386,91.5C 383.738,94.4306 380.905,96.5973 377.5,98C 379.119,98.2355 380.119,99.0689 380.5,100.5 Z"/></g>
<g><path style="opacity:1" fill="#f79c29" d="M 613.5,77.5 C 615.971,86.7971 621.971,90.6304 631.5,89C 635.714,88.2262 639.381,86.3929 642.5,83.5C 645.869,85.5234 648.869,88.0234 651.5,91C 642.5,100.553 631.5,103.886 618.5,101C 602.035,94.2387 595.368,82.072 598.5,64.5C 600.253,63.0753 601.92,61.4086 603.5,59.5C 604.038,61.7638 603.704,64.0972 602.5,66.5C 605.566,69.966 607.566,73.966 608.5,78.5C 610.428,79.7122 612.095,79.3789 613.5,77.5 Z"/></g>
<g><path style="opacity:1" fill="#f68e34" d="M 482.5,67.5 C 484.292,68.3091 486.292,68.8091 488.5,69C 485.872,71.4655 482.872,73.2988 479.5,74.5C 480.949,75.1719 482.282,75.8386 483.5,76.5C 482.542,77.9616 481.376,79.2949 480,80.5C 479.169,87.5045 482.336,90.8378 489.5,90.5C 498.707,90.2951 503.04,85.6284 502.5,76.5C 503.787,79.0748 505.121,81.7415 506.5,84.5C 505.014,89.4859 505.847,89.8192 509,85.5C 509.236,87.764 509.736,89.9307 510.5,92C 509.287,94.6865 508.62,97.5198 508.5,100.5C 506.5,100.5 504.5,100.5 502.5,100.5C 502.662,98.4727 502.495,96.4727 502,94.5C 497.171,99.7128 491.171,102.046 484,101.5C 467.858,99.9106 462.191,91.2439 467,75.5C 470.746,70.044 475.912,67.3774 482.5,67.5 Z"/></g>
<g><path style="opacity:1" fill="#3e3c8e" d="M 264.5,42.5 C 289.024,41.3579 301.024,53.0245 300.5,77.5C 286.151,77.1674 271.818,77.5007 257.5,78.5C 260.948,87.2237 267.281,90.7237 276.5,89C 280.801,87.6063 284.801,85.9396 288.5,84C 290.871,86.706 293.537,89.0394 296.5,91C 287.648,99.8837 276.982,103.217 264.5,101C 251.479,97.9769 243.979,89.8102 242,76.5C 240.511,59.1654 248.011,47.8321 264.5,42.5 Z"/></g>
<g><path style="opacity:1" fill="#f6f7fa" d="M 266.5,54.5 C 274.999,53.0391 281.166,56.0391 285,63.5C 285.49,64.7932 285.657,66.1266 285.5,67.5C 276.167,67.5 266.833,67.5 257.5,67.5C 257.776,61.2811 260.776,56.9478 266.5,54.5 Z"/></g>
<g><path style="opacity:1" fill="#f58b2c" d="M 546.5,98.5 C 546.5,105.833 546.5,113.167 546.5,120.5C 541.833,120.5 537.167,120.5 532.5,120.5C 532.333,107.496 532.5,94.4957 533,81.5C 533.333,83.5 533.667,85.5 534,87.5C 534.667,86.8333 535.333,86.1667 536,85.5C 537.113,88.5241 539.28,90.3575 542.5,91C 543.752,93.6327 545.086,96.1327 546.5,98.5 Z"/></g>
<g><path style="opacity:1" fill="#b5b2c6" d="M 97.5,67.5 C 97.5,78.8333 97.5,90.1667 97.5,101.5C 91.9738,101.821 86.6405,101.488 81.5,100.5C 86.5,100.5 91.5,100.5 96.5,100.5C 96.1721,89.3206 96.5054,78.3206 97.5,67.5 Z"/></g>
<g><path style="opacity:1" fill="#908ab0" d="M 172.5,57.5 C 173.496,71.9905 173.829,86.6572 173.5,101.5C 168.305,101.821 163.305,101.487 158.5,100.5C 163.167,100.5 167.833,100.5 172.5,100.5C 172.5,86.1667 172.5,71.8333 172.5,57.5 Z"/></g>
<g><path style="opacity:1" fill="#f4a25c" d="M 548.5,93.5 C 547.833,102.5 547.167,111.5 546.5,120.5C 546.5,113.167 546.5,105.833 546.5,98.5C 546.201,96.396 546.534,94.396 547.5,92.5C 548.107,92.6236 548.44,92.9569 548.5,93.5 Z"/></g>
<g><path style="opacity:1" fill="#595a59" d="M 384.5,131.5 C 390.206,131.171 395.872,131.505 401.5,132.5C 399.257,133.474 396.924,133.808 394.5,133.5C 394.5,140.167 394.5,146.833 394.5,153.5C 393.5,153.5 392.5,153.5 391.5,153.5C 391.5,146.833 391.5,140.167 391.5,133.5C 388.612,134.01 386.279,133.344 384.5,131.5 Z"/></g>
<g><path style="opacity:1" fill="#50514f" d="M 533.5,131.5 C 538.544,131.173 543.544,131.506 548.5,132.5C 544.217,133.492 539.884,133.826 535.5,133.5C 535.5,136.167 535.5,138.833 535.5,141.5C 539.5,141.5 543.5,141.5 547.5,141.5C 543.971,143.423 539.971,144.089 535.5,143.5C 535.5,146.167 535.5,148.833 535.5,151.5C 540.214,151.173 544.88,151.507 549.5,152.5C 544.208,153.495 538.875,153.828 533.5,153.5C 533.5,146.167 533.5,138.833 533.5,131.5 Z"/></g>
<g><path style="opacity:1" fill="#9d9d9e" d="M 317.5,131.5 C 315.537,138.424 314.87,145.757 315.5,153.5C 314.508,146.018 314.175,138.352 314.5,130.5C 315.791,130.263 316.791,130.596 317.5,131.5 Z"/></g>
<g><path style="opacity:1" fill="#5d5f60" d="M 204.5,132.5 C 205.251,131.427 206.251,131.26 207.5,132C 209.543,135.253 211.71,138.42 214,141.5C 216.248,138.672 218.248,135.672 220,132.5C 221.049,131.483 222.216,131.316 223.5,132C 217.837,138.141 215.17,145.307 215.5,153.5C 214.5,153.5 213.5,153.5 212.5,153.5C 212.665,150.482 212.498,147.482 212,144.5C 209.725,140.268 207.225,136.268 204.5,132.5 Z"/></g>
<g><path style="opacity:1" fill="#949494" d="M 292.5,131.5 C 288.833,131.5 285.167,131.5 281.5,131.5C 280.87,139.243 281.537,146.576 283.5,153.5C 282.791,154.404 281.791,154.737 280.5,154.5C 280.5,146.5 280.5,138.5 280.5,130.5C 284.702,130.183 288.702,130.517 292.5,131.5 Z"/></g>
<g><path style="opacity:1" fill="#585959" d="M 344.5,140.5 C 348.021,141.166 351.687,141.833 355.5,142.5C 351.893,143.489 348.226,143.823 344.5,143.5C 344.5,146.167 344.5,148.833 344.5,151.5C 349.294,150.903 353.627,151.57 357.5,153.5C 352.167,153.5 346.833,153.5 341.5,153.5C 341.5,146.167 341.5,138.833 341.5,131.5C 346.875,131.172 352.208,131.505 357.5,132.5C 353.217,133.492 348.884,133.826 344.5,133.5C 344.5,135.833 344.5,138.167 344.5,140.5 Z"/></g>
<g><path style="opacity:1" fill="#5a5b5b" d="M 364.5,153.5 C 363.761,153.631 363.094,153.464 362.5,153C 363.386,151.385 364.386,149.885 365.5,148.5C 367.417,146.738 368.75,144.571 369.5,142C 367.571,138.401 365.237,135.067 362.5,132C 363.944,131.219 365.277,131.386 366.5,132.5C 367.921,135.009 369.588,137.343 371.5,139.5C 373.857,136.644 376.357,133.978 379,131.5C 379.5,131.833 380,132.167 380.5,132.5C 378.167,135.833 375.833,139.167 373.5,142.5C 375.975,146.142 378.642,149.642 381.5,153C 380.5,153.667 379.5,153.667 378.5,153C 376.333,150.167 374.167,147.333 372,144.5C 369.482,147.571 366.982,150.571 364.5,153.5 Z"/></g>
<g><path style="opacity:1" fill="#bdbcbc" d="M 533.5,131.5 C 538.64,130.512 543.974,130.179 549.5,130.5C 549.5,131.833 549.5,133.167 549.5,134.5C 545.167,134.5 540.833,134.5 536.5,134.5C 536.5,136.5 536.5,138.5 536.5,140.5C 540.371,140.185 544.038,140.518 547.5,141.5C 543.5,141.5 539.5,141.5 535.5,141.5C 535.5,138.833 535.5,136.167 535.5,133.5C 539.884,133.826 544.217,133.492 548.5,132.5C 543.544,131.506 538.544,131.173 533.5,131.5 Z"/></g>
<g><path style="opacity:1" fill="#a4a5a6" d="M 135.5,131.5 C 136.492,138.982 136.825,146.648 136.5,154.5C 135.209,154.737 134.209,154.404 133.5,153.5C 135.463,146.576 136.13,139.243 135.5,131.5 Z"/></g>
<g><path style="opacity:1" fill="#5c5c5c" d="M 442.5,131.5 C 446.548,131.395 450.548,131.728 454.5,132.5C 454.5,133.5 454.5,134.5 454.5,135.5C 452.174,134.849 449.841,134.182 447.5,133.5C 443.273,133.71 441.94,135.71 443.5,139.5C 447.869,140.543 451.702,142.543 455,145.5C 455.687,147.92 455.187,150.087 453.5,152C 449.625,153.52 445.625,153.854 441.5,153C 439.561,152.092 438.561,150.592 438.5,148.5C 441.159,149.485 443.826,150.485 446.5,151.5C 452.093,151.462 453.427,149.296 450.5,145C 446.647,144.553 443.314,143.053 440.5,140.5C 438.875,136.954 439.542,133.954 442.5,131.5 Z"/></g>
<g><path style="opacity:1" fill="#535353" d="M 511.5,131.5 C 515.514,131.334 519.514,131.501 523.5,132C 527.701,135.025 528.535,138.859 526,143.5C 524.67,144.582 523.17,145.249 521.5,145.5C 519.473,145.662 517.473,145.495 515.5,145C 517.382,144.802 519.048,144.302 520.5,143.5C 524.254,142.172 525.421,139.506 524,135.5C 520.757,133.737 517.257,133.071 513.5,133.5C 512.672,139.987 512.172,146.654 512,153.5C 511.5,146.174 511.334,138.841 511.5,131.5 Z"/></g>
<g><path style="opacity:1" fill="#f7f6f5" d="M 513.5,133.5 C 517.257,133.071 520.757,133.737 524,135.5C 525.421,139.506 524.254,142.172 520.5,143.5C 518.167,143.5 515.833,143.5 513.5,143.5C 513.5,140.167 513.5,136.833 513.5,133.5 Z"/></g>
<g><path style="opacity:1" fill="#d4d4d7" d="M 127.5,133.5 C 123.702,134.483 119.702,134.817 115.5,134.5C 115.5,136.5 115.5,138.5 115.5,140.5C 119.371,140.185 123.038,140.518 126.5,141.5C 122.5,141.5 118.5,141.5 114.5,141.5C 114.5,138.833 114.5,136.167 114.5,133.5C 118.833,133.5 123.167,133.5 127.5,133.5 Z"/></g>
<g><path style="opacity:1" fill="#9c9c9b" d="M 420.5,133.5 C 420.5,135.833 420.5,138.167 420.5,140.5C 424.5,140.5 428.5,140.5 432.5,140.5C 432.737,141.791 432.404,142.791 431.5,143.5C 427.971,141.577 423.971,140.911 419.5,141.5C 419.194,138.615 419.527,135.948 420.5,133.5 Z"/></g>
<g><path style="opacity:1" fill="#585b5c" d="M 127.5,133.5 C 123.167,133.5 118.833,133.5 114.5,133.5C 114.5,136.167 114.5,138.833 114.5,141.5C 118.5,141.5 122.5,141.5 126.5,141.5C 122.971,143.423 118.971,144.089 114.5,143.5C 114.5,146.833 114.5,150.167 114.5,153.5C 113.5,153.5 112.5,153.5 111.5,153.5C 111.5,146.167 111.5,138.833 111.5,131.5C 117.271,130.887 122.604,131.554 127.5,133.5 Z"/></g>
<g><path style="opacity:1" fill="#565655" d="M 420.5,133.5 C 419.527,135.948 419.194,138.615 419.5,141.5C 423.971,140.911 427.971,141.577 431.5,143.5C 427.833,143.5 424.167,143.5 420.5,143.5C 420.5,146.167 420.5,148.833 420.5,151.5C 424.884,151.174 429.217,151.508 433.5,152.5C 428.208,153.495 422.875,153.828 417.5,153.5C 417.5,146.167 417.5,138.833 417.5,131.5C 422.875,131.172 428.208,131.505 433.5,132.5C 429.217,133.492 424.884,133.826 420.5,133.5 Z"/></g>
<g><path style="opacity:1" fill="#56595a" d="M 158.5,147.5 C 158.56,148.043 158.893,148.376 159.5,148.5C 160.495,142.872 160.829,137.206 160.5,131.5C 162.463,138.424 163.13,145.757 162.5,153.5C 161.325,153.719 160.325,153.386 159.5,152.5C 155.142,147.31 150.976,141.977 147,136.5C 146.501,142.491 146.334,148.491 146.5,154.5C 145.5,154.5 144.5,154.5 143.5,154.5C 143.5,146.833 143.5,139.167 143.5,131.5C 144.978,131.238 146.311,131.571 147.5,132.5C 151.42,137.352 155.087,142.352 158.5,147.5 Z"/></g>
<g><path style="opacity:1" fill="#a6a7a9" d="M 160.5,131.5 C 160.829,137.206 160.495,142.872 159.5,148.5C 158.893,148.376 158.56,148.043 158.5,147.5C 159.167,142.167 159.833,136.833 160.5,131.5 Z"/></g>
<g><path style="opacity:1" fill="#545656" d="M 292.5,131.5 C 300.097,135.631 300.43,140.464 293.5,146C 295.363,148.364 297.029,150.864 298.5,153.5C 297.5,154.833 296.5,154.833 295.5,153.5C 293.588,151.343 291.921,149.009 290.5,146.5C 288.257,145.526 285.924,145.192 283.5,145.5C 283.5,148.167 283.5,150.833 283.5,153.5C 281.537,146.576 280.87,139.243 281.5,131.5C 285.167,131.5 288.833,131.5 292.5,131.5 Z"/></g>
<g><path style="opacity:1" fill="#f2f2f2" d="M 283.5,133.5 C 287.584,133.043 291.417,133.71 295,135.5C 296.212,138.834 295.379,141.334 292.5,143C 289.518,143.498 286.518,143.665 283.5,143.5C 283.5,140.167 283.5,136.833 283.5,133.5 Z"/></g>
<g><path style="opacity:1" fill="#d3d3d3" d="M 344.5,140.5 C 348.5,140.5 352.5,140.5 356.5,140.5C 356.5,141.833 356.5,143.167 356.5,144.5C 352.833,144.5 349.167,144.5 345.5,144.5C 345.5,146.5 345.5,148.5 345.5,150.5C 352.334,150.911 359.001,150.244 365.5,148.5C 364.386,149.885 363.386,151.385 362.5,153C 363.094,153.464 363.761,153.631 364.5,153.5C 362.312,154.623 359.979,154.623 357.5,153.5C 353.627,151.57 349.294,150.903 344.5,151.5C 344.5,148.833 344.5,146.167 344.5,143.5C 348.226,143.823 351.893,143.489 355.5,142.5C 351.687,141.833 348.021,141.166 344.5,140.5 Z"/></g>
<g><path style="opacity:1" fill="#747371" d="M 511.5,131.5 C 511.334,138.841 511.5,146.174 512,153.5C 512.172,146.654 512.672,139.987 513.5,133.5C 513.5,136.833 513.5,140.167 513.5,143.5C 515.833,143.5 518.167,143.5 520.5,143.5C 519.048,144.302 517.382,144.802 515.5,145C 517.473,145.495 519.473,145.662 521.5,145.5C 519.052,146.473 516.385,146.806 513.5,146.5C 513.5,149.167 513.5,151.833 513.5,154.5C 512.5,154.5 511.5,154.5 510.5,154.5C 510.175,146.648 510.508,138.982 511.5,131.5 Z"/></g>
<g><path style="opacity:1" fill="#bfc0bf" d="M 321.5,141.5 C 320.542,141.047 319.708,140.381 319,139.5C 318.501,144.489 318.334,149.489 318.5,154.5C 317.209,154.737 316.209,154.404 315.5,153.5C 317.137,148.226 318.137,142.559 318.5,136.5C 319.952,137.94 320.952,139.606 321.5,141.5 Z"/></g>
<g><path style="opacity:1" fill="#5c5c5b" d="M 466.5,131.5 C 469.518,131.335 472.518,131.502 475.5,132C 478.53,132.897 479.364,134.397 478,136.5C 468.087,131.29 463.087,134.29 463,145.5C 466.859,152.139 471.859,153.139 478,148.5C 479.364,150.603 478.53,152.103 475.5,153C 464.232,154.733 459.065,149.899 460,138.5C 461.694,135.642 463.861,133.309 466.5,131.5 Z"/></g>
<g><path style="opacity:1" fill="#4e5151" d="M 135.5,131.5 C 136.13,139.243 135.463,146.576 133.5,153.5C 132.87,145.757 133.537,138.424 135.5,131.5 Z"/></g>
<g><path style="opacity:1" fill="#cdcecf" d="M 170.5,131.5 C 170.5,138.833 170.5,146.167 170.5,153.5C 173.833,153.5 177.167,153.5 180.5,153.5C 177.038,154.482 173.371,154.815 169.5,154.5C 169.175,146.648 169.508,138.982 170.5,131.5 Z"/></g>
<g><path style="opacity:1" fill="#515456" d="M 317.5,131.5 C 322.136,136.979 326.636,142.646 331,148.5C 331.17,142.804 331.67,137.138 332.5,131.5C 333.497,138.803 333.831,146.137 333.5,153.5C 332.325,153.719 331.325,153.386 330.5,152.5C 327.72,148.579 324.72,144.913 321.5,141.5C 320.952,139.606 319.952,137.94 318.5,136.5C 318.137,142.559 317.137,148.226 315.5,153.5C 314.87,145.757 315.537,138.424 317.5,131.5 Z"/></g>
<g><path style="opacity:1" fill="#616465" d="M 254.5,131.5 C 255.5,131.5 256.5,131.5 257.5,131.5C 257.334,136.511 257.501,141.511 258,146.5C 260.957,152.289 264.957,152.956 270,148.5C 270.499,142.843 270.666,137.176 270.5,131.5C 271.5,131.5 272.5,131.5 273.5,131.5C 273.87,137.925 273.37,144.258 272,150.5C 266.158,156.16 260.824,155.826 256,149.5C 254.639,143.593 254.139,137.593 254.5,131.5 Z"/></g>
<g><path style="opacity:1" fill="#5a5d5f" d="M 170.5,131.5 C 176.105,130.908 181.439,131.741 186.5,134C 191.952,140.215 191.619,146.215 185.5,152C 183.846,152.608 182.179,153.108 180.5,153.5C 177.167,153.5 173.833,153.5 170.5,153.5C 170.5,146.167 170.5,138.833 170.5,131.5 Z"/></g>
<g><path style="opacity:1" fill="#f7f7f7" d="M 173.5,133.5 C 183.046,132.224 187.546,136.224 187,145.5C 183.948,150.472 179.448,152.472 173.5,151.5C 173.5,145.5 173.5,139.5 173.5,133.5 Z"/></g>
<g><path style="opacity:1" fill="#5a5d5f" d="M 232.5,131.5 C 244.531,129.726 249.698,134.726 248,146.5C 246.197,151.581 242.531,154.248 237,154.5C 228.312,152.139 224.979,146.473 227,137.5C 228.36,134.977 230.193,132.977 232.5,131.5 Z"/></g>
<g><path style="opacity:1" fill="#f6f6f6" d="M 234.5,133.5 C 242.986,133.151 246.82,137.151 246,145.5C 243.647,150.426 239.814,152.26 234.5,151C 232.333,150.167 230.833,148.667 230,146.5C 228.243,140.825 229.743,136.492 234.5,133.5 Z"/></g>
<g><path style="opacity:1" fill="#5a5c5b" d="M 491.5,131.5 C 493.167,131.5 494.833,131.5 496.5,131.5C 498.731,138.469 501.398,145.302 504.5,152C 504.167,152.5 503.833,153 503.5,153.5C 502.05,152.345 501.05,150.845 500.5,149C 496.129,148.172 491.795,148.339 487.5,149.5C 486.96,150.748 486.293,151.915 485.5,153C 484.668,153.688 484.002,153.521 483.5,152.5C 486.464,145.579 489.131,138.579 491.5,131.5 Z"/></g>
<g><path style="opacity:1" fill="#f1f0ef" d="M 493.5,134.5 C 495.957,137.751 497.624,141.418 498.5,145.5C 495.428,145.817 492.428,145.484 489.5,144.5C 490.846,141.145 492.18,137.812 493.5,134.5 Z"/></g>
</svg>
