<?xml version="1.0" encoding="UTF-8"?>
<!DOCTYPE svg PUBLIC "-//W3C//DTD SVG 1.1//EN" "http://www.w3.org/Graphics/SVG/1.1/DTD/svg11.dtd">
<svg xmlns="http://www.w3.org/2000/svg" version="1.1" width="94px" height="94px" style="shape-rendering:geometricPrecision; text-rendering:geometricPrecision; image-rendering:optimizeQuality; fill-rule:evenodd; clip-rule:evenodd" xmlns:xlink="http://www.w3.org/1999/xlink">
<g><path style="opacity:0.451" fill="#8ba9db" d="M 40.5,27.5 C 39.8333,27.5 39.5,27.8333 39.5,28.5C 39.1667,28.5 38.8333,28.5 38.5,28.5C 38.1667,27.1667 37.8333,27.1667 37.5,28.5C 36.5,28.5 35.5,28.5 34.5,28.5C 33.2921,27.7659 31.9587,27.4326 30.5,27.5C 29.791,26.596 28.791,26.2627 27.5,26.5C 25.1667,26.5 22.8333,26.5 20.5,26.5C 21.6085,25.71 22.9419,25.21 24.5,25C 19.7184,24.021 20.2184,23.1877 26,22.5C 28.5402,23.1854 31.0402,24.0187 33.5,25C 32.8333,25.3333 32.1667,25.6667 31.5,26C 33.0349,26.4962 34.5349,26.3295 36,25.5C 37.7275,25.899 39.2275,26.5657 40.5,27.5 Z"/></g>
<g><path style="opacity:0.004" fill="#00fffe" d="M 17.5,27.5 C 16.8333,26.1667 16.8333,26.1667 17.5,27.5 Z"/></g>
<g><path style="opacity:0.995" fill="#4b97dc" d="M 19.5,26.5 C 19.8333,26.5 20.1667,26.5 20.5,26.5C 22.8333,26.5 25.1667,26.5 27.5,26.5C 27.5,28.1667 27.5,29.8333 27.5,31.5C 24.2485,30.5462 21.5819,28.8796 19.5,26.5 Z"/></g>
<g><path style="opacity:0.995" fill="#4aa4e5" d="M 27.5,26.5 C 28.791,26.2627 29.791,26.596 30.5,27.5C 31.5664,29.7014 32.233,32.0347 32.5,34.5C 30.5659,33.8897 28.8993,32.8897 27.5,31.5C 27.5,29.8333 27.5,28.1667 27.5,26.5 Z"/></g>
<g><path style="opacity:0.886" fill="#d8f7fc" d="M 87.5,27.5 C 87.5,27.8333 87.5,28.1667 87.5,28.5C 86.8333,28.5 86.5,28.8333 86.5,29.5C 84.8333,29.5 83.1667,29.5 81.5,29.5C 78.6038,28.2248 75.6038,28.2248 72.5,29.5C 66.0442,30.6973 59.7108,32.364 53.5,34.5C 52.8333,34.5 52.5,34.1667 52.5,33.5C 52.5,33.1667 52.5,32.8333 52.5,32.5C 54.5643,32.313 56.5643,31.813 58.5,31C 55.8333,30.3333 55.8333,29.6667 58.5,29C 62.1667,28 65.8333,27 69.5,26C 73.5784,26.0005 77.5784,25.8339 81.5,25.5C 83.7143,25.6113 85.7143,26.278 87.5,27.5 Z"/></g>
<g><path style="opacity:0.988" fill="#618fc5" d="M 19.5,26.5 C 21.5819,28.8796 24.2485,30.5462 27.5,31.5C 28.8993,32.8897 30.5659,33.8897 32.5,34.5C 32.9175,35.2216 33.5842,35.7216 34.5,36C 33.4019,36.7697 33.4019,37.603 34.5,38.5C 34.1667,38.5 33.8333,38.5 33.5,38.5C 33.1667,38.5 32.8333,38.5 32.5,38.5C 32.1667,37.1667 31.8333,37.1667 31.5,38.5C 31.1667,38.5 30.8333,38.5 30.5,38.5C 26.8609,36.3448 23.1943,34.1782 19.5,32C 19.8363,30.371 19.1696,28.871 17.5,27.5C 18.1667,27.1667 18.8333,26.8333 19.5,26.5 Z"/></g>
<g><path style="opacity:0.998" fill="#5fc3f8" d="M 40.5,27.5 C 41.552,27.3505 42.552,27.5172 43.5,28C 42.1667,28.6667 42.1667,29.3333 43.5,30C 46.4318,31.1449 49.4318,31.9782 52.5,32.5C 52.5,32.8333 52.5,33.1667 52.5,33.5C 47.5939,35.4533 42.5939,37.12 37.5,38.5C 37.0825,37.7784 36.4158,37.2784 35.5,37C 37.889,33.9981 37.5557,31.1647 34.5,28.5C 35.5,28.5 36.5,28.5 37.5,28.5C 37.8333,28.5 38.1667,28.5 38.5,28.5C 38.8333,28.5 39.1667,28.5 39.5,28.5C 40.1667,28.5 40.5,28.1667 40.5,27.5 Z"/></g>
<g><path style="opacity:1" fill="#6eeefd" d="M 81.5,29.5 C 79.8868,29.9443 78.7202,30.9443 78,32.5C 76.7083,31.2089 75.5417,31.2089 74.5,32.5C 71.3682,32.8428 68.0348,33.5095 64.5,34.5C 67.2622,32.992 69.9289,31.3253 72.5,29.5C 75.6038,28.2248 78.6038,28.2248 81.5,29.5 Z"/></g>
<g><path style="opacity:0.922" fill="#88b8e4" d="M 16.5,35.5 C 15.8333,35.5 15.5,35.8333 15.5,36.5C 15.5,37.1667 15.5,37.8333 15.5,38.5C 13.9991,37.2485 12.3325,36.2485 10.5,35.5C 8.5,34.1667 6.5,34.1667 4.5,35.5C 3.60895,36.1098 2.60895,36.4431 1.5,36.5C 1.84906,32.4573 4.18239,30.4573 8.5,30.5C 11.7157,31.4003 14.3824,33.067 16.5,35.5 Z"/></g>
<g><path style="opacity:1" fill="#51b0eb" d="M 30.5,27.5 C 31.9587,27.4326 33.2921,27.7659 34.5,28.5C 37.5557,31.1647 37.889,33.9981 35.5,37C 36.4158,37.2784 37.0825,37.7784 37.5,38.5C 36.791,39.404 35.791,39.7373 34.5,39.5C 34.5,39.1667 34.5,38.8333 34.5,38.5C 33.4019,37.603 33.4019,36.7697 34.5,36C 33.5842,35.7216 32.9175,35.2216 32.5,34.5C 32.233,32.0347 31.5664,29.7014 30.5,27.5 Z"/></g>
<g><path style="opacity:1" fill="#6ae9fd" d="M 74.5,32.5 C 74.5,33.5 74.5,34.5 74.5,35.5C 73.8333,35.5 73.1667,35.5 72.5,35.5C 67.868,36.3764 63.2014,37.0431 58.5,37.5C 60.6287,36.7972 62.6287,35.7972 64.5,34.5C 68.0348,33.5095 71.3682,32.8428 74.5,32.5 Z"/></g>
<g><path style="opacity:1" fill="#4eb6db" d="M 87.5,27.5 C 89.1898,27.8564 90.1898,28.8564 90.5,30.5C 89.1667,30.8333 89.1667,31.1667 90.5,31.5C 90.5,32.5 90.5,33.5 90.5,34.5C 85.298,35.3825 80.298,36.7159 75.5,38.5C 72.8333,38.8333 70.1667,39.1667 67.5,39.5C 70.2823,38.067 73.2823,36.9003 76.5,36C 75.9056,35.5357 75.2389,35.369 74.5,35.5C 74.5,34.5 74.5,33.5 74.5,32.5C 75.5417,31.2089 76.7083,31.2089 78,32.5C 78.7202,30.9443 79.8868,29.9443 81.5,29.5C 83.1667,29.5 84.8333,29.5 86.5,29.5C 87.1667,29.5 87.5,29.1667 87.5,28.5C 87.5,28.1667 87.5,27.8333 87.5,27.5 Z"/></g>
<g><path style="opacity:0.012" fill="#53e9ff" d="M 90.5,31.5 C 90.5,31.1667 90.5,30.8333 90.5,30.5C 91.6491,30.7911 92.3158,31.6244 92.5,33C 92.472,34.0698 92.1386,34.9032 91.5,35.5C 91.7678,33.901 91.4345,32.5676 90.5,31.5 Z"/></g>
<g><path style="opacity:1" fill="#75f0ff" d="M 64.5,34.5 C 62.6287,35.7972 60.6287,36.7972 58.5,37.5C 57.5084,37.3284 56.8417,37.6618 56.5,38.5C 52.8333,39.1667 49.1667,39.8333 45.5,40.5C 45.5569,39.391 45.8902,38.391 46.5,37.5C 46.8333,37.5 47.1667,37.5 47.5,37.5C 53.2048,36.7093 58.8715,35.7093 64.5,34.5 Z"/></g>
<g><path style="opacity:0.995" fill="#83f5fe" d="M 72.5,29.5 C 69.9289,31.3253 67.2622,32.992 64.5,34.5C 58.8715,35.7093 53.2048,36.7093 47.5,37.5C 49.3713,36.2028 51.3713,35.2028 53.5,34.5C 59.7108,32.364 66.0442,30.6973 72.5,29.5 Z"/></g>
<g><path style="opacity:0.008" fill="#7f7fff" d="M 90.5,35.5 C 90.8333,35.5 91.1667,35.5 91.5,35.5C 91.3147,36.1701 90.9813,36.1701 90.5,35.5 Z"/></g>
<g><path style="opacity:0.008" fill="#007f7e" d="M 89.5,36.5 C 89.8333,36.5 90.1667,36.5 90.5,36.5C 90.3147,37.1701 89.9813,37.1701 89.5,36.5 Z"/></g>
<g><path style="opacity:0.004" fill="#6756ff" d="M -0.5,34.5 C 0.833333,35.8333 0.833333,37.1667 -0.5,38.5C -0.5,37.1667 -0.5,35.8333 -0.5,34.5 Z"/></g>
<g><path style="opacity:1" fill="#176bc5" d="M 4.5,35.5 C 7.85585,34.8622 9.85585,36.1956 10.5,39.5C 10.6495,40.552 10.4828,41.552 10,42.5C 7.6872,39.9277 4.85386,38.261 1.5,37.5C 1.5,37.1667 1.5,36.8333 1.5,36.5C 2.60895,36.4431 3.60895,36.1098 4.5,35.5 Z"/></g>
<g><path style="opacity:1" fill="#64e3f9" d="M 72.5,35.5 C 68.7559,37.1324 64.7559,38.2991 60.5,39C 59.944,39.3826 59.6107,39.8826 59.5,40.5C 57.5,40.8333 55.5,41.1667 53.5,41.5C 54.842,40.207 56.5087,39.3736 58.5,39C 57.9056,38.5357 57.2389,38.369 56.5,38.5C 56.8417,37.6618 57.5084,37.3284 58.5,37.5C 63.2014,37.0431 67.868,36.3764 72.5,35.5 Z"/></g>
<g><path style="opacity:1" fill="#42cfec" d="M 72.5,35.5 C 73.1667,35.5 73.8333,35.5 74.5,35.5C 75.2389,35.369 75.9056,35.5357 76.5,36C 73.2823,36.9003 70.2823,38.067 67.5,39.5C 65.8828,40.038 64.2161,40.3713 62.5,40.5C 61.5,40.5 60.5,40.5 59.5,40.5C 59.6107,39.8826 59.944,39.3826 60.5,39C 64.7559,38.2991 68.7559,37.1324 72.5,35.5 Z"/></g>
<g><path style="opacity:0.012" fill="#55aaa9" d="M 88.5,37.5 C 88.8333,37.5 89.1667,37.5 89.5,37.5C 89.3147,38.1701 88.9813,38.1701 88.5,37.5 Z"/></g>
<g><path style="opacity:1" fill="#1878ca" d="M 4.5,35.5 C 6.5,34.1667 8.5,34.1667 10.5,35.5C 12.9455,38.4656 15.2788,41.6323 17.5,45C 19.6115,45.8447 21.6115,46.678 23.5,47.5C 22.8333,47.8333 22.1667,48.1667 21.5,48.5C 18.6699,47.4897 16.1699,45.8231 14,43.5C 13.6174,44.056 13.1174,44.3893 12.5,44.5C 12.2041,42.597 11.5375,40.9303 10.5,39.5C 9.85585,36.1956 7.85585,34.8622 4.5,35.5 Z"/></g>
<g><path style="opacity:0.996" fill="#3c8cbd" d="M 90.5,34.5 C 90.5,34.8333 90.5,35.1667 90.5,35.5C 89.8333,35.5 89.5,35.8333 89.5,36.5C 88.8333,36.5 88.5,36.8333 88.5,37.5C 87.1667,37.8333 87.1667,38.1667 88.5,38.5C 87.713,40.1042 86.3797,40.7709 84.5,40.5C 84.5,39.8333 84.1667,39.5 83.5,39.5C 82.1667,39.5 80.8333,39.5 79.5,39.5C 77.5,39.8333 75.5,40.1667 73.5,40.5C 74.1667,39.8333 74.8333,39.1667 75.5,38.5C 80.298,36.7159 85.298,35.3825 90.5,34.5 Z"/></g>
<g><path style="opacity:0.933" fill="#c3f7fc" d="M 52.5,33.5 C 52.5,34.1667 52.8333,34.5 53.5,34.5C 51.3713,35.2028 49.3713,36.2028 47.5,37.5C 47.1667,37.5 46.8333,37.5 46.5,37.5C 41.1049,38.7376 36.1049,40.7376 31.5,43.5C 30.0413,43.4326 28.7079,43.7659 27.5,44.5C 26.8333,44.5 26.5,44.1667 26.5,43.5C 26.5,42.8333 26.1667,42.5 25.5,42.5C 25.5,42.1667 25.5,41.8333 25.5,41.5C 27.3684,40.7368 29.0351,39.7368 30.5,38.5C 30.8333,38.5 31.1667,38.5 31.5,38.5C 31.8333,38.5 32.1667,38.5 32.5,38.5C 32.8333,38.5 33.1667,38.5 33.5,38.5C 33.5,39.1667 33.8333,39.5 34.5,39.5C 35.791,39.7373 36.791,39.404 37.5,38.5C 42.5939,37.12 47.5939,35.4533 52.5,33.5 Z"/></g>
<g><path style="opacity:1" fill="#82f2fe" d="M 46.5,37.5 C 45.8902,38.391 45.5569,39.391 45.5,40.5C 41.0729,42.2333 36.4062,43.2333 31.5,43.5C 36.1049,40.7376 41.1049,38.7376 46.5,37.5 Z"/></g>
<g><path style="opacity:1" fill="#2ca7d7" d="M 75.5,38.5 C 74.8333,39.1667 74.1667,39.8333 73.5,40.5C 72.8333,40.5 72.1667,40.5 71.5,40.5C 66.9235,41.81 62.2569,42.81 57.5,43.5C 59.0725,42.3127 60.7392,41.3127 62.5,40.5C 64.2161,40.3713 65.8828,40.038 67.5,39.5C 70.1667,39.1667 72.8333,38.8333 75.5,38.5 Z"/></g>
<g><path style="opacity:0.008" fill="#1d7fa8" d="M 3.5,40.5 C 3.63101,41.2389 3.46434,41.9056 3,42.5C 2.30831,41.5632 2.47498,40.8966 3.5,40.5 Z"/></g>
<g><path style="opacity:1" fill="#1686cd" d="M 10.5,35.5 C 12.3325,36.2485 13.9991,37.2485 15.5,38.5C 19.3817,40.9341 23.0484,43.6007 26.5,46.5C 25.391,46.5569 24.391,46.8902 23.5,47.5C 21.6115,46.678 19.6115,45.8447 17.5,45C 15.2788,41.6323 12.9455,38.4656 10.5,35.5 Z"/></g>
<g><path style="opacity:1" fill="#71eafe" d="M 56.5,38.5 C 57.2389,38.369 57.9056,38.5357 58.5,39C 56.5087,39.3736 54.842,40.207 53.5,41.5C 53.1667,41.5 52.8333,41.5 52.5,41.5C 44.2915,43.6358 35.9582,44.9691 27.5,45.5C 27.5,45.1667 27.5,44.8333 27.5,44.5C 28.7079,43.7659 30.0413,43.4326 31.5,43.5C 36.4062,43.2333 41.0729,42.2333 45.5,40.5C 49.1667,39.8333 52.8333,39.1667 56.5,38.5 Z"/></g>
<g><path style="opacity:1" fill="#3ac4ed" d="M 59.5,40.5 C 60.5,40.5 61.5,40.5 62.5,40.5C 60.7392,41.3127 59.0725,42.3127 57.5,43.5C 53.1734,44.5511 48.84,45.7177 44.5,47C 43.944,47.3826 43.6107,47.8826 43.5,48.5C 42.0413,48.4326 40.7079,48.7659 39.5,49.5C 38.5,49.5 37.5,49.5 36.5,49.5C 38.964,48.4335 41.2974,47.1002 43.5,45.5C 46.6319,44.2752 49.6319,42.9419 52.5,41.5C 52.8333,41.5 53.1667,41.5 53.5,41.5C 55.5,41.1667 57.5,40.8333 59.5,40.5 Z"/></g>
<g><path style="opacity:0.996" fill="#2a78ac" d="M 79.5,39.5 C 74.1517,42.3996 68.4851,44.7329 62.5,46.5C 62.5,46.1667 62.5,45.8333 62.5,45.5C 63.1667,45.5 63.5,45.1667 63.5,44.5C 66.2542,43.3586 68.9209,42.0252 71.5,40.5C 72.1667,40.5 72.8333,40.5 73.5,40.5C 75.5,40.1667 77.5,39.8333 79.5,39.5 Z"/></g>
<g><path style="opacity:0.616" fill="#4f6988" d="M 79.5,39.5 C 80.8333,39.5 82.1667,39.5 83.5,39.5C 84.1667,39.5 84.5,39.8333 84.5,40.5C 80.3864,43.5509 75.7197,45.5509 70.5,46.5C 69.8333,45.1667 69.1667,45.1667 68.5,46.5C 67.209,46.2627 66.209,46.596 65.5,47.5C 64.5,47.5 63.5,47.5 62.5,47.5C 62.5,47.1667 62.5,46.8333 62.5,46.5C 68.4851,44.7329 74.1517,42.3996 79.5,39.5 Z"/></g>
<g><path style="opacity:0.937" fill="#5fc3dc" d="M 16.5,35.5 C 20.0246,36.7589 23.0246,38.7589 25.5,41.5C 24.1667,41.8333 24.1667,42.1667 25.5,42.5C 26.1667,42.5 26.5,42.8333 26.5,43.5C 26.5,44.1667 26.8333,44.5 27.5,44.5C 27.5,44.8333 27.5,45.1667 27.5,45.5C 27.5,46.1667 27.1667,46.5 26.5,46.5C 23.0484,43.6007 19.3817,40.9341 15.5,38.5C 15.5,37.8333 15.5,37.1667 15.5,36.5C 16.1667,36.5 16.5,36.1667 16.5,35.5 Z"/></g>
<g><path style="opacity:1" fill="#66e1fc" d="M 52.5,41.5 C 49.6319,42.9419 46.6319,44.2752 43.5,45.5C 37.9513,47.2363 32.2846,48.5696 26.5,49.5C 26.5,48.5 26.5,47.5 26.5,46.5C 27.1667,46.5 27.5,46.1667 27.5,45.5C 35.9582,44.9691 44.2915,43.6358 52.5,41.5 Z"/></g>
<g><path style="opacity:0.004" fill="#1c2b4e" d="M 6.5,44.5 C 6.63101,45.2389 6.46434,45.9056 6,46.5C 5.30831,45.5632 5.47498,44.8966 6.5,44.5 Z"/></g>
<g><path style="opacity:1" fill="#2069b8" d="M 1.5,37.5 C 4.85386,38.261 7.6872,39.9277 10,42.5C 10.4828,41.552 10.6495,40.552 10.5,39.5C 11.5375,40.9303 12.2041,42.597 12.5,44.5C 12.5,46.5 12.5,48.5 12.5,50.5C 11.8333,50.1667 11.1667,49.8333 10.5,49.5C 10.5,48.8333 10.1667,48.5 9.5,48.5C 8.48837,47.1283 7.48837,45.795 6.5,44.5C 5.48837,43.1283 4.48837,41.795 3.5,40.5C 2.83333,39.5 2.16667,38.5 1.5,37.5 Z"/></g>
<g><path style="opacity:1" fill="#1d75d1" d="M 63.5,44.5 C 63.5,45.1667 63.1667,45.5 62.5,45.5C 61.0413,45.4326 59.7079,45.7659 58.5,46.5C 56.7162,46.8925 55.0495,47.5592 53.5,48.5C 51.0634,48.886 49.0634,50.0527 47.5,52C 47.8333,52.3333 48.1667,52.6667 48.5,53C 46.2968,55.3722 43.9635,57.5389 41.5,59.5C 40.794,58.4427 40.4607,58.7761 40.5,60.5C 39.6618,60.1583 39.3284,59.4916 39.5,58.5C 39.8417,57.6618 40.5084,57.3284 41.5,57.5C 42.3382,57.1583 42.6716,56.4916 42.5,55.5C 43.1667,55.5 43.5,55.1667 43.5,54.5C 46.3785,51.9693 45.7119,50.9693 41.5,51.5C 42.3065,50.2719 43.3065,49.2719 44.5,48.5C 50.541,45.9346 56.8744,44.6012 63.5,44.5 Z"/></g>
<g><path style="opacity:0.012" fill="#42849c" d="M 68.5,47.5 C 68.5,47.1667 68.5,46.8333 68.5,46.5C 69.1667,46.5 69.8333,46.5 70.5,46.5C 70.1583,47.3382 69.4916,47.6716 68.5,47.5 Z"/></g>
<g><path style="opacity:0.995" fill="#186bbf" d="M 21.5,48.5 C 20.8333,48.8333 20.1667,49.1667 19.5,49.5C 17.6336,50.0138 15.8003,50.6805 14,51.5C 13.2352,51.4301 12.7352,51.0967 12.5,50.5C 12.5,48.5 12.5,46.5 12.5,44.5C 13.1174,44.3893 13.6174,44.056 14,43.5C 16.1699,45.8231 18.6699,47.4897 21.5,48.5 Z"/></g>
<g><path style="opacity:1" fill="#2498d9" d="M 71.5,40.5 C 68.9209,42.0252 66.2542,43.3586 63.5,44.5C 56.8744,44.6012 50.541,45.9346 44.5,48.5C 44.1667,48.5 43.8333,48.5 43.5,48.5C 43.6107,47.8826 43.944,47.3826 44.5,47C 48.84,45.7177 53.1734,44.5511 57.5,43.5C 62.2569,42.81 66.9235,41.81 71.5,40.5 Z"/></g>
<g><path style="opacity:1" fill="#4b9cd3" d="M 62.5,45.5 C 62.5,45.8333 62.5,46.1667 62.5,46.5C 62.5,46.8333 62.5,47.1667 62.5,47.5C 63.209,48.404 64.209,48.7373 65.5,48.5C 63.1667,50.1667 61.1667,52.1667 59.5,54.5C 59.5,53.8333 59.1667,53.5 58.5,53.5C 59.0965,51.602 59.0965,49.9354 58.5,48.5C 58.5,47.8333 58.5,47.1667 58.5,46.5C 59.7079,45.7659 61.0413,45.4326 62.5,45.5 Z"/></g>
<g><path style="opacity:0.012" fill="#5873d4" d="M 65.5,48.5 C 65.5,48.1667 65.5,47.8333 65.5,47.5C 66.5,47.5 67.5,47.5 68.5,47.5C 67.791,48.404 66.791,48.7373 65.5,48.5 Z"/></g>
<g><path style="opacity:1" fill="#52cff4" d="M 43.5,45.5 C 41.2974,47.1002 38.964,48.4335 36.5,49.5C 30.5188,50.4986 24.5188,50.9986 18.5,51C 19.056,50.6174 19.3893,50.1174 19.5,49.5C 20.1667,49.1667 20.8333,48.8333 21.5,48.5C 22.1667,48.1667 22.8333,47.8333 23.5,47.5C 24.391,46.8902 25.391,46.5569 26.5,46.5C 26.5,47.5 26.5,48.5 26.5,49.5C 32.2846,48.5696 37.9513,47.2363 43.5,45.5 Z"/></g>
<g><path style="opacity:1" fill="#53c2ed" d="M 9.5,48.5 C 9.46072,50.2239 9.79405,50.5573 10.5,49.5C 11.1667,49.8333 11.8333,50.1667 12.5,50.5C 12.7352,51.0967 13.2352,51.4301 14,51.5C 15.8003,50.6805 17.6336,50.0138 19.5,49.5C 19.3893,50.1174 19.056,50.6174 18.5,51C 24.5188,50.9986 30.5188,50.4986 36.5,49.5C 34.9812,50.4098 33.3146,51.2432 31.5,52C 23.1833,53.0627 14.85,53.896 6.5,54.5C 6.51056,52.9826 7.17723,51.8159 8.5,51C 7.434,49.841 7.76733,49.0076 9.5,48.5 Z"/></g>
<g><path style="opacity:1" fill="#2695da" d="M 36.5,49.5 C 37.5,49.5 38.5,49.5 39.5,49.5C 35.5125,52.1609 31.1791,53.8276 26.5,54.5C 20.1487,54.5572 13.8154,54.8905 7.5,55.5C 6.83333,55.5 6.5,55.1667 6.5,54.5C 14.85,53.896 23.1833,53.0627 31.5,52C 33.3146,51.2432 34.9812,50.4098 36.5,49.5 Z"/></g>
<g><path style="opacity:1" fill="#217bc8" d="M 43.5,48.5 C 43.8333,48.5 44.1667,48.5 44.5,48.5C 43.3065,49.2719 42.3065,50.2719 41.5,51.5C 38.3728,52.9973 35.0395,53.9973 31.5,54.5C 29.8333,54.5 28.1667,54.5 26.5,54.5C 31.1791,53.8276 35.5125,52.1609 39.5,49.5C 40.7079,48.7659 42.0413,48.4326 43.5,48.5 Z"/></g>
<g><path style="opacity:1" fill="#47b7f4" d="M 58.5,48.5 C 59.0965,49.9354 59.0965,51.602 58.5,53.5C 59.1667,53.5 59.5,53.8333 59.5,54.5C 59.573,56.0269 58.9063,57.0269 57.5,57.5C 57.5,56.8333 57.1667,56.5 56.5,56.5C 52.6474,58.2644 51.3141,57.2644 52.5,53.5C 54.5,51.8333 56.5,50.1667 58.5,48.5 Z"/></g>
<g><path style="opacity:0.016" fill="#87deff" d="M 4.5,52.5 C 5.57346,53.2506 5.74012,54.2506 5,55.5C 4.51722,54.552 4.35055,53.552 4.5,52.5 Z"/></g>
<g><path style="opacity:0.984" fill="#2861a6" d="M 41.5,51.5 C 45.7119,50.9693 46.3785,51.9693 43.5,54.5C 43.1667,54.5 42.8333,54.5 42.5,54.5C 41.209,54.2627 40.209,54.596 39.5,55.5C 38.209,55.2627 37.209,55.596 36.5,56.5C 34.5,56.5 32.5,56.5 30.5,56.5C 30.8333,55.8333 31.1667,55.1667 31.5,54.5C 35.0395,53.9973 38.3728,52.9973 41.5,51.5 Z"/></g>
<g><path style="opacity:1" fill="#2d9de7" d="M 53.5,48.5 C 50.9015,52.438 47.9015,56.1047 44.5,59.5C 42.4842,61.249 40.8175,63.249 39.5,65.5C 40.038,63.8828 40.3713,62.2161 40.5,60.5C 41.1667,60.5 41.5,60.1667 41.5,59.5C 43.9635,57.5389 46.2968,55.3722 48.5,53C 48.1667,52.6667 47.8333,52.3333 47.5,52C 49.0634,50.0527 51.0634,48.886 53.5,48.5 Z"/></g>
<g><path style="opacity:0.992" fill="#2666bb" d="M 26.5,54.5 C 28.1667,54.5 29.8333,54.5 31.5,54.5C 31.1667,55.1667 30.8333,55.8333 30.5,56.5C 25.187,57.0978 19.8537,57.4312 14.5,57.5C 9.16667,57.8333 9.16667,58.1667 14.5,58.5C 11.6443,59.8983 8.97765,59.3983 6.5,57C 7.05596,56.6174 7.38929,56.1174 7.5,55.5C 13.8154,54.8905 20.1487,54.5572 26.5,54.5 Z"/></g>
<g><path style="opacity:1" fill="#35b2f2" d="M 58.5,46.5 C 58.5,47.1667 58.5,47.8333 58.5,48.5C 56.5,50.1667 54.5,51.8333 52.5,53.5C 50.1394,55.1939 48.1394,57.1939 46.5,59.5C 45.8333,59.5 45.1667,59.5 44.5,59.5C 47.9015,56.1047 50.9015,52.438 53.5,48.5C 55.0495,47.5592 56.7162,46.8925 58.5,46.5 Z"/></g>
<g><path style="opacity:0.992" fill="#4f5d8e" d="M 42.5,54.5 C 42.5,54.8333 42.5,55.1667 42.5,55.5C 41.6618,55.8417 41.3284,56.5084 41.5,57.5C 40.5084,57.3284 39.8417,57.6618 39.5,58.5C 31.2269,58.8208 22.8936,58.8208 14.5,58.5C 14.5,58.1667 14.5,57.8333 14.5,57.5C 19.8537,57.4312 25.187,57.0978 30.5,56.5C 32.5,56.5 34.5,56.5 36.5,56.5C 37.209,55.596 38.209,55.2627 39.5,55.5C 40.209,54.596 41.209,54.2627 42.5,54.5 Z"/></g>
<g><path style="opacity:1" fill="#47b8f2" d="M 52.5,53.5 C 51.3141,57.2644 52.6474,58.2644 56.5,56.5C 56.5,56.8333 56.5,57.1667 56.5,57.5C 55.8333,57.5 55.5,57.8333 55.5,58.5C 52.8851,59.4499 50.8851,61.1165 49.5,63.5C 46.4502,63.3538 45.4502,62.0204 46.5,59.5C 48.1394,57.1939 50.1394,55.1939 52.5,53.5 Z"/></g>
<g><path style="opacity:0.012" fill="#504b82" d="M 16.5,60.5 C 20.9811,59.3516 25.6478,59.1849 30.5,60C 25.8452,60.4992 21.1785,60.6658 16.5,60.5 Z"/></g>
<g><path style="opacity:0.992" fill="#5eb4ea" d="M 44.5,59.5 C 45.1667,59.5 45.8333,59.5 46.5,59.5C 45.4502,62.0204 46.4502,63.3538 49.5,63.5C 49.5,63.8333 49.5,64.1667 49.5,64.5C 44.6144,63.1442 41.4477,65.1442 40,70.5C 39.6012,70.2716 39.4346,69.9382 39.5,69.5C 39.5,68.1667 39.5,66.8333 39.5,65.5C 40.8175,63.249 42.4842,61.249 44.5,59.5 Z"/></g>
<g><path style="opacity:0.016" fill="#3f7eff" d="M 54.5,60.5 C 54.8333,60.5 55.1667,60.5 55.5,60.5C 55.3147,61.1701 54.9813,61.1701 54.5,60.5 Z"/></g>
<g><path style="opacity:0.008" fill="#34728d" d="M 53.5,61.5 C 53.8333,61.5 54.1667,61.5 54.5,61.5C 54.6716,62.4916 54.3382,63.1583 53.5,63.5C 53.5,62.8333 53.5,62.1667 53.5,61.5 Z"/></g>
<g><path style="opacity:0.008" fill="#1e6a89" d="M 52.5,63.5 C 52.8333,63.5 53.1667,63.5 53.5,63.5C 53.573,65.0269 52.9063,66.0269 51.5,66.5C 51.5,65.8333 51.5,65.1667 51.5,64.5C 52.1667,64.5 52.5,64.1667 52.5,63.5 Z"/></g>
<g><path style="opacity:0.016" fill="#007ebf" d="M 50.5,66.5 C 50.8333,66.5 51.1667,66.5 51.5,66.5C 51.3147,67.1701 50.9813,67.1701 50.5,66.5 Z"/></g>
<g><path style="opacity:1" fill="#57ace7" d="M 49.5,64.5 C 48.3862,65.8853 47.3862,67.3853 46.5,69C 43.589,69.33 41.089,70.4967 39,72.5C 38.2599,71.2506 38.4265,70.2506 39.5,69.5C 39.4346,69.9382 39.6012,70.2716 40,70.5C 41.4477,65.1442 44.6144,63.1442 49.5,64.5 Z"/></g>
<g><path style="opacity:0.008" fill="#007eff" d="M 49.5,67.5 C 49.8333,67.5 50.1667,67.5 50.5,67.5C 50.6716,68.4916 50.3382,69.1583 49.5,69.5C 49.5,68.8333 49.5,68.1667 49.5,67.5 Z"/></g>
<g><path style="opacity:0.012" fill="#0054aa" d="M 48.5,69.5 C 48.8333,69.5 49.1667,69.5 49.5,69.5C 49.3147,70.1701 48.9813,70.1701 48.5,69.5 Z"/></g>
<g><path style="opacity:0.012" fill="#0054aa" d="M 47.5,70.5 C 47.8333,70.5 48.1667,70.5 48.5,70.5C 48.3147,71.1701 47.9813,71.1701 47.5,70.5 Z"/></g>
<g><path style="opacity:0.99" fill="#4985c9" d="M 56.5,57.5 C 56.8333,57.5 57.1667,57.5 57.5,57.5C 57.573,59.0269 56.9063,60.0269 55.5,60.5C 55.1667,59.1667 54.8333,59.1667 54.5,60.5C 53.8333,60.5 53.5,60.8333 53.5,61.5C 52.6618,61.8417 52.3284,62.5084 52.5,63.5C 51.8333,63.5 51.5,63.8333 51.5,64.5C 50.6618,64.8417 50.3284,65.5084 50.5,66.5C 49.8333,66.5 49.5,66.8333 49.5,67.5C 48.6618,67.8417 48.3284,68.5084 48.5,69.5C 47.8333,69.5 47.5,69.8333 47.5,70.5C 46.8333,70.5 46.5,70.8333 46.5,71.5C 45.8333,71.5 45.5,71.8333 45.5,72.5C 44.8333,72.5 44.5,72.8333 44.5,73.5C 43.1667,73.8333 43.1667,74.1667 44.5,74.5C 42.1676,77.3312 39.1676,78.4978 35.5,78C 39.449,77.1932 39.449,76.6932 35.5,76.5C 35.5,75.5 35.5,74.5 35.5,73.5C 37.0252,70.9209 38.3586,68.2542 39.5,65.5C 39.5,66.8333 39.5,68.1667 39.5,69.5C 38.4265,70.2506 38.2599,71.2506 39,72.5C 41.089,70.4967 43.589,69.33 46.5,69C 47.3862,67.3853 48.3862,65.8853 49.5,64.5C 49.5,64.1667 49.5,63.8333 49.5,63.5C 50.8851,61.1165 52.8851,59.4499 55.5,58.5C 56.1667,58.5 56.5,58.1667 56.5,57.5 Z"/></g>
<g><path style="opacity:0.016" fill="#3f7fbf" d="M 46.5,71.5 C 46.8333,71.5 47.1667,71.5 47.5,71.5C 47.3147,72.1701 46.9813,72.1701 46.5,71.5 Z"/></g>
<g><path style="opacity:0.016" fill="#4971b7" d="M 35.5,73.5 C 35.1667,73.5 34.8333,73.5 34.5,73.5C 34.8333,70.8333 35.1667,70.8333 35.5,73.5 Z"/></g>
<g><path style="opacity:0.012" fill="#5555aa" d="M 45.5,72.5 C 45.8333,72.5 46.1667,72.5 46.5,72.5C 46.3147,73.1701 45.9813,73.1701 45.5,72.5 Z"/></g>
<g><path style="opacity:0.016" fill="#003ebf" d="M 44.5,73.5 C 44.8333,73.5 45.1667,73.5 45.5,73.5C 45.3147,74.1701 44.9813,74.1701 44.5,73.5 Z"/></g>
<g><path style="opacity:0.012" fill="#4856de" d="M 34.5,73.5 C 34.6495,74.552 34.4828,75.552 34,76.5C 33.2599,75.2506 33.4265,74.2506 34.5,73.5 Z"/></g>
</svg>
