<?xml version="1.0" encoding="UTF-8"?>
<!DOCTYPE svg PUBLIC "-//W3C//DTD SVG 1.1//EN" "http://www.w3.org/Graphics/SVG/1.1/DTD/svg11.dtd">
<svg xmlns="http://www.w3.org/2000/svg" version="1.1" width="50px" height="50px" style="shape-rendering:geometricPrecision; text-rendering:geometricPrecision; image-rendering:optimizeQuality; fill-rule:evenodd; clip-rule:evenodd" xmlns:xlink="http://www.w3.org/1999/xlink">
<g><path style="opacity:0.959" fill="#000000" d="M 49.5,26.5 C 49.5,27.1667 49.5,27.8333 49.5,28.5C 48.8335,33.6813 48.1668,39.0147 47.5,44.5C 46.1667,23.1667 44.8333,23.1667 43.5,44.5C 41.5,29.8333 39.5,29.8333 37.5,44.5C 35.8414,23.2078 34.8414,23.2078 34.5,44.5C 32.8333,44.5 31.1667,44.5 29.5,44.5C 29.8254,39.4012 29.3254,34.4012 28,29.5C 24.0614,26.7956 21.3948,27.7956 20,32.5C 19.5012,36.4862 19.3345,40.4862 19.5,44.5C 17.8333,44.5 16.1667,44.5 14.5,44.5C 14.1586,23.2078 13.1586,23.2078 11.5,44.5C 9.5,29.8333 7.5,29.8333 5.5,44.5C 4.16667,23.1667 2.83333,23.1667 1.5,44.5C 0.833192,39.0147 0.166525,33.6813 -0.5,28.5C -0.5,27.8333 -0.5,27.1667 -0.5,26.5C 3.22605,26.8226 6.89272,26.4892 10.5,25.5C 8.60395,24.5344 6.60395,24.2011 4.5,24.5C 4.5,23.1667 4.5,21.8333 4.5,20.5C 6.5,20.5 8.5,20.5 10.5,20.5C 9.81597,15.902 9.98263,11.2353 11,6.5C 12.6667,3.83333 14.3333,3.83333 16,6.5C 16.4974,9.14603 16.6641,11.8127 16.5,14.5C 21.8333,14.5 27.1667,14.5 32.5,14.5C 32.3359,11.8127 32.5026,9.14603 33,6.5C 34.6667,3.83333 36.3333,3.83333 38,6.5C 39.0174,11.2353 39.184,15.902 38.5,20.5C 40.5,20.5 42.5,20.5 44.5,20.5C 44.5,21.8333 44.5,23.1667 44.5,24.5C 42.396,24.2011 40.396,24.5344 38.5,25.5C 42.1073,26.4892 45.774,26.8226 49.5,26.5 Z M 12.5,12.5 C 14.337,12.6395 14.6704,13.3061 13.5,14.5C 12.7025,14.0431 12.3691,13.3764 12.5,12.5 Z M 34.5,12.5 C 36.337,12.6395 36.6704,13.3061 35.5,14.5C 34.7025,14.0431 34.3691,13.3764 34.5,12.5 Z M 12.5,16.5 C 13.5862,16.62 14.2528,17.2867 14.5,18.5C 14.1667,19.1667 13.8333,19.8333 13.5,20.5C 12.5713,19.3112 12.238,17.9778 12.5,16.5 Z M 34.5,16.5 C 35.5862,16.62 36.2528,17.2867 36.5,18.5C 36.1667,19.1667 35.8333,19.8333 35.5,20.5C 34.5713,19.3112 34.238,17.9778 34.5,16.5 Z M 16.5,20.5 C 21.8746,20.1718 27.2079,20.5052 32.5,21.5C 29.8333,21.8333 27.1667,22.1667 24.5,22.5C 21.4098,22.4783 18.7432,21.8117 16.5,20.5 Z M 12.5,22.5 C 13.5862,22.62 14.2528,23.2867 14.5,24.5C 14.1667,25.1667 13.8333,25.8333 13.5,26.5C 12.5713,25.3112 12.238,23.9778 12.5,22.5 Z M 34.5,22.5 C 35.5862,22.62 36.2528,23.2867 36.5,24.5C 36.1667,25.1667 35.8333,25.8333 35.5,26.5C 34.5713,25.3112 34.238,23.9778 34.5,22.5 Z"/></g>
<g><path style="opacity:0.991" fill="#000000" d="M 0.5,20.5 C 1.58617,20.62 2.25284,21.2867 2.5,22.5C 2.16667,23.1667 1.83333,23.8333 1.5,24.5C 0.571312,23.3112 0.237978,21.9778 0.5,20.5 Z"/></g>
<g><path style="opacity:0.991" fill="#000000" d="M 46.5,20.5 C 47.5862,20.62 48.2528,21.2867 48.5,22.5C 48.1667,23.1667 47.8333,23.8333 47.5,24.5C 46.5713,23.3112 46.238,21.9778 46.5,20.5 Z"/></g>
<g><path style="opacity:0.909" fill="#000000" d="M 7.5,37.5 C 8.72507,38.1522 9.39174,39.3189 9.5,41C 9.16667,42.1667 8.83333,43.3333 8.5,44.5C 7.52577,42.2573 7.19244,39.924 7.5,37.5 Z"/></g>
<g><path style="opacity:0.909" fill="#000000" d="M 39.5,37.5 C 40.7251,38.1522 41.3917,39.3189 41.5,41C 41.1667,42.1667 40.8333,43.3333 40.5,44.5C 39.5258,42.2573 39.1924,39.924 39.5,37.5 Z"/></g>
</svg>
